<?xml version="1.0" standalone="no"?>
<!DOCTYPE svg PUBLIC "-//W3C//DTD SVG 1.1//EN" "http://www.w3.org/Graphics/SVG/1.1/DTD/svg11.dtd" >
<svg xmlns="http://www.w3.org/2000/svg" xmlns:xlink="http://www.w3.org/1999/xlink" version="1.1">
<metadata>
Created by FontForge 20161003 at Wed Sep 27 09:58:58 2017
 By www-data
Copyright A^(c) 2014 by RenA~(c) Bieder. All rights reserved.
</metadata>
<defs>
<font id="CamptonThin" horiz-adv-x="600" >
  <font-face 
    font-family="CamptonThin"
    font-weight="100"
    font-stretch="normal"
    units-per-em="1000"
    panose-1="0 0 0 0 0 0 0 0 0 0"
    ascent="744"
    descent="-256"
    x-height="450"
    cap-height="680"
    bbox="-60 -260 1423 949"
    underline-thickness="50"
    underline-position="-150"
    unicode-range="U+0020-FB02"
  />
<missing-glyph horiz-adv-x="870" 
d="M770 680v-680h-670v680h670zM700 610h-481l481 -481v481zM170 70h477l-477 477v-477z" />
    <glyph glyph-name=".notdef" horiz-adv-x="870" 
d="M770 680v-680h-670v680h670zM700 610h-481l481 -481v481zM170 70h477l-477 477v-477z" />
    <glyph glyph-name=".null" horiz-adv-x="0" 
 />
    <glyph glyph-name="nonmarkingreturn" horiz-adv-x="333" 
 />
    <glyph glyph-name="space" unicode=" " horiz-adv-x="280" 
 />
    <glyph glyph-name="exclam" unicode="!" horiz-adv-x="246" 
d="M134 160h-22v520h22v-520zM139 -1q-9 -11 -21.5 -6.5t-16 16t4.5 22.5q10 10 23 5.5t16 -16t-6 -21.5z" />
    <glyph glyph-name="quotedbl" unicode="&#x22;" horiz-adv-x="305" 
d="M91 680v-259h-21v259h21zM235 680v-259h-21v259h21z" />
    <glyph glyph-name="numbersign" unicode="#" horiz-adv-x="710" 
d="M467 242h138v-16h-143l-71 -226h-21l71 226h-254l-71 -226h-21l71 226h-116v16h121l62 200h-128v16h133l70 223h21l-70 -223h254l70 223h21l-70 -223h126v-16h-131zM254 442l-62 -200h254l62 200h-254z" />
    <glyph glyph-name="dollar" unicode="$" horiz-adv-x="653" 
d="M583 183q0 -86 -64 -140q-62 -53 -167 -58v-126h-21v126q-234 5 -266 227h22q33 -207 252 -207q99 0 161 48q61 49 61 129q0 57 -41 95.5t-116 52.5l-124 24q-88 17 -135.5 58.5t-47.5 103.5q0 80 63 129q64 50 166 50h5v134h21v-135q97 -6 156 -54t72 -127h-22
q-16 78 -75 120t-157 42q-93 0 -149.5 -44t-56.5 -117q0 -53 43.5 -89.5t124.5 -51.5l121 -23q84 -16 129 -59t45 -108z" />
    <glyph glyph-name="percent" unicode="%" horiz-adv-x="1083" 
d="M151 642q53 53 128 53q76 0 127 -53q52 -52 52 -131q0 -80 -52 -132q-51 -52 -127 -52t-128 52q-51 53 -51 132t51 131zM329 0h-24l444 680h24zM167 395q46 -46 112 -46t112 46t46 116t-46 116q-47 47 -112 47t-112 -47q-46 -46 -46 -116t46 -116zM676 300q53 53 128 53
q76 0 127 -53q52 -52 52 -131q0 -80 -52 -132q-51 -52 -127 -52t-128 52q-51 53 -51 132q0 78 51 131zM692 53q46 -46 112 -46t112 46t46 116t-46 116q-47 47 -112 47t-112 -47q-46 -46 -46 -116t46 -116z" />
    <glyph glyph-name="ampersand" unicode="&#x26;" horiz-adv-x="736" 
d="M664 0l-129 110q-97 -121 -238 -121q-103 0 -165 52q-62 53 -62 135q0 74 48 123q49 52 114 74q-44 45 -63 81t-19 77q0 72 49 118t129 46q74 0 123 -42.5t57 -119.5h-20q-9 68 -52 105t-108 37q-69 0 -112.5 -40.5t-43.5 -104.5q0 -59 41 -109q41 -48 153 -142
q22 -18 24 -20l142 -121l129 171h23l-136 -183l148 -126h-32zM299 9q128 0 221 114l-144 122l-128 112q-72 -22 -114 -68.5t-42 -110.5q0 -76 56.5 -122.5t150.5 -46.5z" />
    <glyph glyph-name="quotesingle" unicode="'" horiz-adv-x="161" 
d="M91 680v-259h-21v259h21z" />
    <glyph glyph-name="parenleft" unicode="(" horiz-adv-x="328" 
d="M278 -96l-12 -15q-191 143 -191 417t191 417l12 -15q-93 -73 -137.5 -171t-44.5 -231t44.5 -231t137.5 -171z" />
    <glyph glyph-name="parenright" unicode=")" horiz-adv-x="328" 
d="M50 708l12 15q191 -143 191 -417t-191 -417l-12 15q93 73 137.5 171t44.5 231t-44.5 231t-137.5 171z" />
    <glyph glyph-name="asterisk" unicode="*" horiz-adv-x="395" 
d="M335 470l-9 -15l-120 70v-129h-18v129l-119 -70l-9 15l120 71l-120 70l9 16l119 -70v125h18v-126l120 71l9 -16l-120 -70z" />
    <glyph glyph-name="plus" unicode="+" horiz-adv-x="702" 
d="M363 305v-211h-23v211h-210v21h210v211h23v-211h210v-21h-210z" />
    <glyph glyph-name="comma" unicode="," horiz-adv-x="178" 
d="M50 -160l50 155q-18 3 -18 20q0 14 11.5 20t23 0t11.5 -20q0 -9 -6 -27l-54 -148h-18z" />
    <glyph glyph-name="hyphen" unicode="-" horiz-adv-x="574" 
d="M444 291v-21h-314v21h314z" />
    <glyph glyph-name="period" unicode="." horiz-adv-x="146" 
d="M89 -1q-9 -11 -21.5 -6.5t-16 16t4.5 22.5q10 10 23 5.5t16 -16t-6 -21.5z" />
    <glyph glyph-name="slash" unicode="/" horiz-adv-x="400" 
d="M72 -160h-22l278 890h22z" />
    <glyph glyph-name="zero" unicode="0" horiz-adv-x="716" 
d="M150 598q76 97 208 97q131 0 207 -97t76 -258q0 -162 -76 -259q-75 -96 -207 -96q-133 0 -208 96t-75 259q0 162 75 258zM167 96q69 -91 191 -91t191 91t69 244q0 152 -69 244q-69 91 -191 91t-191 -91q-69 -92 -69 -244q0 -153 69 -244z" />
    <glyph glyph-name="one" unicode="1" horiz-adv-x="496" 
d="M476 20v-20h-421v20h210v634l-195 -77v23l206 80h10v-660h190z" />
    <glyph glyph-name="two" unicode="2" horiz-adv-x="557" 
d="M507 20v-20h-438v13l229 217q93 87 131 141q39 55 39 121q0 79 -55 131t-142 52q-82 0 -138 -44.5t-65 -117.5h-21q8 83 68 132q62 50 154 50q99 0 160 -57t61 -146q0 -66 -41 -127q-36 -53 -136 -149l-205 -196h399z" />
    <glyph glyph-name="three" unicode="3" horiz-adv-x="564" 
d="M372 346q64 -17 101 -63t37 -111q0 -82 -63 -133q-62 -50 -164 -50q-98 0 -163 44q-64 43 -70 117h22q7 -64 65.5 -102.5t146.5 -38.5q92 0 148 45t56 118t-51.5 118t-136.5 45h-59v20h59q76 0 122 43t46 114q0 74 -51.5 118.5t-138.5 44.5q-77 0 -127 -37.5t-58 -100.5
h-23q8 72 63.5 115t142.5 43q98 0 156 -50t58 -133q0 -60 -31.5 -104t-86.5 -62z" />
    <glyph glyph-name="four" unicode="4" horiz-adv-x="646" 
d="M596 162h-125v-162h-21v162h-380v13l220 505h23l-215 -498h352v238h21v-238h125v-20z" />
    <glyph glyph-name="five" unicode="5" horiz-adv-x="580" 
d="M120 403h176q103 0 166 -55q63 -56 63 -144q0 -93 -67 -156q-68 -63 -171 -63t-168.5 50.5t-83.5 141.5h23q17 -82 76.5 -127t152.5 -45q95 0 155 57q61 58 61 142q0 82 -56.5 131t-151.5 48l-196 -1l1 298h385v-20h-364z" />
    <glyph glyph-name="six" unicode="6" horiz-adv-x="612" 
d="M306 445q106 0 173 -63q68 -63 68 -165q0 -103 -68 -168q-67 -64 -173 -64t-173 64q-68 65 -68 168q0 81 48 145l242 318h28l-201 -264q56 29 124 29zM524 217q0 93 -62 150q-61 58 -156 58q-105 0 -165 -62l-10 -14q-43 -61 -43 -132q0 -95 61 -153q62 -59 157 -59
q94 0 156 59t62 153z" />
    <glyph glyph-name="seven" unicode="7" horiz-adv-x="501" 
d="M476 680v-14l-346 -666h-27l345 660h-428v20h456z" />
    <glyph glyph-name="eight" unicode="8" horiz-adv-x="618" 
d="M385 360q78 -16 123 -62.5t45 -113.5q0 -88 -68 -144q-67 -55 -176 -55q-110 0 -177 55t-67 144q0 67 45 113.5t123 62.5q-64 15 -100.5 56.5t-36.5 100.5q0 76 61 127q62 51 152 51q91 0 153 -51q61 -51 61 -127q0 -60 -36.5 -101t-101.5 -56zM117 517q0 -69 53 -109.5
t139 -40.5t139 40.5t53 109.5q0 67 -55 113t-137 46t-137 -46t-55 -113zM531 184q0 75 -61 121t-161 46t-161 -46t-61 -121q0 -81 61 -130t161 -49t161 49t61 130z" />
    <glyph glyph-name="nine" unicode="9" horiz-adv-x="612" 
d="M547 463q0 -81 -48 -145l-242 -318h-28l201 264q-56 -29 -124 -29q-106 0 -173 63q-68 63 -68 165t68 167t173 65t173 -65t68 -167zM471 317l10 14q43 61 43 132q0 94 -62 153t-156 59q-95 0 -157 -59q-61 -58 -61 -153q0 -93 61 -151q61 -57 157 -57q105 0 165 62z" />
    <glyph glyph-name="colon" unicode=":" horiz-adv-x="146" 
d="M89 421q-9 -11 -21.5 -6.5t-16 16t4.5 22.5q10 10 23 5.5t16 -16t-6 -21.5zM89 -1q-9 -11 -21.5 -6.5t-16 16t4.5 22.5q10 10 23 5.5t16 -16t-6 -21.5z" />
    <glyph glyph-name="semicolon" unicode=";" horiz-adv-x="158" 
d="M24 -160l50 155q-18 3 -18 20q0 14 11.5 20t23 0t11.5 -20q0 -9 -6 -27l-54 -148h-18zM95 421q-9 -11 -21.5 -6.5t-16 16t4.5 22.5q10 10 23 5.5t16 -16t-6 -21.5z" />
    <glyph glyph-name="less" unicode="&#x3c;" horiz-adv-x="562" 
d="M482 521v-23l-399 -198l399 -199v-23l-422 210v23z" />
    <glyph glyph-name="equal" unicode="=" horiz-adv-x="742" 
d="M612 413h-482v21h482v-21zM612 223h-482v21h482v-21z" />
    <glyph glyph-name="greater" unicode="&#x3e;" horiz-adv-x="562" 
d="M502 288l-422 -210v23l399 199l-399 198v23l422 -210v-23z" />
    <glyph glyph-name="question" unicode="?" 
d="M251 171l-3 134h23q85 0 141 54t56 131t-55 131t-139 54q-63 0 -113 -37q-51 -38 -64 -96h-22q15 69 71 111q57 42 128 42q94 0 155 -60q61 -58 61 -145q0 -86 -62 -146q-62 -59 -157 -59v-114h-20zM277 -1q-9 -11 -21.5 -6.5t-16 16t4.5 22.5q10 10 23 5.5t16 -16
t-6 -21.5z" />
    <glyph glyph-name="at" unicode="@" horiz-adv-x="982" 
d="M656 394v-204q0 -64 20 -95.5t66 -31.5q59 0 93.5 49.5t34.5 129.5q0 146 -114 254t-266 108t-265 -108q-112 -106 -112 -262q0 -155 112 -263q113 -107 266 -107q139 0 246 89l14 -18q-113 -92 -260 -92q-166 0 -284 112q-117 113 -117 279t118 278q119 113 282 113
q164 0 283 -113t119 -269q0 -86 -39 -143t-111 -57q-76 0 -98 72q-58 -79 -155 -79q-78 0 -134 53q-54 52 -54 136q0 83 54 135q56 53 134 53q88 0 146 -67v48h21zM491 56q92 0 148 80q-4 20 -4 54v129q-56 74 -144 74q-70 0 -120 -47q-48 -46 -48 -121t48 -122t120 -47z
" />
    <glyph glyph-name="A" unicode="A" horiz-adv-x="741" 
d="M564 244h-387l-113 -244h-24l319 685h23l319 -685h-24zM554 264l-183 395l-184 -395h367z" />
    <glyph glyph-name="B" unicode="B" horiz-adv-x="696" 
d="M450 353q86 -14 131 -57t45 -111q0 -83 -70 -134q-69 -51 -183 -51h-258v680h258q96 0 154 -46q59 -45 59 -119q0 -126 -136 -162zM137 660v-300h216q101 0 155.5 40.5t54.5 114.5q0 64 -53 105q-52 40 -137 40h-236zM137 20h236q103 0 166 45q64 46 64 120t-60 114.5
t-170 40.5h-236v-320z" />
    <glyph glyph-name="C" unicode="C" horiz-adv-x="819" 
d="M428 7q110 0 189 57q79 58 103 150h24q-25 -100 -112 -165q-86 -63 -204 -63q-147 0 -250 103t-103 251q0 147 103 250q104 104 250 104q119 0 204 -64q87 -64 112 -164h-24q-24 93 -103 149q-79 58 -189 58q-137 0 -235 -98q-96 -97 -96 -235t96 -236q97 -97 235 -97z
" />
    <glyph glyph-name="D" unicode="D" horiz-adv-x="761" 
d="M115 680h218q158 0 256 -92q97 -91 97 -242q0 -157 -97 -251q-98 -95 -256 -95h-218v680zM137 20h196q148 0 239 89q91 90 91 237q0 142 -91 227q-91 87 -239 87h-196v-640z" />
    <glyph glyph-name="E" unicode="E" horiz-adv-x="647" 
d="M137 660v-310h390v-20h-390v-310h430v-20h-452v680h452v-20h-430z" />
    <glyph glyph-name="F" unicode="F" horiz-adv-x="607" 
d="M137 660v-325h380v-20h-380v-315h-22v680h442v-20h-420z" />
    <glyph glyph-name="G" unicode="G" horiz-adv-x="844" 
d="M741 340v-340h-22v202q-33 -100 -111 -158t-184 -58q-148 0 -248 103q-101 104 -101 251t103 250q104 104 251 104q113 0 201 -64q89 -65 114 -164h-24q-24 91 -106 149q-80 58 -185 58q-137 0 -235 -98q-97 -97 -97 -235t95 -236q94 -97 232 -97q129 0 209 89t86 224
h-298v20h320z" />
    <glyph glyph-name="H" unicode="H" horiz-adv-x="759" 
d="M644 680v-680h-22v330h-485v-330h-22v680h22v-330h485v330h22z" />
    <glyph glyph-name="I" unicode="I" horiz-adv-x="252" 
d="M137 680v-680h-22v680h22z" />
    <glyph glyph-name="J" unicode="J" horiz-adv-x="593" 
d="M488 680v-444q0 -116 -63 -184q-61 -67 -165 -67q-90 0 -151 50.5t-79 136.5h22q16 -78 71 -122.5t138 -44.5q93 0 149 62q56 64 56 169v444h22z" />
    <glyph glyph-name="K" unicode="K" horiz-adv-x="698" 
d="M288 347l-151 -151v-196h-22v680h22v-453l454 453h30l-317 -317l359 -363h-30z" />
    <glyph glyph-name="L" unicode="L" horiz-adv-x="577" 
d="M537 20v-20h-422v680h22v-660h400z" />
    <glyph glyph-name="M" unicode="M" horiz-adv-x="850" 
d="M735 680v-680h-22l1 641l-277 -481h-24l-277 481l1 -641h-22v680h24l286 -497l286 497h24z" />
    <glyph glyph-name="N" unicode="N" horiz-adv-x="782" 
d="M667 680v-680h-28l-502 652v-652h-22v680h27l503 -652v652h22z" />
    <glyph glyph-name="O" unicode="O" horiz-adv-x="858" 
d="M178 590q104 104 251 104q146 0 250 -104t104 -250q0 -147 -104 -251q-103 -103 -250 -103q-148 0 -251 103t-103 251q0 147 103 250zM194 104q97 -97 235 -97t235 97t97 236q0 138 -97 235q-98 98 -235 98t-235 -98q-97 -97 -97 -235q0 -139 97 -236z" />
    <glyph glyph-name="P" unicode="P" horiz-adv-x="636" 
d="M115 680h218q113 0 183 -59q70 -58 70 -156t-70 -156q-70 -59 -183 -59h-196v-250h-22v680zM137 270h196q102 0 166 53q64 54 64 142q0 87 -64 141q-65 54 -166 54h-196v-390z" />
    <glyph glyph-name="Q" unicode="Q" horiz-adv-x="858" 
d="M783 340q0 -110 -60 -198q-60 -89 -157 -129l145 -183l-16 -14l-149 190q-57 -20 -117 -20q-148 0 -251 103t-103 251q0 147 103 250q104 104 251 104q146 0 250 -104t104 -250zM194 575q-97 -97 -97 -235q0 -139 97 -236t235 -97t235 97t97 236q0 138 -97 235
q-98 98 -235 98t-235 -98z" />
    <glyph glyph-name="R" unicode="R" horiz-adv-x="665" 
d="M342 270h-205v-270h-22v680h228q116 0 184 -55q69 -54 69 -150q0 -89 -60 -143t-164 -61l243 -271h-32zM137 290h206q106 0 168 49.5t62 135.5t-62 135.5t-168 49.5h-206v-370z" />
    <glyph glyph-name="S" unicode="S" horiz-adv-x="653" 
d="M326 695q109 0 174 -48.5t80 -133.5h-22q-16 78 -75 120t-157 42q-93 0 -149.5 -44t-56.5 -117q0 -53 43.5 -89.5t124.5 -51.5l121 -23q84 -16 129 -59t45 -108q0 -89 -67 -144q-68 -54 -177 -54q-119 0 -188.5 58t-85.5 169h22q33 -207 252 -207q99 0 161 48
q61 49 61 129q0 57 -41 95.5t-116 52.5l-124 24q-88 17 -135.5 58.5t-47.5 103.5q0 80 63 129q64 50 166 50z" />
    <glyph glyph-name="T" unicode="T" horiz-adv-x="622" 
d="M592 660h-270v-660h-22v660h-270v20h562v-20z" />
    <glyph glyph-name="U" unicode="U" horiz-adv-x="766" 
d="M661 680v-404q0 -124 -78 -208q-77 -83 -200 -83q-124 0 -201 83t-77 208v404h22v-404q0 -114 71 -193q70 -78 185 -78t185 78q71 79 71 193v404h22z" />
    <glyph glyph-name="V" unicode="V" horiz-adv-x="721" 
d="M691 680l-319 -685h-23l-319 685h24l307 -658l306 658h24z" />
    <glyph glyph-name="W" unicode="W" horiz-adv-x="1054" 
d="M1004 680l-239 -685h-21l-217 652l-217 -652h-21l-239 685h22l227 -655l217 655h22l217 -654l227 654h22z" />
    <glyph glyph-name="X" unicode="X" horiz-adv-x="652" 
d="M590 0l-264 322l-264 -322h-27l277 339l-266 341h28l252 -324l252 324h28l-266 -341l277 -339h-27z" />
    <glyph glyph-name="Y" unicode="Y" horiz-adv-x="640" 
d="M620 680l-289 -423v-257h-22v257l-289 423h25l275 -403l275 403h25z" />
    <glyph glyph-name="Z" unicode="Z" horiz-adv-x="655" 
d="M575 663l-470 -643h470v-20h-500v17l472 643h-462v20h490v-17z" />
    <glyph glyph-name="bracketleft" unicode="[" horiz-adv-x="327" 
d="M136 -90h131v-20h-152v840h152v-20h-131v-800z" />
    <glyph glyph-name="backslash" unicode="\" horiz-adv-x="400" 
d="M72 730l278 -890h-22l-278 890h22z" />
    <glyph glyph-name="bracketright" unicode="]" horiz-adv-x="327" 
d="M35 710v20h152v-840h-152v20h131v800h-131z" />
    <glyph glyph-name="asciicircum" unicode="^" horiz-adv-x="374" 
d="M334 450h-22l-125 210l-125 -210h-22l137 230h20z" />
    <glyph glyph-name="underscore" unicode="_" horiz-adv-x="668" 
d="M50 -158h568v-19h-568v19z" />
    <glyph glyph-name="grave" unicode="`" 
d="M334 570h-24l-88 136h25z" />
    <glyph glyph-name="a" unicode="a" horiz-adv-x="626" 
d="M526 450v-450h-21v75q-73 -90 -190 -90q-100 0 -170 70t-70 170q0 99 70 169t170 70q117 0 190 -90v76h21zM315 5q119 0 190 104v231q-71 104 -190 104q-89 0 -154 -65q-64 -64 -64 -154q0 -91 63 -156q64 -64 155 -64z" />
    <glyph glyph-name="b" unicode="b" horiz-adv-x="626" 
d="M311 465q100 0 170 -70t70 -170q0 -99 -70 -169t-170 -70q-117 0 -190 90v-76h-21v710h21v-335q73 90 190 90zM311 6q90 0 154 64t64 155t-64 155q-63 65 -154 65q-119 0 -190 -104v-231q71 -104 190 -104z" />
    <glyph glyph-name="c" unicode="c" horiz-adv-x="582" 
d="M307 6q67 0 115 34.5t62 91.5h23q-16 -66 -70.5 -106t-129.5 -40q-103 0 -167 69q-65 70 -65 170t65 170q64 69 167 69q75 0 129.5 -40t70.5 -106h-23q-14 57 -62 91.5t-115 34.5q-94 0 -152 -64q-58 -62 -58 -155q0 -92 58 -156q58 -63 152 -63z" />
    <glyph glyph-name="d" unicode="d" horiz-adv-x="626" 
d="M526 710v-710h-21v76q-73 -90 -190 -90q-100 0 -170 70t-70 169q0 100 70 170t170 70q117 0 190 -90v335h21zM315 6q119 0 190 104v231q-71 104 -190 104q-90 0 -155 -65q-63 -64 -63 -155t64 -155t154 -64z" />
    <glyph glyph-name="e" unicode="e" horiz-adv-x="599" 
d="M305 464q97 0 157 -69q62 -71 62 -174v-4h-427q3 -88 62 -150q58 -61 146 -61q61 0 107.5 26t64.5 70h24q-20 -54 -72.5 -85t-123.5 -31q-101 0 -165 69q-65 69 -65 170q0 99 65 169q66 70 165 70zM97 237h404q-4 89 -59 148q-53 59 -137 59q-87 0 -145 -60
q-58 -58 -63 -147z" />
    <glyph glyph-name="f" unicode="f" horiz-adv-x="358" 
d="M277 735q-52 0 -84 -34.5t-32 -91.5v-159h187v-20h-187v-430h-21v430h-137v20h137v159q0 66 37.5 106t99.5 40q35 0 81 -12l-5 -18q-41 10 -76 10z" />
    <glyph glyph-name="g" unicode="g" horiz-adv-x="626" 
d="M516 450v-480q0 -99 -60 -159q-58 -60 -159 -60q-81 0 -138.5 40t-73.5 106h23q14 -57 65.5 -91.5t123.5 -34.5q90 0 144 54.5t54 144.5v105q-77 -90 -200 -90q-101 0 -165 69q-65 69 -65 171q0 99 65 169q66 70 165 70q123 0 200 -90v76h21zM295 5q59 0 112.5 27.5
t87.5 76.5v231q-34 49 -87.5 76.5t-112.5 27.5q-91 0 -149 -64q-59 -65 -59 -155q0 -91 59 -156q58 -64 149 -64z" />
    <glyph glyph-name="h" unicode="h" horiz-adv-x="572" 
d="M316 465q84 0 135 -52t51 -141v-272h-21v272q0 80 -45.5 126.5t-119.5 46.5q-60 0 -113 -27t-82 -74v-344h-21v710h21v-332q32 41 83.5 64t111.5 23z" />
    <glyph glyph-name="i" unicode="i" horiz-adv-x="266" 
d="M149 612q-15 -15 -31.5 1.5t-1.5 31.5q16 17 33 0t0 -33zM144 450v-450h-21v450h21z" />
    <glyph glyph-name="j" unicode="j" horiz-adv-x="254" 
d="M137 612q-15 -15 -31.5 1.5t-1.5 31.5q16 17 33 0t0 -33zM132 450v-460q0 -90 -31.5 -128t-105.5 -38v20q63 0 89.5 33.5t26.5 112.5v460h21z" />
    <glyph glyph-name="k" unicode="k" horiz-adv-x="552" 
d="M242 246l-111 -98v-148h-21v710h21v-534l312 274h30l-214 -190l263 -260h-30z" />
    <glyph glyph-name="l" unicode="l" horiz-adv-x="221" 
d="M121 710v-710h-21v710h21z" />
    <glyph glyph-name="m" unicode="m" horiz-adv-x="898" 
d="M656 465q80 0 126 -51t46 -142v-272h-21v272q0 81 -40.5 127t-110.5 46q-62 0 -111.5 -29.5t-76.5 -81.5q7 -25 7 -62v-272h-21v272q0 81 -41 127t-111 46q-58 0 -105.5 -26.5t-75.5 -74.5v-344h-21v450h21v-71q62 86 181 86q120 0 159 -106q63 106 195 106z" />
    <glyph glyph-name="n" unicode="n" horiz-adv-x="572" 
d="M316 465q84 0 135 -52t51 -141v-272h-21v272q0 80 -45.5 126.5t-119.5 46.5q-60 0 -113 -27t-82 -74v-344h-21v450h21v-72q32 41 83.5 64t111.5 23z" />
    <glyph glyph-name="o" unicode="o" horiz-adv-x="629" 
d="M315 464q99 0 169 -70t70 -169q0 -100 -70 -170t-169 -70q-100 0 -170 70t-70 170q0 99 70 169t170 70zM315 5q90 0 153 64q64 64 64 156q0 90 -64 154q-63 65 -153 65q-89 0 -154 -65q-64 -64 -64 -154q0 -91 63 -156q64 -64 155 -64z" />
    <glyph glyph-name="p" unicode="p" horiz-adv-x="626" 
d="M311 464q100 0 170 -70t70 -169q0 -100 -70 -170t-170 -70q-117 0 -190 90v-335h-21v710h21v-76q73 90 190 90zM311 5q91 0 154 64q64 64 64 156q0 90 -64 154q-65 65 -154 65q-119 0 -190 -104v-231q71 -104 190 -104z" />
    <glyph glyph-name="q" unicode="q" horiz-adv-x="626" 
d="M526 450v-710h-21v335q-73 -90 -190 -90q-100 0 -170 70t-70 170q0 99 70 169t170 70q117 0 190 -90v76h21zM315 5q119 0 190 104v231q-71 104 -190 104q-89 0 -154 -65q-64 -64 -64 -154q0 -91 63 -156q64 -64 155 -64z" />
    <glyph glyph-name="r" unicode="r" horiz-adv-x="334" 
d="M121 450v-103q30 54 81 86t109 32v-20q-59 0 -110.5 -38.5t-79.5 -103.5v-303h-21v450h21z" />
    <glyph glyph-name="s" unicode="s" horiz-adv-x="545" 
d="M70 126h21q33 -121 190 -121q71 0 114.5 30.5t43.5 80.5q0 40 -27.5 65t-76.5 33l-107 17q-134 21 -134 112q0 55 47 88.5t124 33.5q81 0 134.5 -37.5t58.5 -98.5h-21q-19 116 -171 116q-68 0 -109.5 -28t-41.5 -74q0 -73 114 -92l97 -16q134 -23 134 -121
q0 -58 -49.5 -93.5t-130.5 -35.5q-178 0 -210 141z" />
    <glyph glyph-name="t" unicode="t" horiz-adv-x="413" 
d="M353 15l5 -18q-46 -12 -81 -12q-74 0 -105.5 38t-31.5 128v279h-140v20h140v170h21v-170h174v-20h-174v-279q0 -79 26.5 -112.5t89.5 -33.5q35 0 76 10z" />
    <glyph glyph-name="u" unicode="u" horiz-adv-x="572" 
d="M472 450v-450h-21v72q-32 -41 -83.5 -64t-111.5 -23q-84 0 -135 52t-51 141v272h21v-272q0 -80 45.5 -126.5t119.5 -46.5q60 0 113 27t82 74v344h21z" />
    <glyph glyph-name="v" unicode="v" horiz-adv-x="567" 
d="M517 450l-221 -450h-25l-221 450h24l210 -425l209 425h24z" />
    <glyph glyph-name="w" unicode="w" horiz-adv-x="767" 
d="M717 450l-171 -450h-23l-140 415l-139 -415h-23l-171 450h23l159 -418l140 418h23l140 -417l159 417h23z" />
    <glyph glyph-name="x" unicode="x" horiz-adv-x="518" 
d="M445 0l-186 208l-187 -208h-27l200 224l-194 226h27l181 -210l181 210h27l-194 -226l200 -224h-28z" />
    <glyph glyph-name="y" unicode="y" horiz-adv-x="561" 
d="M511 450l-337 -710h-24l108 227l-238 483h24l226 -457l217 457h24z" />
    <glyph glyph-name="z" unicode="z" horiz-adv-x="489" 
d="M429 433l-340 -413h340v-20h-369v17l339 413h-325v20h355v-17z" />
    <glyph glyph-name="braceleft" unicode="{" horiz-adv-x="358" 
d="M182 579v-109q0 -129 -71 -156q71 -27 71 -156v-109q0 -66 32 -106t84 -40v-20q-62 0 -99.5 45.5t-37.5 120.5v109q0 79 -26.5 112.5t-89.5 33.5v20q63 0 89.5 33.5t26.5 112.5v109q0 75 37.5 120.5t99.5 45.5v-20q-52 0 -84 -40t-32 -106z" />
    <glyph glyph-name="bar" unicode="|" horiz-adv-x="302" 
d="M162 730v-890h-22v890h22z" />
    <glyph glyph-name="braceright" unicode="}" horiz-adv-x="358" 
d="M176 470v109q0 66 -32 106t-84 40v20q62 0 99.5 -45.5t37.5 -120.5v-109q0 -79 26.5 -112.5t89.5 -33.5v-20q-63 0 -89.5 -33.5t-26.5 -112.5v-109q0 -75 -37.5 -120.5t-99.5 -45.5v20q52 0 84 40t32 106v109q0 129 71 156q-71 27 -71 156z" />
    <glyph glyph-name="asciitilde" unicode="~" horiz-adv-x="472" 
d="M379 386h20q0 -31 -14.5 -51t-35.5 -26.5t-43.5 -3.5t-39.5 15l-72 51q-19 13 -42 13.5t-41 -15.5t-18 -46h-20q0 41 25 62.5t54.5 19t53.5 -15.5l72 -51q28 -23 64.5 -9.5t36.5 57.5z" />
    <glyph glyph-name="exclamdown" unicode="&#xa1;" horiz-adv-x="246" 
d="M106 459q16 17 33 0t0 -33q-15 -15 -31.5 1.5t-1.5 31.5zM112 -222v520h22v-520h-22z" />
    <glyph glyph-name="cent" unicode="&#xa2;" horiz-adv-x="582" 
d="M307 6q67 0 115 34.5t62 91.5h23q-15 -65 -67 -104.5t-125 -41.5v-127h-21v127q-96 4 -158 73q-61 68 -61 166t61 165q62 70 158 74v135h21v-135q73 -2 125 -41.5t67 -104.5h-23q-14 57 -62 91.5t-115 34.5q-94 0 -152 -64q-58 -62 -58 -155q0 -92 58 -156
q58 -63 152 -63z" />
    <glyph glyph-name="sterling" unicode="&#xa3;" horiz-adv-x="645" 
d="M164 20h419v-20h-528v20h87v270h-87v20h87v165q0 99 61 159q61 61 162 61q93 0 152.5 -51.5t68.5 -138.5h-22q-9 78 -62.5 124t-136.5 46q-91 0 -146 -55t-55 -145v-165h272v-20h-272v-270z" />
    <glyph glyph-name="yen" unicode="&#xa5;" horiz-adv-x="640" 
d="M331 234h193v-21h-193v-84h193v-21h-193v-108h-22v108h-193v21h193v84h-193v21h193v23l-289 423h25l275 -403l275 403h25l-289 -423v-23z" />
    <glyph glyph-name="brokenbar" unicode="&#xa6;" horiz-adv-x="302" 
d="M162 336h-22v394h22v-394zM162 -160h-22v394h22v-394z" />
    <glyph glyph-name="section" unicode="&#xa7;" horiz-adv-x="539" 
d="M489 219q0 -48 -32.5 -80.5t-83.5 -41.5q71 -44 71 -113q0 -65 -48.5 -103.5t-127.5 -38.5t-129.5 39.5t-60.5 110.5h20q9 -61 55 -95.5t116 -34.5q69 0 111 32.5t42 89.5q0 45 -32 74q-33 29 -119 69l-92 43q-68 32 -98.5 64.5t-30.5 78.5q0 48 32.5 80.5t83.5 41.5
q-71 44 -71 113q0 65 48.5 103.5t127.5 38.5t129.5 -39.5t60.5 -110.5h-20q-9 61 -55 95.5t-116 34.5q-69 0 -111 -33t-42 -90q0 -46 31 -74q33 -28 120 -68l92 -43q68 -32 98.5 -64.5t30.5 -78.5zM343 114q56 3 90 31t34 75q0 37 -26.5 66t-91.5 59l-85 40l-68 33
q-55 -3 -89.5 -31.5t-34.5 -75.5q0 -37 26.5 -65.5t91.5 -58.5l85 -40z" />
    <glyph glyph-name="dieresis" unicode="&#xa8;" 
d="M199 617q17 17 35 -1t1 -35t-35 1t-1 35zM365 617q17 17 35 -1t1 -35t-35 1t-1 35z" />
    <glyph glyph-name="copyright" unicode="&#xa9;" horiz-adv-x="878" 
d="M182 593q106 102 257 102t257 -102q107 -102 107 -253t-107 -253q-106 -102 -257 -102t-257 102q-107 102 -107 253t107 253zM196 101q101 -97 242 -97t242 97q102 98 102 239q0 140 -102 238q-103 98 -242 98t-242 -98q-101 -98 -101 -238q0 -141 101 -239zM438 519
q-71 0 -122 -53q-51 -52 -51 -126t51 -127q51 -52 122 -52q57 0 100.5 31.5t57.5 82.5h21q-15 -58 -65 -95t-114 -37q-79 0 -136 58q-57 59 -57 139t57 139q57 58 136 58q64 0 114 -37t65 -95h-21q-14 51 -57.5 82.5t-100.5 31.5z" />
    <glyph glyph-name="ordfeminine" unicode="&#xaa;" horiz-adv-x="354" 
d="M179 686q61 0 93 -36t32 -103v-166h-19v39q-55 -49 -130 -49q-54 0 -87 25.5t-33 68.5q0 37 30 59.5t86 22.5h134q0 122 -106 122q-39 0 -69 -18t-37 -45h-19q7 35 42.5 57.5t82.5 22.5zM157 391q77 0 128 51v87h-134q-48 0 -72.5 -17.5t-24.5 -46.5q0 -35 27.5 -54.5
t75.5 -19.5z" />
    <glyph glyph-name="guillemotleft" unicode="&#xab;" horiz-adv-x="407" 
d="M207 396l-122 -144l122 -144h-25l-122 144l122 144h25zM347 396l-122 -144l122 -144h-25l-122 144l122 144h25z" />
    <glyph glyph-name="registered" unicode="&#xae;" horiz-adv-x="542" 
d="M115 633q65 62 156 62t156 -62t65 -153t-65 -153t-156 -62t-156 62t-65 153t65 153zM129 339q60 -57 142 -57t142 57q60 59 60 141q0 83 -60 140q-59 58 -142 58t-142 -58q-60 -57 -60 -140q0 -82 60 -141zM284 454l88 -92h-23l-87 92h-55v-92h-17v239h95q34 0 58 -21
t24 -53t-23.5 -52.5t-58.5 -20.5h-1zM207 470h78q27 0 45.5 16.5t18.5 40.5q0 26 -18.5 42t-45.5 16h-78v-115z" />
    <glyph glyph-name="overscore" unicode="&#xaf;" 
d="M437 608v-18h-276v18h276z" />
    <glyph glyph-name="degree" unicode="&#xb0;" horiz-adv-x="502" 
d="M412 537q0 -65 -47 -112q-47 -45 -114 -45q-69 0 -115 45q-46 46 -46 112q0 67 46 112q46 46 115 46q68 0 114 -46q47 -45 47 -112zM390 537q0 57 -41 98q-40 40 -98 40q-59 0 -99 -40t-40 -98q0 -57 40 -97q40 -39 99 -39q58 0 98 39q41 41 41 97z" />
    <glyph glyph-name="plusminus" unicode="&#xb1;" horiz-adv-x="702" 
d="M572 325h-209v-180h-23v180h-210v21h210v181h23v-181h209v-21zM572 76v-21h-442v21h442z" />
    <glyph glyph-name="twosuperior" unicode="&#xb2;" horiz-adv-x="353" 
d="M303 342v-19h-245v12l126 118q52 48 70.5 74t18.5 57q0 39 -27 63.5t-72 24.5q-42 0 -68 -22t-30 -59h-21q4 46 35.5 73t82.5 27q54 0 87.5 -30t33.5 -76q0 -34 -20 -63t-73 -80l-106 -100h208z" />
    <glyph glyph-name="threesuperior" unicode="&#xb3;" horiz-adv-x="364" 
d="M239 506q70 -22 70 -90q0 -44 -35 -71.5t-93 -27.5q-55 0 -90.5 24t-40.5 65h22q5 -32 34.5 -51t75.5 -19q47 0 76.5 22t29.5 58t-27.5 58t-71.5 22h-33v18h33q39 0 63.5 21.5t24.5 56.5q0 36 -26.5 58t-71.5 22q-41 0 -66.5 -18.5t-30.5 -50.5h-21q5 40 36 64t81 24
q54 0 86.5 -27t32.5 -72q0 -64 -58 -86z" />
    <glyph glyph-name="acute" unicode="&#xb4;" 
d="M394 706l-88 -136h-24l87 136h25z" />
    <glyph glyph-name="paragraph" unicode="&#xb6;" horiz-adv-x="711" 
d="M611 680v-840h-22v820h-178v-820h-22v410h-106q-99 0 -166 60t-67 155t67 155t166 60h328zM389 660h-106q-89 0 -150 -55q-60 -54 -60 -140q0 -87 60 -141t150 -54h106v390z" />
    <glyph glyph-name="middot" unicode="&#xb7;" horiz-adv-x="146" 
d="M89 242q-9 -11 -21.5 -6.5t-16 16t4.5 22.5q10 10 23 5.5t16 -16t-6 -21.5z" />
    <glyph glyph-name="cedilla" unicode="&#xb8;" 
d="M268 -219h-20l49 133h21z" />
    <glyph glyph-name="onesuperior" unicode="&#xb9;" horiz-adv-x="288" 
d="M268 342v-19h-238v19h114v308l-106 -29v20l116 32h11v-331h103z" />
    <glyph glyph-name="ordmasculine" unicode="&#xba;" horiz-adv-x="389" 
d="M354 527q0 -67 -47 -114t-113 -47t-113 47q-46 46 -46 114q0 66 46 112q47 47 113 47t113 -47t47 -112zM333 527q0 58 -41 99t-98 41t-98 -41q-40 -40 -40 -99q0 -60 40 -101q41 -41 98 -41t98 41q41 43 41 101z" />
    <glyph glyph-name="guillemotright" unicode="&#xbb;" horiz-adv-x="407" 
d="M207 252l-122 -144h-25l122 144l-122 144h25zM347 252l-122 -144h-25l122 144l-122 144h25z" />
    <glyph glyph-name="onequarter" unicode="&#xbc;" horiz-adv-x="827" 
d="M640 680l-444 -680h-24l444 680h24zM268 322h-238v19h114v308l-106 -29v20l116 32h11v-331h103v-19zM779 83h-67v-83h-20v83h-211v14l121 263h22l-116 -257h184v122h20v-122h67v-20z" />
    <glyph glyph-name="onehalf" unicode="&#xbd;" horiz-adv-x="833" 
d="M640 680l-444 -680h-24l444 680h24zM268 322h-238v19h114v308l-106 -29v20l116 32h11v-331h103v-19zM783 19v-19h-245v12l126 118q52 48 70.5 74t18.5 57q0 39 -27 63.5t-72 24.5q-42 0 -68 -22t-30 -59h-21q4 46 35.5 73t82.5 27q54 0 87.5 -30t33.5 -76q0 -34 -20 -63
t-73 -80l-106 -100h208z" />
    <glyph glyph-name="threequarters" unicode="&#xbe;" horiz-adv-x="829" 
d="M309 419q0 -44 -35 -71.5t-93 -27.5q-55 0 -90.5 24t-40.5 65h22q5 -32 34.5 -51t75.5 -19q47 0 76.5 22t29.5 58t-27.5 58t-71.5 22h-33v18h33q39 0 63.5 21.5t24.5 56.5q0 36 -26.5 58t-71.5 22q-41 0 -66.5 -18.5t-30.5 -50.5h-21q5 40 36 64t81 24q54 0 86.5 -27
t32.5 -72q0 -64 -58 -86q70 -22 70 -90zM642 680l-444 -680h-24l444 680h24zM779 83h-67v-83h-20v83h-211v14l121 263h22l-116 -257h184v122h20v-122h67v-20z" />
    <glyph glyph-name="questiondown" unicode="&#xbf;" 
d="M322 542q16 16 33 0t0 -33q-15 -15 -31.5 1.5t-1.5 31.5zM349 370l3 -134h-23q-87 0 -142 -54t-55 -131t55 -131t139 -54q63 0 112 37q52 38 65 96h22q-15 -69 -72 -111q-55 -42 -127 -42q-93 0 -155 59q-61 60 -61 146q0 87 61 145q61 60 158 60v114h20z" />
    <glyph glyph-name="Agrave" unicode="&#xc0;" horiz-adv-x="741" 
d="M366 760l-88 136h25l87 -136h-24zM564 244h-387l-113 -244h-24l319 685h23l319 -685h-24zM554 264l-183 395l-184 -395h367z" />
    <glyph glyph-name="Aacute" unicode="&#xc1;" horiz-adv-x="741" 
d="M377 760h-24l87 136h25zM564 244h-387l-113 -244h-24l319 685h23l319 -685h-24zM554 264l-183 395l-184 -395h367z" />
    <glyph glyph-name="Acircumflex" unicode="&#xc2;" horiz-adv-x="741" 
d="M254 764h-26l127 136h31l127 -136h-26l-116 122zM564 244h-387l-113 -244h-24l319 685h23l319 -685h-24zM554 264l-183 395l-184 -395h367z" />
    <glyph glyph-name="Atilde" unicode="&#xc3;" horiz-adv-x="741" 
d="M375 815l-38 27q-32 23 -61 13q-32 -9 -32 -48h-19q0 35 21 53t49 16.5t52 -18.5l37 -26q34 -25 64 -14.5t30 49.5h19q0 -54 -41 -69q-39 -13 -81 17zM564 244h-387l-113 -244h-24l319 685h23l319 -685h-24zM554 264l-183 395l-184 -395h367z" />
    <glyph glyph-name="Adieresis" unicode="&#xc4;" horiz-adv-x="741" 
d="M564 244h-387l-113 -244h-24l319 685h23l319 -685h-24zM554 264l-183 395l-184 -395h367zM305 791q-10 -10 -23.5 -5.5t-17 17t5.5 24.5q11 11 25 6.5t17 -17.5t-7 -25zM471 791q-10 -10 -23.5 -5.5t-17 17t5.5 24.5q11 11 25 6.5t17 -17.5t-7 -25z" />
    <glyph glyph-name="Aring" unicode="&#xc5;" horiz-adv-x="741" 
d="M433 801q-25 -24 -62 -24t-62 24q-25 25 -25 62t25 61q25 25 62 25t62 -25q25 -24 25 -61t-25 -62zM303 863q0 -29 19.5 -48.5t48.5 -19.5t48.5 19.5t19.5 48.5q0 28 -20 48t-48 20t-48 -20t-20 -48zM564 244h-387l-113 -244h-24l319 685h23l319 -685h-24zM554 264
l-183 395l-184 -395h367z" />
    <glyph glyph-name="AE" unicode="&#xc6;" horiz-adv-x="1103" 
d="M593 660v-310h390v-20h-390v-310h430v-20h-452v244h-308l-186 -244h-27l518 680h455v-20h-430zM571 264v384l-293 -384h293z" />
    <glyph glyph-name="Ccedilla" unicode="&#xc7;" horiz-adv-x="819" 
d="M428 7q110 0 189 57q79 58 103 150h24q-25 -100 -112 -165q-86 -63 -204 -63q-147 0 -250 103t-103 251q0 147 103 250q104 104 250 104q119 0 204 -64q87 -64 112 -164h-24q-24 93 -103 149q-79 58 -189 58q-137 0 -235 -98q-96 -97 -96 -235t96 -236q97 -97 235 -97z
M437 -86h21l-50 -133h-20z" />
    <glyph glyph-name="Egrave" unicode="&#xc8;" horiz-adv-x="647" 
d="M336 760l-88 136h25l87 -136h-24zM137 660v-310h390v-20h-390v-310h430v-20h-452v680h452v-20h-430z" />
    <glyph glyph-name="Eacute" unicode="&#xc9;" horiz-adv-x="647" 
d="M347 760h-24l87 136h25zM137 660v-310h390v-20h-390v-310h430v-20h-452v680h452v-20h-430z" />
    <glyph glyph-name="Ecircumflex" unicode="&#xca;" horiz-adv-x="647" 
d="M224 764h-26l127 136h31l127 -136h-26l-116 122zM137 660v-310h390v-20h-390v-310h430v-20h-452v680h452v-20h-430z" />
    <glyph glyph-name="Edieresis" unicode="&#xcb;" horiz-adv-x="647" 
d="M137 660v-310h390v-20h-390v-310h430v-20h-452v680h452v-20h-430zM275 791q-10 -10 -23.5 -5.5t-17 17t5.5 24.5q11 11 25 6.5t17 -17.5t-7 -25zM441 791q-10 -10 -23.5 -5.5t-17 17t5.5 24.5q11 11 25 6.5t17 -17.5t-7 -25z" />
    <glyph glyph-name="Igrave" unicode="&#xcc;" horiz-adv-x="252" 
d="M145 760h-24l-88 136h25zM137 680v-680h-22v680h22z" />
    <glyph glyph-name="Iacute" unicode="&#xcd;" horiz-adv-x="252" 
d="M220 896l-88 -136h-24l87 136h25zM137 680v-680h-22v680h22z" />
    <glyph glyph-name="Icircumflex" unicode="&#xce;" horiz-adv-x="252" 
d="M126 886l-117 -122h-26l127 136h31l127 -136h-26zM137 680v-680h-22v680h22z" />
    <glyph glyph-name="Idieresis" unicode="&#xcf;" horiz-adv-x="252" 
d="M25 827q17 17 35 -1t1 -35t-35 1t-1 35zM191 827q17 17 35 -1t1 -35t-35 1t-1 35zM137 680v-680h-22v680h22z" />
    <glyph glyph-name="Eth" unicode="&#xd0;" horiz-adv-x="761" 
d="M115 680h218q158 0 256 -92q97 -91 97 -242q0 -157 -97 -251q-98 -95 -256 -95h-218v330h-75v20h75v330zM137 20h196q148 0 239 89q91 90 91 237q0 142 -91 227q-91 87 -239 87h-196v-310h220v-20h-220v-310z" />
    <glyph glyph-name="Ntilde" unicode="&#xd1;" horiz-adv-x="782" 
d="M395 815l-38 27q-32 23 -61 13q-32 -9 -32 -48h-19q0 35 21 53t49 16.5t52 -18.5l37 -26q34 -25 64 -14.5t30 49.5h19q0 -54 -41 -69q-39 -13 -81 17zM667 680v-680h-28l-502 652v-652h-22v680h27l503 -652v652h22z" />
    <glyph glyph-name="Ograve" unicode="&#xd2;" horiz-adv-x="858" 
d="M178 590q104 104 251 104q146 0 250 -104t104 -250q0 -147 -104 -251q-103 -103 -250 -103q-148 0 -251 103t-103 251q0 147 103 250zM194 104q97 -97 235 -97t235 97t97 236q0 138 -97 235q-98 98 -235 98t-235 -98q-97 -97 -97 -235q0 -139 97 -236zM448 760h-24
l-88 136h25z" />
    <glyph glyph-name="Oacute" unicode="&#xd3;" horiz-adv-x="858" 
d="M178 590q104 104 251 104q146 0 250 -104t104 -250q0 -147 -104 -251q-103 -103 -250 -103q-148 0 -251 103t-103 251q0 147 103 250zM194 104q97 -97 235 -97t235 97t97 236q0 138 -97 235q-98 98 -235 98t-235 -98q-97 -97 -97 -235q0 -139 97 -236zM523 896l-88 -136
h-24l87 136h25z" />
    <glyph glyph-name="Ocircumflex" unicode="&#xd4;" horiz-adv-x="858" 
d="M429 886l-117 -122h-26l127 136h31l127 -136h-26zM178 590q104 104 251 104q146 0 250 -104t104 -250q0 -147 -104 -251q-103 -103 -250 -103q-148 0 -251 103t-103 251q0 147 103 250zM194 104q97 -97 235 -97t235 97t97 236q0 138 -97 235q-98 98 -235 98t-235 -98
q-97 -97 -97 -235q0 -139 97 -236z" />
    <glyph glyph-name="Otilde" unicode="&#xd5;" horiz-adv-x="858" 
d="M536 867h19q0 -54 -41 -69q-39 -13 -81 17l-38 27q-32 23 -61 13q-32 -9 -32 -48h-19q0 35 21 53t49 16.5t52 -18.5l37 -26q34 -25 64 -14.5t30 49.5zM178 590q104 104 251 104q146 0 250 -104t104 -250q0 -147 -104 -251q-103 -103 -250 -103q-148 0 -251 103t-103 251
q0 147 103 250zM194 104q97 -97 235 -97t235 97t97 236q0 138 -97 235q-98 98 -235 98t-235 -98q-97 -97 -97 -235q0 -139 97 -236z" />
    <glyph glyph-name="Odieresis" unicode="&#xd6;" horiz-adv-x="858" 
d="M328 827q11 11 25 6.5t17 -17.5t-7 -25q-10 -10 -23.5 -5.5t-17 17t5.5 24.5zM494 827q11 11 25 6.5t17 -17.5t-7 -25q-10 -10 -23.5 -5.5t-17 17t5.5 24.5zM178 590q104 104 251 104q146 0 250 -104t104 -250q0 -147 -104 -251q-103 -103 -250 -103q-148 0 -251 103
t-103 251q0 147 103 250zM194 104q97 -97 235 -97t235 97t97 236q0 138 -97 235q-98 98 -235 98t-235 -98q-97 -97 -97 -235q0 -139 97 -236z" />
    <glyph glyph-name="multiply" unicode="&#xd7;" horiz-adv-x="650" 
d="M510 145l-15 -15l-170 170l-170 -170l-15 15l170 170l-170 170l15 15l170 -170l170 170l15 -15l-170 -170z" />
    <glyph glyph-name="Oslash" unicode="&#xd8;" horiz-adv-x="858" 
d="M727 677l-61 -73q117 -106 117 -264q0 -147 -104 -251q-103 -103 -250 -103q-123 0 -219 75l-62 -74l-17 14l62 74q-118 106 -118 265q0 147 103 250q104 104 251 104q123 0 220 -76l61 73zM97 340q0 -147 110 -248l428 509q-91 72 -206 72q-137 0 -235 -98
q-97 -97 -97 -235zM429 7q138 0 235 97t97 236q0 148 -109 247l-428 -509q89 -71 205 -71z" />
    <glyph glyph-name="Ugrave" unicode="&#xd9;" horiz-adv-x="766" 
d="M661 680v-404q0 -124 -78 -208q-77 -83 -200 -83q-124 0 -201 83t-77 208v404h22v-404q0 -114 71 -193q70 -78 185 -78t185 78q71 79 71 193v404h22zM402 760h-24l-88 136h25z" />
    <glyph glyph-name="Uacute" unicode="&#xda;" horiz-adv-x="766" 
d="M661 680v-404q0 -124 -78 -208q-77 -83 -200 -83q-124 0 -201 83t-77 208v404h22v-404q0 -114 71 -193q70 -78 185 -78t185 78q71 79 71 193v404h22zM477 896l-88 -136h-24l87 136h25z" />
    <glyph glyph-name="Ucircumflex" unicode="&#xdb;" horiz-adv-x="766" 
d="M383 886l-117 -122h-26l127 136h31l127 -136h-26zM661 680v-404q0 -124 -78 -208q-77 -83 -200 -83q-124 0 -201 83t-77 208v404h22v-404q0 -114 71 -193q70 -78 185 -78t185 78q71 79 71 193v404h22z" />
    <glyph glyph-name="Udieresis" unicode="&#xdc;" horiz-adv-x="766" 
d="M282 827q11 11 25 6.5t17 -17.5t-7 -25q-10 -10 -23.5 -5.5t-17 17t5.5 24.5zM448 827q11 11 25 6.5t17 -17.5t-7 -25q-10 -10 -23.5 -5.5t-17 17t5.5 24.5zM661 680v-404q0 -124 -78 -208q-77 -83 -200 -83q-124 0 -201 83t-77 208v404h22v-404q0 -114 71 -193
q70 -78 185 -78t185 78q71 79 71 193v404h22z" />
    <glyph glyph-name="Yacute" unicode="&#xdd;" horiz-adv-x="640" 
d="M326 760h-24l87 136h25zM620 680l-289 -423v-257h-22v257l-289 423h25l275 -403l275 403h25z" />
    <glyph glyph-name="Thorn" unicode="&#xde;" horiz-adv-x="636" 
d="M137 560h196q113 0 183 -59q70 -58 70 -156t-70 -156q-70 -59 -183 -59h-196v-130h-22v680h22v-120zM137 150h196q102 0 166 53q64 54 64 142q0 87 -64 141q-65 54 -166 54h-196v-390z" />
    <glyph glyph-name="germandbls" unicode="&#xdf;" horiz-adv-x="589" 
d="M300 169h31q97 0 160 -48t63 -136q0 -86 -61 -143q-60 -57 -171 -57q-89 0 -173 40v22q81 -42 175 -42q102 0 154 52q54 53 54 128q0 77 -55.5 120.5t-145.5 43.5h-67v11l229 270h-382v-430h-21v619q0 61 37.5 98.5t99.5 37.5v-20q-53 0 -84.5 -31.5t-31.5 -84.5v-169
h413v-16z" />
    <glyph glyph-name="agrave" unicode="&#xe0;" horiz-adv-x="626" 
d="M318 550l-88 136h25l87 -136h-24zM526 450v-450h-21v75q-73 -90 -190 -90q-100 0 -170 70t-70 170q0 99 70 169t170 70q117 0 190 -90v76h21zM315 5q119 0 190 104v231q-71 104 -190 104q-89 0 -154 -65q-64 -64 -64 -154q0 -91 63 -156q64 -64 155 -64z" />
    <glyph glyph-name="aacute" unicode="&#xe1;" horiz-adv-x="626" 
d="M329 549h-24l87 136h25zM526 450v-450h-21v75q-73 -90 -190 -90q-100 0 -170 70t-70 170q0 99 70 169t170 70q117 0 190 -90v76h21zM315 5q119 0 190 104v231q-71 104 -190 104q-89 0 -154 -65q-64 -64 -64 -154q0 -91 63 -156q64 -64 155 -64z" />
    <glyph glyph-name="acircumflex" unicode="&#xe2;" horiz-adv-x="626" 
d="M206 544h-26l127 136h31l127 -136h-26l-116 122zM526 450v-450h-21v75q-73 -90 -190 -90q-100 0 -170 70t-70 170q0 99 70 169t170 70q117 0 190 -90v76h21zM315 5q119 0 190 104v231q-71 104 -190 104q-89 0 -154 -65q-64 -64 -64 -154q0 -91 63 -156q64 -64 155 -64z
" />
    <glyph glyph-name="atilde" unicode="&#xe3;" horiz-adv-x="626" 
d="M351 605l-38 27q-32 23 -61 13q-32 -9 -32 -48h-19q0 35 21 53t49 16.5t52 -18.5l37 -26q34 -25 64 -14.5t30 49.5h19q0 -54 -41 -69q-39 -13 -81 17zM526 450v-450h-21v75q-73 -90 -190 -90q-100 0 -170 70t-70 170q0 99 70 169t170 70q117 0 190 -90v76h21zM315 5
q119 0 190 104v231q-71 104 -190 104q-89 0 -154 -65q-64 -64 -64 -154q0 -91 63 -156q64 -64 155 -64z" />
    <glyph glyph-name="adieresis" unicode="&#xe4;" horiz-adv-x="626" 
d="M526 450v-450h-21v75q-73 -90 -190 -90q-100 0 -170 70t-70 170q0 99 70 169t170 70q117 0 190 -90v76h21zM315 5q119 0 190 104v231q-71 104 -190 104q-89 0 -154 -65q-64 -64 -64 -154q0 -91 63 -156q64 -64 155 -64zM257 601q-10 -10 -23.5 -5.5t-17 17t5.5 24.5
q11 11 25 6.5t17 -17.5t-7 -25zM423 601q-10 -10 -23.5 -5.5t-17 17t5.5 24.5q11 11 25 6.5t17 -17.5t-7 -25z" />
    <glyph glyph-name="aring" unicode="&#xe5;" horiz-adv-x="626" 
d="M385 571q-25 -24 -62 -24t-62 24q-25 25 -25 62t25 61q25 25 62 25t62 -25q25 -24 25 -61t-25 -62zM255 633q0 -29 19.5 -48.5t48.5 -19.5t48.5 19.5t19.5 48.5q0 28 -20 48t-48 20t-48 -20t-20 -48zM526 450v-450h-21v75q-73 -90 -190 -90q-100 0 -170 70t-70 170
q0 99 70 169t170 70q117 0 190 -90v76h21zM315 5q119 0 190 104v231q-71 104 -190 104q-89 0 -154 -65q-64 -64 -64 -154q0 -91 63 -156q64 -64 155 -64z" />
    <glyph glyph-name="ae" unicode="&#xe6;" horiz-adv-x="977" 
d="M683 464q97 0 157 -69q62 -71 62 -174v-4h-427q3 -88 62 -150q58 -61 146 -61q61 0 107.5 26t64.5 70h24q-20 -54 -72.5 -85t-123.5 -31q-62 0 -114 30t-83 82q-42 -54 -103.5 -83.5t-130.5 -29.5q-82 0 -132 38t-50 101q0 54 41 83.5t118 29.5h224q0 95 -45 147t-131 52
q-60 0 -101 -25.5t-52 -70.5h-24q12 54 59 85t118 31q77 0 125.5 -38t64.5 -108q25 70 83 112t133 42zM475 237h404q-4 89 -59 148q-53 59 -137 59q-87 0 -145 -60q-58 -58 -63 -147zM254 7q140 0 222 111q-22 48 -23 99h-224q-67 0 -102 -24.5t-35 -68.5q0 -53 45 -85
t117 -32z" />
    <glyph glyph-name="ccedilla" unicode="&#xe7;" horiz-adv-x="582" 
d="M307 6q67 0 115 34.5t62 91.5h23q-16 -66 -70.5 -106t-129.5 -40q-103 0 -167 69q-65 70 -65 170t65 170q64 69 167 69q75 0 129.5 -40t70.5 -106h-23q-14 57 -62 91.5t-115 34.5q-94 0 -152 -64q-58 -62 -58 -155q0 -92 58 -156q58 -63 152 -63zM288 -86h21l-50 -133
h-20z" />
    <glyph glyph-name="egrave" unicode="&#xe8;" horiz-adv-x="599" 
d="M295 550l-88 136h25l87 -136h-24zM305 464q97 0 157 -69q62 -71 62 -174v-4h-427q3 -88 62 -150q58 -61 146 -61q61 0 107.5 26t64.5 70h24q-20 -54 -72.5 -85t-123.5 -31q-101 0 -165 69q-65 69 -65 170q0 99 65 169q66 70 165 70zM97 237h404q-4 89 -59 148
q-53 59 -137 59q-87 0 -145 -60q-58 -58 -63 -147z" />
    <glyph glyph-name="eacute" unicode="&#xe9;" horiz-adv-x="599" 
d="M306 549h-24l87 136h25zM305 464q97 0 157 -69q62 -71 62 -174v-4h-427q3 -88 62 -150q58 -61 146 -61q61 0 107.5 26t64.5 70h24q-20 -54 -72.5 -85t-123.5 -31q-101 0 -165 69q-65 69 -65 170q0 99 65 169q66 70 165 70zM97 237h404q-4 89 -59 148q-53 59 -137 59
q-87 0 -145 -60q-58 -58 -63 -147z" />
    <glyph glyph-name="ecircumflex" unicode="&#xea;" horiz-adv-x="599" 
d="M183 544h-26l127 136h31l127 -136h-26l-116 122zM305 464q97 0 157 -69q62 -71 62 -174v-4h-427q3 -88 62 -150q58 -61 146 -61q61 0 107.5 26t64.5 70h24q-20 -54 -72.5 -85t-123.5 -31q-101 0 -165 69q-65 69 -65 170q0 99 65 169q66 70 165 70zM97 237h404
q-4 89 -59 148q-53 59 -137 59q-87 0 -145 -60q-58 -58 -63 -147z" />
    <glyph glyph-name="edieresis" unicode="&#xeb;" horiz-adv-x="599" 
d="M235 601q-17 -17 -35 1t-1 35t35 -1t1 -35zM401 601q-17 -17 -35 1t-1 35t35 -1t1 -35zM305 464q97 0 157 -69q62 -71 62 -174v-4h-427q3 -88 62 -150q58 -61 146 -61q61 0 107.5 26t64.5 70h24q-20 -54 -72.5 -85t-123.5 -31q-101 0 -165 69q-65 69 -65 170q0 99 65 169
q66 70 165 70zM97 237h404q-4 89 -59 148q-53 59 -137 59q-87 0 -145 -60q-58 -58 -63 -147z" />
    <glyph glyph-name="igrave" unicode="&#xec;" horiz-adv-x="267" 
d="M153 550h-24l-88 136h25zM144 450v-450h-21v450h21z" />
    <glyph glyph-name="iacute" unicode="&#xed;" horiz-adv-x="267" 
d="M228 685l-88 -136h-24l87 136h25zM144 450v-450h-21v450h21z" />
    <glyph glyph-name="icircumflex" unicode="&#xee;" horiz-adv-x="267" 
d="M134 666l-117 -122h-26l127 136h31l127 -136h-26zM144 450v-450h-21v450h21z" />
    <glyph glyph-name="idieresis" unicode="&#xef;" horiz-adv-x="267" 
d="M33 637q17 17 35 -1t1 -35t-35 1t-1 35zM199 637q17 17 35 -1t1 -35t-35 1t-1 35zM144 450v-450h-21v450h21z" />
    <glyph glyph-name="eth" unicode="&#xf0;" 
d="M426 639l-59 -22q87 -69 137 -170.5t50 -221.5q0 -100 -70 -170t-169 -70q-100 0 -170 70t-70 170q0 99 70 169t170 70q66 0 120.5 -33.5t84.5 -91.5q-38 166 -176 269l-176 -66l-6 19l163 61q-68 45 -137 63l28 10q69 -20 132 -64l72 27zM315 5q90 0 153 64
q64 64 64 156q0 90 -64 154q-63 65 -153 65q-89 0 -154 -65q-64 -64 -64 -154q0 -91 63 -156q64 -64 155 -64z" />
    <glyph glyph-name="ntilde" unicode="&#xf1;" horiz-adv-x="572" 
d="M329 605l-38 27q-32 23 -61 13q-32 -9 -32 -48h-19q0 35 21 53t49 16.5t52 -18.5l37 -26q34 -25 64 -14.5t30 49.5h19q0 -54 -41 -69q-39 -13 -81 17zM316 465q84 0 135 -52t51 -141v-272h-21v272q0 80 -45.5 126.5t-119.5 46.5q-60 0 -113 -27t-82 -74v-344h-21v450h21
v-72q32 41 83.5 64t111.5 23z" />
    <glyph glyph-name="ograve" unicode="&#xf2;" horiz-adv-x="629" 
d="M315 464q99 0 169 -70t70 -169q0 -100 -70 -170t-169 -70q-100 0 -170 70t-70 170q0 99 70 169t170 70zM315 5q90 0 153 64q64 64 64 156q0 90 -64 154q-63 65 -153 65q-89 0 -154 -65q-64 -64 -64 -154q0 -91 63 -156q64 -64 155 -64zM334 550h-24l-88 136h25z" />
    <glyph glyph-name="oacute" unicode="&#xf3;" horiz-adv-x="629" 
d="M315 464q99 0 169 -70t70 -169q0 -100 -70 -170t-169 -70q-100 0 -170 70t-70 170q0 99 70 169t170 70zM315 5q90 0 153 64q64 64 64 156q0 90 -64 154q-63 65 -153 65q-89 0 -154 -65q-64 -64 -64 -154q0 -91 63 -156q64 -64 155 -64zM409 685l-88 -136h-24l87 136h25z
" />
    <glyph glyph-name="ocircumflex" unicode="&#xf4;" horiz-adv-x="629" 
d="M315 666l-117 -122h-26l127 136h31l127 -136h-26zM315 464q99 0 169 -70t70 -169q0 -100 -70 -170t-169 -70q-100 0 -170 70t-70 170q0 99 70 169t170 70zM315 5q90 0 153 64q64 64 64 156q0 90 -64 154q-63 65 -153 65q-89 0 -154 -65q-64 -64 -64 -154q0 -91 63 -156
q64 -64 155 -64z" />
    <glyph glyph-name="otilde" unicode="&#xf5;" horiz-adv-x="629" 
d="M446 657h19q0 -54 -41 -69q-39 -13 -81 17l-38 27q-32 23 -61 13q-32 -9 -32 -48h-19q0 35 21 53t49 16.5t52 -18.5l37 -26q34 -25 64 -14.5t30 49.5zM315 464q99 0 169 -70t70 -169q0 -100 -70 -170t-169 -70q-100 0 -170 70t-70 170q0 99 70 169t170 70zM315 5
q90 0 153 64q64 64 64 156q0 90 -64 154q-63 65 -153 65q-89 0 -154 -65q-64 -64 -64 -154q0 -91 63 -156q64 -64 155 -64z" />
    <glyph glyph-name="odieresis" unicode="&#xf6;" horiz-adv-x="629" 
d="M214 637q11 11 25 6.5t17 -17.5t-7 -25q-10 -10 -23.5 -5.5t-17 17t5.5 24.5zM380 637q11 11 25 6.5t17 -17.5t-7 -25q-10 -10 -23.5 -5.5t-17 17t5.5 24.5zM315 464q99 0 169 -70t70 -169q0 -100 -70 -170t-169 -70q-100 0 -170 70t-70 170q0 99 70 169t170 70zM315 5
q90 0 153 64q64 64 64 156q0 90 -64 154q-63 65 -153 65q-89 0 -154 -65q-64 -64 -64 -154q0 -91 63 -156q64 -64 155 -64z" />
    <glyph glyph-name="divide" unicode="&#xf7;" horiz-adv-x="702" 
d="M367 480q-9 -11 -21.5 -6.5t-16 16t4.5 22.5q10 10 23 5.5t16 -16t-6 -21.5zM367 118q-9 -11 -21.5 -6.5t-16 16t4.5 22.5q10 10 23 5.5t16 -16t-6 -21.5zM130 326h442v-21h-442v21z" />
    <glyph glyph-name="oslash" unicode="&#xf8;" horiz-adv-x="629" 
d="M505 450l-36 -43q85 -70 85 -182q0 -100 -70 -170t-169 -70q-87 0 -152 54l-39 -46l-15 14l38 46q-72 70 -72 172q0 99 70 169t170 70q76 0 138 -44l37 44zM97 225q0 -92 64 -156l279 335q-55 40 -125 40q-89 0 -154 -65q-64 -64 -64 -154zM315 5q90 0 153 64
q64 64 64 156q0 102 -76 166l-280 -336q62 -50 139 -50z" />
    <glyph glyph-name="ugrave" unicode="&#xf9;" horiz-adv-x="572" 
d="M271 550l-88 136h25l87 -136h-24zM472 450v-450h-21v72q-32 -41 -83.5 -64t-111.5 -23q-84 0 -135 52t-51 141v272h21v-272q0 -80 45.5 -126.5t119.5 -46.5q60 0 113 27t82 74v344h21z" />
    <glyph glyph-name="uacute" unicode="&#xfa;" horiz-adv-x="572" 
d="M282 549h-24l87 136h25zM472 450v-450h-21v72q-32 -41 -83.5 -64t-111.5 -23q-84 0 -135 52t-51 141v272h21v-272q0 -80 45.5 -126.5t119.5 -46.5q60 0 113 27t82 74v344h21z" />
    <glyph glyph-name="ucircumflex" unicode="&#xfb;" horiz-adv-x="572" 
d="M159 544h-26l127 136h31l127 -136h-26l-116 122zM472 450v-450h-21v72q-32 -41 -83.5 -64t-111.5 -23q-84 0 -135 52t-51 141v272h21v-272q0 -80 45.5 -126.5t119.5 -46.5q60 0 113 27t82 74v344h21z" />
    <glyph glyph-name="udieresis" unicode="&#xfc;" horiz-adv-x="572" 
d="M211 601q-17 -17 -35 1t-1 35t35 -1t1 -35zM377 601q-17 -17 -35 1t-1 35t35 -1t1 -35zM472 450v-450h-21v72q-32 -41 -83.5 -64t-111.5 -23q-84 0 -135 52t-51 141v272h21v-272q0 -80 45.5 -126.5t119.5 -46.5q60 0 113 27t82 74v344h21z" />
    <glyph glyph-name="yacute" unicode="&#xfd;" horiz-adv-x="561" 
d="M281 549h-24l87 136h25zM511 450l-337 -710h-24l108 227l-238 483h24l226 -457l217 457h24z" />
    <glyph glyph-name="thorn" unicode="&#xfe;" horiz-adv-x="626" 
d="M311 464q100 0 170 -70t70 -169q0 -100 -70 -170t-170 -70q-117 0 -190 90v-335h-21v940h21v-306q73 90 190 90zM311 5q91 0 154 64q64 64 64 156q0 90 -64 154q-65 65 -154 65q-119 0 -190 -104v-231q71 -104 190 -104z" />
    <glyph glyph-name="ydieresis" unicode="&#xff;" horiz-adv-x="561" 
d="M511 450l-337 -710h-24l108 227l-238 483h24l226 -457l217 457h24zM209 601q-10 -10 -23.5 -5.5t-17 17t5.5 24.5q11 11 25 6.5t17 -17.5t-7 -25zM375 601q-10 -10 -23.5 -5.5t-17 17t5.5 24.5q11 11 25 6.5t17 -17.5t-7 -25z" />
    <glyph glyph-name="Amacron" unicode="&#x100;" horiz-adv-x="741" 
d="M508 780h-276v18h276v-18zM564 244h-387l-113 -244h-24l319 685h23l319 -685h-24zM554 264l-183 395l-184 -395h367z" />
    <glyph glyph-name="amacron" unicode="&#x101;" horiz-adv-x="626" 
d="M460 570h-276v18h276v-18zM526 450v-450h-21v75q-73 -90 -190 -90q-100 0 -170 70t-70 170q0 99 70 169t170 70q117 0 190 -90v76h21zM315 5q119 0 190 104v231q-71 104 -190 104q-89 0 -154 -65q-64 -64 -64 -154q0 -91 63 -156q64 -64 155 -64z" />
    <glyph glyph-name="Abreve" unicode="&#x102;" horiz-adv-x="741" 
d="M241 895h20q0 -48 32.5 -76.5t77.5 -28.5t77.5 28.5t32.5 76.5h20q0 -58 -39 -91t-91 -33t-91 33t-39 91zM564 244h-387l-113 -244h-24l319 685h23l319 -685h-24zM554 264l-183 395l-184 -395h367z" />
    <glyph glyph-name="abreve" unicode="&#x103;" horiz-adv-x="626" 
d="M193 665h20q0 -48 32.5 -76.5t77.5 -28.5t77.5 28.5t32.5 76.5h20q0 -58 -39 -91t-91 -33t-91 33t-39 91zM526 450v-450h-21v75q-73 -90 -190 -90q-100 0 -170 70t-70 170q0 99 70 169t170 70q117 0 190 -90v76h21zM315 5q119 0 190 104v231q-71 104 -190 104
q-89 0 -154 -65q-64 -64 -64 -154q0 -91 63 -156q64 -64 155 -64z" />
    <glyph glyph-name="Aogonek" unicode="&#x104;" horiz-adv-x="741" 
d="M724 -181l2 -21q-14 -3 -33 -3q-51 0 -82.5 26.5t-31.5 69.5q0 70 94 119l-109 234h-387l-113 -244h-24l319 685h23l319 -685q-33 -15 -67 -40q-33 -27 -33 -67q0 -35 26 -55.5t69 -20.5q6 0 28 2zM554 264l-184 395l-183 -395h367z" />
    <glyph glyph-name="aogonek" unicode="&#x105;" horiz-adv-x="626" 
d="M549 -181l2 -21q-13 -3 -33 -3q-51 0 -82.5 26.5t-31.5 69.5q0 70 101 123v61q-73 -90 -190 -90q-100 0 -170 70t-70 170q0 99 70 169t170 70q117 0 190 -90v76h21v-450q-33 -15 -67 -40q-33 -27 -33 -67q0 -35 26 -55.5t69 -20.5q6 0 28 2zM315 5q119 0 190 104v231
q-71 104 -190 104q-89 0 -154 -65q-64 -64 -64 -154q0 -91 63 -156q64 -64 155 -64z" />
    <glyph glyph-name="Cacute" unicode="&#x106;" horiz-adv-x="819" 
d="M436 760h-24l87 136h25zM428 7q110 0 189 57q79 58 103 150h24q-25 -100 -112 -165q-86 -63 -204 -63q-147 0 -250 103t-103 251q0 147 103 250q104 104 250 104q119 0 204 -64q87 -64 112 -164h-24q-24 93 -103 149q-79 58 -189 58q-137 0 -235 -98q-96 -97 -96 -235
t96 -236q97 -97 235 -97z" />
    <glyph glyph-name="cacute" unicode="&#x107;" horiz-adv-x="582" 
d="M312 549h-24l87 136h25zM307 6q67 0 115 34.5t62 91.5h23q-16 -66 -70.5 -106t-129.5 -40q-103 0 -167 69q-65 70 -65 170t65 170q64 69 167 69q75 0 129.5 -40t70.5 -106h-23q-14 57 -62 91.5t-115 34.5q-94 0 -152 -64q-58 -62 -58 -155q0 -92 58 -156q58 -63 152 -63z
" />
    <glyph glyph-name="Cdotaccent" unicode="&#x10a;" horiz-adv-x="819" 
d="M428 7q110 0 189 57q79 58 103 150h24q-25 -100 -112 -165q-86 -63 -204 -63q-147 0 -250 103t-103 251q0 147 103 250q104 104 250 104q119 0 204 -64q87 -64 112 -164h-24q-24 93 -103 149q-79 58 -189 58q-137 0 -235 -98q-96 -97 -96 -235t96 -236q97 -97 235 -97z
M447 791q-10 -10 -23.5 -5.5t-17 17t5.5 24.5q11 11 25 6.5t17 -17.5t-7 -25z" />
    <glyph glyph-name="cdotaccent" unicode="&#x10b;" horiz-adv-x="582" 
d="M307 6q67 0 115 34.5t62 91.5h23q-16 -66 -70.5 -106t-129.5 -40q-103 0 -167 69q-65 70 -65 170t65 170q64 69 167 69q75 0 129.5 -40t70.5 -106h-23q-14 57 -62 91.5t-115 34.5q-94 0 -152 -64q-58 -62 -58 -155q0 -92 58 -156q58 -63 152 -63zM323 601
q-10 -10 -23.5 -5.5t-17 17t5.5 24.5q11 11 25 6.5t17 -17.5t-7 -25z" />
    <glyph glyph-name="Ccaron" unicode="&#x10c;" horiz-adv-x="819" 
d="M414 764l-127 136h26l117 -122l116 122h26l-127 -136h-31zM428 7q110 0 189 57q79 58 103 150h24q-25 -100 -112 -165q-86 -63 -204 -63q-147 0 -250 103t-103 251q0 147 103 250q104 104 250 104q119 0 204 -64q87 -64 112 -164h-24q-24 93 -103 149q-79 58 -189 58
q-137 0 -235 -98q-96 -97 -96 -235t96 -236q97 -97 235 -97z" />
    <glyph glyph-name="ccaron" unicode="&#x10d;" horiz-adv-x="582" 
d="M290 544l-127 136h26l117 -122l116 122h26l-127 -136h-31zM307 6q67 0 115 34.5t62 91.5h23q-16 -66 -70.5 -106t-129.5 -40q-103 0 -167 69q-65 70 -65 170t65 170q64 69 167 69q75 0 129.5 -40t70.5 -106h-23q-14 57 -62 91.5t-115 34.5q-94 0 -152 -64
q-58 -62 -58 -155q0 -92 58 -156q58 -63 152 -63z" />
    <glyph glyph-name="Dcaron" unicode="&#x10e;" horiz-adv-x="761" 
d="M335 764l-127 136h26l117 -122l116 122h26l-127 -136h-31zM115 680h218q158 0 256 -92q97 -91 97 -242q0 -157 -97 -251q-98 -95 -256 -95h-218v680zM137 20h196q148 0 239 89q91 90 91 237q0 142 -91 227q-91 87 -239 87h-196v-640z" />
    <glyph glyph-name="dcaron" unicode="&#x10f;" horiz-adv-x="626" 
d="M505 710h21v-710h-21v76q-73 -90 -190 -90q-100 0 -170 70t-70 169q0 100 70 170t170 70q117 0 190 -90v335zM685 710l-17 -170h-19l14 170h22zM315 6q119 0 190 104v231q-71 104 -190 104q-90 0 -155 -65q-63 -64 -63 -155t64 -155t154 -64z" />
    <glyph glyph-name="Dcroat" unicode="&#x110;" horiz-adv-x="761" 
d="M115 680h218q158 0 256 -92q97 -91 97 -242q0 -157 -97 -251q-98 -95 -256 -95h-218v330h-75v20h75v330zM137 20h196q148 0 239 89q91 90 91 237q0 142 -91 227q-91 87 -239 87h-196v-310h220v-20h-220v-310z" />
    <glyph glyph-name="dslash" unicode="&#x111;" horiz-adv-x="626" 
d="M567 597h-41v-597h-21v76q-73 -90 -190 -90q-100 0 -170 70t-70 169q0 100 70 170t170 70q117 0 190 -90v222h-225v19h225v94h21v-94h41v-19zM315 6q119 0 190 104v231q-71 104 -190 104q-90 0 -155 -65q-63 -64 -63 -155t64 -155t154 -64z" />
    <glyph glyph-name="Emacron" unicode="&#x112;" horiz-adv-x="647" 
d="M478 780h-276v18h276v-18zM137 660v-310h390v-20h-390v-310h430v-20h-452v680h452v-20h-430z" />
    <glyph glyph-name="emacron" unicode="&#x113;" horiz-adv-x="599" 
d="M437 570h-276v18h276v-18zM305 464q97 0 157 -69q62 -71 62 -174v-4h-427q3 -88 62 -150q58 -61 146 -61q61 0 107.5 26t64.5 70h24q-20 -54 -72.5 -85t-123.5 -31q-101 0 -165 69q-65 69 -65 170q0 99 65 169q66 70 165 70zM97 237h404q-4 89 -59 148q-53 59 -137 59
q-87 0 -145 -60q-58 -58 -63 -147z" />
    <glyph glyph-name="Edotaccent" unicode="&#x116;" horiz-adv-x="647" 
d="M359 791q-17 -17 -35 1t-1 35t35 -1t1 -35zM137 660v-310h390v-20h-390v-310h430v-20h-452v680h452v-20h-430z" />
    <glyph glyph-name="edotaccent" unicode="&#x117;" horiz-adv-x="599" 
d="M305 464q97 0 157 -69q62 -71 62 -174v-4h-427q3 -88 62 -150q58 -61 146 -61q61 0 107.5 26t64.5 70h24q-20 -54 -72.5 -85t-123.5 -31q-101 0 -165 69q-65 69 -65 170q0 99 65 169q66 70 165 70zM97 237h404q-4 89 -59 148q-53 59 -137 59q-87 0 -145 -60
q-58 -58 -63 -147zM317 601q-10 -10 -23.5 -5.5t-17 17t5.5 24.5q11 11 25 6.5t17 -17.5t-7 -25z" />
    <glyph glyph-name="Eogonek" unicode="&#x118;" horiz-adv-x="647" 
d="M590 -181l2 -21q-14 -3 -33 -3q-51 0 -82.5 26.5t-31.5 69.5q0 63 76 109h-406v680h452v-20h-430v-310h390v-20h-390v-310h430v-20q-33 -15 -67 -40q-33 -27 -33 -67q0 -35 26 -55.5t69 -20.5q6 0 28 2z" />
    <glyph glyph-name="eogonek" unicode="&#x119;" horiz-adv-x="599" 
d="M305 464q97 0 157 -69q62 -71 62 -174v-4h-427q3 -88 62 -150q58 -61 146 -61q87 0 139 49q22 21 33 47h24q-17 -44 -57 -74l-27 -26q-19 -23 -20 -26q-14 -28 -14 -52q0 -35 26 -55.5t69 -20.5q6 0 28 2l2 -21q-14 -3 -33 -3q-51 0 -82.5 26.5t-31.5 69.5q0 45 28 77
q-40 -13 -84 -13q-101 0 -165 69q-65 69 -65 170q0 99 65 169q66 70 165 70zM97 237h404q-4 89 -59 148q-53 59 -137 59q-87 0 -145 -60q-58 -58 -63 -147z" />
    <glyph glyph-name="Ecaron" unicode="&#x11a;" horiz-adv-x="647" 
d="M325 764l-127 136h26l117 -122l116 122h26l-127 -136h-31zM137 660v-310h390v-20h-390v-310h430v-20h-452v680h452v-20h-430z" />
    <glyph glyph-name="ecaron" unicode="&#x11b;" horiz-adv-x="599" 
d="M284 544l-127 136h26l117 -122l116 122h26l-127 -136h-31zM305 464q97 0 157 -69q62 -71 62 -174v-4h-427q3 -88 62 -150q58 -61 146 -61q61 0 107.5 26t64.5 70h24q-20 -54 -72.5 -85t-123.5 -31q-101 0 -165 69q-65 69 -65 170q0 99 65 169q66 70 165 70zM97 237h404
q-4 89 -59 148q-53 59 -137 59q-87 0 -145 -60q-58 -58 -63 -147z" />
    <glyph glyph-name="Gbreve" unicode="&#x11e;" horiz-adv-x="844" 
d="M300 895h20q0 -48 32.5 -76.5t77.5 -28.5t77.5 28.5t32.5 76.5h20q0 -58 -39 -91t-91 -33t-91 33t-39 91zM741 340v-340h-22v202q-33 -100 -111 -158t-184 -58q-148 0 -248 103q-101 104 -101 251t103 250q104 104 251 104q113 0 201 -64q89 -65 114 -164h-24
q-24 91 -106 149q-80 58 -185 58q-137 0 -235 -98q-97 -97 -97 -235t95 -236q94 -97 232 -97q129 0 209 89t86 224h-298v20h320z" />
    <glyph glyph-name="gbreve" unicode="&#x11f;" horiz-adv-x="626" 
d="M178 665h20q0 -48 32.5 -76.5t77.5 -28.5t77.5 28.5t32.5 76.5h20q0 -58 -39 -91t-91 -33t-91 33t-39 91zM516 450v-480q0 -99 -60 -159q-58 -60 -159 -60q-81 0 -138.5 40t-73.5 106h23q14 -57 65.5 -91.5t123.5 -34.5q90 0 144 54.5t54 144.5v105q-77 -90 -200 -90
q-101 0 -165 69q-65 69 -65 171q0 99 65 169q66 70 165 70q123 0 200 -90v76h21zM295 5q59 0 112.5 27.5t87.5 76.5v231q-34 49 -87.5 76.5t-112.5 27.5q-91 0 -149 -64q-59 -65 -59 -155q0 -91 59 -156q58 -64 149 -64z" />
    <glyph glyph-name="Gdotaccent" unicode="&#x120;" horiz-adv-x="844" 
d="M741 340v-340h-22v202q-33 -100 -111 -158t-184 -58q-148 0 -248 103q-101 104 -101 251t103 250q104 104 251 104q113 0 201 -64q89 -65 114 -164h-24q-24 91 -106 149q-80 58 -185 58q-137 0 -235 -98q-97 -97 -97 -235t95 -236q94 -97 232 -97q129 0 209 89t86 224
h-298v20h320zM447 791q-10 -10 -23.5 -5.5t-17 17t5.5 24.5q11 11 25 6.5t17 -17.5t-7 -25z" />
    <glyph glyph-name="gdotaccent" unicode="&#x121;" horiz-adv-x="626" 
d="M516 450v-480q0 -99 -60 -159q-58 -60 -159 -60q-81 0 -138.5 40t-73.5 106h23q14 -57 65.5 -91.5t123.5 -34.5q90 0 144 54.5t54 144.5v105q-77 -90 -200 -90q-101 0 -165 69q-65 69 -65 171q0 99 65 169q66 70 165 70q123 0 200 -90v76h21zM295 5q59 0 112.5 27.5
t87.5 76.5v231q-34 49 -87.5 76.5t-112.5 27.5q-91 0 -149 -64q-59 -65 -59 -155q0 -91 59 -156q58 -64 149 -64zM325 601q-10 -10 -23.5 -5.5t-17 17t5.5 24.5q11 11 25 6.5t17 -17.5t-7 -25z" />
    <glyph glyph-name="Gcommaaccent" unicode="&#x122;" horiz-adv-x="844" 
d="M741 340v-340h-22v202q-33 -100 -111 -158t-184 -58q-148 0 -248 103q-101 104 -101 251t103 250q104 104 251 104q113 0 201 -64q89 -65 114 -164h-24q-24 91 -106 149q-80 58 -185 58q-137 0 -235 -98q-97 -97 -97 -235t95 -236q94 -97 232 -97q129 0 209 89t86 224
h-298v20h320zM412 -81q10 0 17.5 -7t7.5 -20q0 -11 -43 -119h-18l37 98q-26 0 -26 23q0 25 25 25z" />
    <glyph glyph-name="gcommaaccent" unicode="&#x123;" horiz-adv-x="626" 
d="M312 581q-10 0 -17.5 7t-7.5 20q0 11 43 119h18l-37 -98q26 0 26 -23q0 -25 -25 -25zM516 450v-480q0 -99 -60 -159q-58 -60 -159 -60q-81 0 -138.5 40t-73.5 106h23q14 -57 65.5 -91.5t123.5 -34.5q90 0 144 54.5t54 144.5v105q-77 -90 -200 -90q-101 0 -165 69
q-65 69 -65 171q0 99 65 169q66 70 165 70q123 0 200 -90v76h21zM295 5q59 0 112.5 27.5t87.5 76.5v231q-34 49 -87.5 76.5t-112.5 27.5q-91 0 -149 -64q-59 -65 -59 -155q0 -91 59 -156q58 -64 149 -64z" />
    <glyph glyph-name="Hbar" unicode="&#x126;" horiz-adv-x="759" 
d="M693 520h-49v-520h-22v330h-485v-330h-22v520h-49v20h49v140h22v-140h485v140h22v-140h49v-20zM622 520h-485v-170h485v170z" />
    <glyph glyph-name="hbar" unicode="&#x127;" horiz-adv-x="562" 
d="M316 465q84 0 135 -52t51 -141v-272h-21v272q0 80 -45.5 126.5t-119.5 46.5q-60 0 -113 -27t-82 -74v-344h-21v588h-71v20h71v102h21v-102h206v-20h-206v-210q32 41 83.5 64t111.5 23z" />
    <glyph glyph-name="Imacron" unicode="&#x12a;" horiz-adv-x="252" 
d="M137 680v-680h-22v680h22zM263 798v-18h-276v18h276z" />
    <glyph glyph-name="imacron" unicode="&#x12b;" horiz-adv-x="267" 
d="M144 450v-450h-21v450h21zM271 588v-18h-276v18h276z" />
    <glyph glyph-name="Iogonek" unicode="&#x12e;" horiz-adv-x="252" 
d="M160 -181l2 -21q-14 -3 -33 -3q-51 0 -82.5 26.5t-31.5 69.5q0 70 100 122v667h22v-680q-33 -15 -67 -40q-33 -27 -33 -67q0 -35 26 -55.5t69 -20.5q6 0 28 2z" />
    <glyph glyph-name="iogonek" unicode="&#x12f;" horiz-adv-x="266" 
d="M149 612q-15 -15 -31.5 1.5t-1.5 31.5q16 17 33 0t0 -33zM167 -181l2 -21q-13 -3 -33 -3q-51 0 -82.5 26.5t-31.5 69.5q0 70 101 123v436h21v-450q-33 -15 -67 -40q-33 -27 -33 -67q0 -35 26 -55.5t69 -20.5q6 0 28 2z" />
    <glyph glyph-name="Idot" unicode="&#x130;" horiz-adv-x="252" 
d="M143 791q-10 -10 -23.5 -5.5t-17 17t5.5 24.5q11 11 25 6.5t17 -17.5t-7 -25zM137 680v-680h-22v680h22z" />
    <glyph glyph-name="dotlessi" unicode="&#x131;" horiz-adv-x="267" 
d="M144 450v-450h-21v450h21z" />
    <glyph glyph-name="IJ" unicode="&#x132;" horiz-adv-x="845" 
d="M740 680v-444q0 -116 -63 -184q-61 -67 -165 -67q-90 0 -151 50.5t-79 136.5h22q16 -78 71 -122.5t138 -44.5q93 0 149 62q56 64 56 169v444h22zM137 680v-680h-22v680h22z" />
    <glyph glyph-name="ij" unicode="&#x133;" horiz-adv-x="520" 
d="M149 612q-15 -15 -31.5 1.5t-1.5 31.5q16 17 33 0t0 -33zM403 612q-15 -15 -31.5 1.5t-1.5 31.5q16 17 33 0t0 -33zM144 450v-450h-21v450h21zM398 450v-460q0 -90 -31.5 -128t-105.5 -38v20q63 0 89.5 33.5t26.5 112.5v460h21z" />
    <glyph glyph-name="Kcommaaccent" unicode="&#x136;" horiz-adv-x="698" 
d="M663 0h-30l-345 347l-151 -151v-196h-22v680h22v-453l454 453h30l-317 -317zM337 -81q10 0 17.5 -7t7.5 -20q0 -11 -43 -119h-18l37 98q-26 0 -26 23q0 25 25 25z" />
    <glyph glyph-name="kcommaaccent" unicode="&#x137;" horiz-adv-x="552" 
d="M522 0h-30l-250 246l-111 -98v-148h-21v710h21v-534l312 274h30l-214 -190zM284 -81q10 0 17.5 -7t7.5 -20q0 -11 -43 -119h-18l37 98q-26 0 -26 23q0 25 25 25z" />
    <glyph glyph-name="Lacute" unicode="&#x139;" horiz-adv-x="577" 
d="M135 760h-24l87 136h25zM537 20v-20h-422v680h22v-660h400z" />
    <glyph glyph-name="lacute" unicode="&#x13a;" horiz-adv-x="221" 
d="M223 945l-88 -136h-24l87 136h25zM121 710v-710h-21v710h21z" />
    <glyph glyph-name="Lcommaaccent" unicode="&#x13b;" horiz-adv-x="577" 
d="M537 20v-20h-422v680h22v-660h400zM317 -81q10 0 17.5 -7t7.5 -20q0 -11 -43 -119h-18l37 98q-26 0 -26 23q0 25 25 25z" />
    <glyph glyph-name="lcommaaccent" unicode="&#x13c;" horiz-adv-x="221" 
d="M70 -227l37 98q-26 0 -26 23q0 25 25 25q10 0 17.5 -7t7.5 -20q0 -11 -43 -119h-18zM121 710v-710h-21v710h21z" />
    <glyph glyph-name="Lcaron" unicode="&#x13d;" horiz-adv-x="577" 
d="M537 20v-20h-422v680h22v-660h400zM346 510h-19l14 170h22z" />
    <glyph glyph-name="lcaron" unicode="&#x13e;" horiz-adv-x="243" 
d="M253 710l-17 -170h-19l14 170h22zM121 710v-710h-21v710h21z" />
    <glyph glyph-name="Ldot" unicode="&#x13f;" horiz-adv-x="577" 
d="M537 20v-20h-422v680h22v-660h400zM373 283q-17 -17 -35 1t-1 35t35 -1t1 -35z" />
    <glyph glyph-name="ldot" unicode="&#x140;" horiz-adv-x="281" 
d="M121 710v-710h-21v710h21zM229 287q-17 -17 -35 1t-1 35t35 -1t1 -35z" />
    <glyph glyph-name="Lslash" unicode="&#x141;" horiz-adv-x="577" 
d="M537 20v-20h-422v258l-85 -51v25l85 51v397h22v-384l160 96v-25l-160 -96v-251h400z" />
    <glyph glyph-name="lslash" unicode="&#x142;" horiz-adv-x="221" 
d="M201 393l-80 -48v-345h-21v332l-79 -48v25l79 48v353h21v-340l80 48v-25z" />
    <glyph glyph-name="Nacute" unicode="&#x143;" horiz-adv-x="782" 
d="M397 760h-24l87 136h25zM667 680v-680h-28l-502 652v-652h-22v680h27l503 -652v652h22z" />
    <glyph glyph-name="nacute" unicode="&#x144;" horiz-adv-x="572" 
d="M307 549h-24l87 136h25zM316 465q84 0 135 -52t51 -141v-272h-21v272q0 80 -45.5 126.5t-119.5 46.5q-60 0 -113 -27t-82 -74v-344h-21v450h21v-72q32 41 83.5 64t111.5 23z" />
    <glyph glyph-name="Ncommaaccent" unicode="&#x145;" horiz-adv-x="782" 
d="M667 680v-680h-28l-502 652v-652h-22v680h27l503 -652v652h22zM359 -81q10 0 17.5 -7t7.5 -20q0 -11 -43 -119h-18l37 98q-26 0 -26 23q0 25 25 25z" />
    <glyph glyph-name="ncommaaccent" unicode="&#x146;" horiz-adv-x="572" 
d="M316 465q84 0 135 -52t51 -141v-272h-21v272q0 80 -45.5 126.5t-119.5 46.5q-60 0 -113 -27t-82 -74v-344h-21v450h21v-72q32 41 83.5 64t111.5 23zM303 -81q10 0 17.5 -7t7.5 -20q0 -11 -43 -119h-18l37 98q-26 0 -26 23q0 25 25 25z" />
    <glyph glyph-name="Ncaron" unicode="&#x147;" horiz-adv-x="782" 
d="M375 764l-127 136h26l117 -122l116 122h26l-127 -136h-31zM667 680v-680h-28l-502 652v-652h-22v680h27l503 -652v652h22z" />
    <glyph glyph-name="ncaron" unicode="&#x148;" horiz-adv-x="572" 
d="M285 544l-127 136h26l117 -122l116 122h26l-127 -136h-31zM316 465q84 0 135 -52t51 -141v-272h-21v272q0 80 -45.5 126.5t-119.5 46.5q-60 0 -113 -27t-82 -74v-344h-21v450h21v-72q32 41 83.5 64t111.5 23z" />
    <glyph glyph-name="Omacron" unicode="&#x14c;" horiz-adv-x="858" 
d="M178 590q104 104 251 104q146 0 250 -104t104 -250q0 -147 -104 -251q-103 -103 -250 -103q-148 0 -251 103t-103 251q0 147 103 250zM194 104q97 -97 235 -97t235 97t97 236q0 138 -97 235q-98 98 -235 98t-235 -98q-97 -97 -97 -235q0 -139 97 -236zM566 798v-18h-276
v18h276z" />
    <glyph glyph-name="omacron" unicode="&#x14d;" horiz-adv-x="629" 
d="M315 464q99 0 169 -70t70 -169q0 -100 -70 -170t-169 -70q-100 0 -170 70t-70 170q0 99 70 169t170 70zM315 5q90 0 153 64q64 64 64 156q0 90 -64 154q-63 65 -153 65q-89 0 -154 -65q-64 -64 -64 -154q0 -91 63 -156q64 -64 155 -64zM452 588v-18h-276v18h276z" />
    <glyph glyph-name="Ohungarumlaut" unicode="&#x150;" horiz-adv-x="858" 
d="M452 896l-86 -136h-24l86 136h24zM576 896l-87 -136h-23l86 136h24zM178 590q104 104 251 104q146 0 250 -104t104 -250q0 -147 -104 -251q-103 -103 -250 -103q-148 0 -251 103t-103 251q0 147 103 250zM194 104q97 -97 235 -97t235 97t97 236q0 138 -97 235
q-98 98 -235 98t-235 -98q-97 -97 -97 -235q0 -139 97 -236z" />
    <glyph glyph-name="ohungarumlaut" unicode="&#x151;" horiz-adv-x="629" 
d="M338 686l-86 -136h-24l86 136h24zM462 686l-87 -136h-23l86 136h24zM315 464q99 0 169 -70t70 -169q0 -100 -70 -170t-169 -70q-100 0 -170 70t-70 170q0 99 70 169t170 70zM315 5q90 0 153 64q64 64 64 156q0 90 -64 154q-63 65 -153 65q-89 0 -154 -65
q-64 -64 -64 -154q0 -91 63 -156q64 -64 155 -64z" />
    <glyph glyph-name="OE" unicode="&#x152;" horiz-adv-x="1060" 
d="M550 660v-310h390v-20h-390v-310h430v-20h-521q-169 0 -277 96q-107 96 -107 244t107 244q108 96 277 96h521v-20h-430zM528 22v636l-69 1q-157 3 -261 -90q-101 -90 -101 -229t101 -229q104 -93 261 -90z" />
    <glyph glyph-name="oe" unicode="&#x153;" horiz-adv-x="1056" 
d="M762 464q97 0 157 -69q62 -71 62 -174v-4h-427q3 -88 62 -150q58 -61 146 -61q61 0 107.5 26t64.5 70h24q-20 -54 -72.5 -85t-123.5 -31q-78 0 -138 46t-81 119q-24 -73 -87 -120q-61 -46 -141 -46q-100 0 -170 70t-70 170q0 99 70 169t170 70q79 0 141 -47
q63 -47 87 -119q21 74 81 120t138 46zM315 5q90 0 153 64q64 64 64 156q0 90 -64 154q-63 65 -153 65q-89 0 -154 -65q-64 -64 -64 -154q0 -91 63 -156q64 -64 155 -64zM554 237h404q-4 89 -59 148q-53 59 -137 59q-86 0 -145 -60q-59 -58 -63 -147z" />
    <glyph glyph-name="Racute" unicode="&#x154;" horiz-adv-x="665" 
d="M329 760h-24l87 136h25zM342 270h-205v-270h-22v680h228q116 0 184 -55q69 -54 69 -150q0 -89 -60 -143t-164 -61l243 -271h-32zM137 290h206q106 0 168 49.5t62 135.5t-62 135.5t-168 49.5h-206v-370z" />
    <glyph glyph-name="racute" unicode="&#x155;" horiz-adv-x="334" 
d="M193 549h-24l87 136h25zM121 450v-103q30 54 81 86t109 32v-20q-59 0 -110.5 -38.5t-79.5 -103.5v-303h-21v450h21z" />
    <glyph glyph-name="Rcommaaccent" unicode="&#x156;" horiz-adv-x="665" 
d="M583 0l-241 270h-205v-270h-22v680h228q116 0 184 -55q69 -54 69 -150q0 -89 -60 -143t-164 -61l243 -271h-32zM137 290h206q106 0 168 49.5t62 135.5t-62 135.5t-168 49.5h-206v-370zM311 -81q10 0 17.5 -7t7.5 -20q0 -11 -43 -119h-18l37 98q-26 0 -26 23q0 25 25 25z
" />
    <glyph glyph-name="rcommaaccent" unicode="&#x157;" horiz-adv-x="334" 
d="M121 450v-103q30 54 81 86t109 32v-20q-59 0 -110.5 -38.5t-79.5 -103.5v-303h-21v450h21zM110 -81q10 0 17.5 -7t7.5 -20q0 -11 -43 -119h-18l37 98q-26 0 -26 23q0 25 25 25z" />
    <glyph glyph-name="Rcaron" unicode="&#x158;" horiz-adv-x="665" 
d="M307 764l-127 136h26l117 -122l116 122h26l-127 -136h-31zM342 270h-205v-270h-22v680h228q116 0 184 -55q69 -54 69 -150q0 -89 -60 -143t-164 -61l243 -271h-32zM137 290h206q106 0 168 49.5t62 135.5t-62 135.5t-168 49.5h-206v-370z" />
    <glyph glyph-name="rcaron" unicode="&#x159;" horiz-adv-x="334" 
d="M171 544l-127 136h26l117 -122l116 122h26l-127 -136h-31zM121 450v-103q30 54 81 86t109 32v-20q-59 0 -110.5 -38.5t-79.5 -103.5v-303h-21v450h21z" />
    <glyph glyph-name="Sacute" unicode="&#x15a;" horiz-adv-x="653" 
d="M326 695q109 0 174 -48.5t80 -133.5h-22q-16 78 -75 120t-157 42q-93 0 -149.5 -44t-56.5 -117q0 -53 43.5 -89.5t124.5 -51.5l121 -23q84 -16 129 -59t45 -108q0 -89 -67 -144q-68 -54 -177 -54q-119 0 -188.5 58t-85.5 169h22q33 -207 252 -207q99 0 161 48
q61 49 61 129q0 57 -41 95.5t-116 52.5l-124 24q-88 17 -135.5 58.5t-47.5 103.5q0 80 63 129q64 50 166 50zM421 896l-88 -136h-24l87 136h25z" />
    <glyph glyph-name="sacute" unicode="&#x15b;" horiz-adv-x="545" 
d="M70 126h21q33 -121 190 -121q71 0 114.5 30.5t43.5 80.5q0 40 -27.5 65t-76.5 33l-107 17q-134 21 -134 112q0 55 47 88.5t124 33.5q81 0 134.5 -37.5t58.5 -98.5h-21q-19 116 -171 116q-68 0 -109.5 -28t-41.5 -74q0 -73 114 -92l97 -16q134 -23 134 -121
q0 -58 -49.5 -93.5t-130.5 -35.5q-178 0 -210 141zM367 685l-88 -136h-24l87 136h25z" />
    <glyph glyph-name="Scedilla" unicode="&#x15e;" horiz-adv-x="653" 
d="M326 695q109 0 174 -48.5t80 -133.5h-22q-16 78 -75 120t-157 42q-93 0 -149.5 -44t-56.5 -117q0 -53 43.5 -89.5t124.5 -51.5l121 -23q84 -16 129 -59t45 -108q0 -89 -67 -144q-68 -54 -177 -54q-119 0 -188.5 58t-85.5 169h22q33 -207 252 -207q99 0 161 48
q61 49 61 129q0 57 -41 95.5t-116 52.5l-124 24q-88 17 -135.5 58.5t-47.5 103.5q0 80 63 129q64 50 166 50zM305 -219h-20l49 133h21z" />
    <glyph glyph-name="scedilla" unicode="&#x15f;" horiz-adv-x="545" 
d="M70 126h21q33 -121 190 -121q71 0 114.5 30.5t43.5 80.5q0 40 -27.5 65t-76.5 33l-107 17q-134 21 -134 112q0 55 47 88.5t124 33.5q81 0 134.5 -37.5t58.5 -98.5h-21q-19 116 -171 116q-68 0 -109.5 -28t-41.5 -74q0 -73 114 -92l97 -16q134 -23 134 -121
q0 -58 -49.5 -93.5t-130.5 -35.5q-178 0 -210 141zM241 -219h-20l49 133h21z" />
    <glyph glyph-name="Scaron" unicode="&#x160;" horiz-adv-x="653" 
d="M326 695q109 0 174 -48.5t80 -133.5h-22q-16 78 -75 120t-157 42q-93 0 -149.5 -44t-56.5 -117q0 -53 43.5 -89.5t124.5 -51.5l121 -23q84 -16 129 -59t45 -108q0 -89 -67 -144q-68 -54 -177 -54q-119 0 -188.5 58t-85.5 169h22q33 -207 252 -207q99 0 161 48
q61 49 61 129q0 57 -41 95.5t-116 52.5l-124 24q-88 17 -135.5 58.5t-47.5 103.5q0 80 63 129q64 50 166 50zM469 900l-127 -136h-31l-127 136h26l117 -122l116 122h26z" />
    <glyph glyph-name="scaron" unicode="&#x161;" horiz-adv-x="545" 
d="M70 126h21q33 -121 190 -121q71 0 114.5 30.5t43.5 80.5q0 40 -27.5 65t-76.5 33l-107 17q-134 21 -134 112q0 55 47 88.5t124 33.5q81 0 134.5 -37.5t58.5 -98.5h-21q-19 116 -171 116q-68 0 -109.5 -28t-41.5 -74q0 -73 114 -92l97 -16q134 -23 134 -121
q0 -58 -49.5 -93.5t-130.5 -35.5q-178 0 -210 141zM415 680l-127 -136h-31l-127 136h26l117 -122l116 122h26z" />
    <glyph glyph-name="Tcedilla" unicode="&#x162;" horiz-adv-x="622" 
d="M592 660h-270v-660h-22v660h-270v20h562v-20zM299 -86h21l-50 -133h-20z" />
    <glyph glyph-name="tcedilla" unicode="&#x163;" horiz-adv-x="413" 
d="M353 15l5 -18q-46 -12 -81 -12q-74 0 -105.5 38t-31.5 128v279h-140v20h140v170h21v-170h174v-20h-174v-279q0 -79 26.5 -112.5t89.5 -33.5q35 0 76 10zM244 -86h21l-50 -133h-20z" />
    <glyph glyph-name="Tcaron" unicode="&#x164;" horiz-adv-x="622" 
d="M295 764l-127 136h26l117 -122l116 122h26l-127 -136h-31zM592 660h-270v-660h-22v660h-270v20h562v-20z" />
    <glyph glyph-name="tcaron" unicode="&#x165;" horiz-adv-x="413" 
d="M261 542h-19l14 170h22zM353 15l5 -18q-46 -12 -81 -12q-74 0 -105.5 38t-31.5 128v279h-140v20h140v170h21v-170h174v-20h-174v-279q0 -79 26.5 -112.5t89.5 -33.5q35 0 76 10z" />
    <glyph glyph-name="Umacron" unicode="&#x16a;" horiz-adv-x="766" 
d="M661 680v-404q0 -124 -78 -208q-77 -83 -200 -83q-124 0 -201 83t-77 208v404h22v-404q0 -114 71 -193q70 -78 185 -78t185 78q71 79 71 193v404h22zM520 798v-18h-276v18h276z" />
    <glyph glyph-name="umacron" unicode="&#x16b;" horiz-adv-x="572" 
d="M413 570h-276v18h276v-18zM472 450v-450h-21v72q-32 -41 -83.5 -64t-111.5 -23q-84 0 -135 52t-51 141v272h21v-272q0 -80 45.5 -126.5t119.5 -46.5q60 0 113 27t82 74v344h21z" />
    <glyph glyph-name="Uring" unicode="&#x16e;" horiz-adv-x="766" 
d="M321 924q25 25 62 25t62 -25q25 -24 25 -61t-25 -62q-25 -24 -62 -24t-62 24q-25 25 -25 62t25 61zM451 863q0 28 -20 48t-48 20t-48 -20t-20 -48q0 -29 19.5 -48.5t48.5 -19.5t48.5 19.5t19.5 48.5zM661 680v-404q0 -124 -78 -208q-77 -83 -200 -83q-124 0 -201 83
t-77 208v404h22v-404q0 -114 71 -193q70 -78 185 -78t185 78q71 79 71 193v404h22z" />
    <glyph glyph-name="uring" unicode="&#x16f;" horiz-adv-x="572" 
d="M338 571q-25 -24 -62 -24t-62 24q-25 25 -25 62t25 61q25 25 62 25t62 -25q25 -24 25 -61t-25 -62zM208 633q0 -29 20 -48.5t48 -19.5t48 19.5t20 48.5q0 28 -20 48t-48 20t-48 -20t-20 -48zM472 450v-450h-21v72q-32 -41 -83.5 -64t-111.5 -23q-84 0 -135 52t-51 141
v272h21v-272q0 -80 45.5 -126.5t119.5 -46.5q60 0 113 27t82 74v344h21z" />
    <glyph glyph-name="Uhungarumlaut" unicode="&#x170;" horiz-adv-x="766" 
d="M406 896l-86 -136h-24l86 136h24zM530 896l-87 -136h-23l86 136h24zM661 680v-404q0 -124 -78 -208q-77 -83 -200 -83q-124 0 -201 83t-77 208v404h22v-404q0 -114 71 -193q70 -78 185 -78t185 78q71 79 71 193v404h22z" />
    <glyph glyph-name="uhungarumlaut" unicode="&#x171;" horiz-adv-x="572" 
d="M213 550h-24l86 136h24zM336 550h-23l86 136h24zM472 450v-450h-21v72q-32 -41 -83.5 -64t-111.5 -23q-84 0 -135 52t-51 141v272h21v-272q0 -80 45.5 -126.5t119.5 -46.5q60 0 113 27t82 74v344h21z" />
    <glyph glyph-name="Uogonek" unicode="&#x172;" horiz-adv-x="766" 
d="M661 680v-404q0 -98 -49 -172q-51 -75 -133 -103q-48 -23 -71.5 -47t-23.5 -58q0 -35 26 -55.5t69 -20.5q6 0 28 2l2 -21q-13 -3 -33 -3q-51 0 -82.5 26.5t-31.5 69.5q0 52 53 93q-30 -2 -32 -2q-124 0 -201 83t-77 208v404h22v-404q0 -114 71 -193q70 -78 185 -78
t185 78q71 79 71 193v404h22z" />
    <glyph glyph-name="uogonek" unicode="&#x173;" horiz-adv-x="572" 
d="M495 -181l2 -21q-13 -3 -33 -3q-51 0 -82.5 26.5t-31.5 69.5q0 70 101 123v58q-32 -41 -83.5 -64t-111.5 -23q-84 0 -135 52t-51 141v272h21v-272q0 -80 45.5 -126.5t119.5 -46.5q60 0 113 27t82 74v344h21v-450q-33 -15 -67 -40q-33 -27 -33 -67q0 -35 26 -55.5
t69 -20.5q6 0 28 2z" />
    <glyph glyph-name="Wcircumflex" unicode="&#x174;" horiz-adv-x="1054" 
d="M410 764h-26l127 136h31l127 -136h-26l-116 122zM1004 680l-239 -685h-21l-217 652l-217 -652h-21l-239 685h22l227 -655l217 655h22l217 -654l227 654h22z" />
    <glyph glyph-name="wcircumflex" unicode="&#x175;" horiz-adv-x="767" 
d="M267 544h-26l127 136h31l127 -136h-26l-116 122zM717 450l-171 -450h-23l-140 415l-139 -415h-23l-171 450h23l159 -418l140 418h23l140 -417l159 417h23z" />
    <glyph glyph-name="Ycircumflex" unicode="&#x176;" horiz-adv-x="640" 
d="M203 764h-26l127 136h31l127 -136h-26l-116 122zM620 680l-289 -423v-257h-22v257l-289 423h25l275 -403l275 403h25z" />
    <glyph glyph-name="ycircumflex" unicode="&#x177;" horiz-adv-x="561" 
d="M158 544h-26l127 136h31l127 -136h-26l-116 122zM511 450l-337 -710h-24l108 227l-238 483h24l226 -457l217 457h24z" />
    <glyph glyph-name="Ydieresis" unicode="&#x178;" horiz-adv-x="640" 
d="M255 791q-17 -17 -35 1t-1 35t35 -1t1 -35zM421 791q-17 -17 -35 1t-1 35t35 -1t1 -35zM620 680l-289 -423v-257h-22v257l-289 423h25l275 -403l275 403h25z" />
    <glyph glyph-name="Zacute" unicode="&#x179;" horiz-adv-x="655" 
d="M334 760h-24l87 136h25zM575 663l-470 -643h470v-20h-500v17l472 643h-462v20h490v-17z" />
    <glyph glyph-name="zacute" unicode="&#x17a;" horiz-adv-x="489" 
d="M251 549h-24l87 136h25zM429 433l-340 -413h340v-20h-369v17l339 413h-325v20h355v-17z" />
    <glyph glyph-name="Zdotaccent" unicode="&#x17b;" horiz-adv-x="655" 
d="M575 663l-470 -643h470v-20h-500v17l472 643h-462v20h490v-17zM345 791q-10 -10 -23.5 -5.5t-17 17t5.5 24.5q11 11 25 6.5t17 -17.5t-7 -25z" />
    <glyph glyph-name="zdotaccent" unicode="&#x17c;" horiz-adv-x="489" 
d="M263 601q-17 -17 -35 1t-1 35t35 -1t1 -35zM429 433l-340 -413h340v-20h-369v17l339 413h-325v20h355v-17z" />
    <glyph glyph-name="Zcaron" unicode="&#x17d;" horiz-adv-x="655" 
d="M312 764l-127 136h26l117 -122l116 122h26l-127 -136h-31zM575 663l-470 -643h470v-20h-500v17l472 643h-462v20h490v-17z" />
    <glyph glyph-name="zcaron" unicode="&#x17e;" horiz-adv-x="489" 
d="M229 544l-127 136h26l117 -122l116 122h26l-127 -136h-31zM429 433l-340 -413h340v-20h-369v17l339 413h-325v20h355v-17z" />
    <glyph glyph-name="florin" unicode="&#x192;" horiz-adv-x="425" 
d="M334 665q-98 0 -116 -126l-25 -179h172v-20h-174l-33 -259q-9 -70 -43.5 -108t-93.5 -38q-35 0 -81 12l5 18q41 -10 76 -10q99 0 116 126l33 259h-130v20h132l25 179q21 146 137 146q34 0 81 -12l-5 -18q-41 10 -76 10z" />
    <glyph glyph-name="Acaron" unicode="&#x1cd;" horiz-adv-x="741" 
d="M355 764l-127 136h26l117 -122l116 122h26l-127 -136h-31zM564 244h-387l-113 -244h-24l319 685h23l319 -685h-24zM554 264l-183 395l-184 -395h367z" />
    <glyph glyph-name="acaron" unicode="&#x1ce;" horiz-adv-x="626" 
d="M307 544l-127 136h26l117 -122l116 122h26l-127 -136h-31zM526 450v-450h-21v75q-73 -90 -190 -90q-100 0 -170 70t-70 170q0 99 70 169t170 70q117 0 190 -90v76h21zM315 5q119 0 190 104v231q-71 104 -190 104q-89 0 -154 -65q-64 -64 -64 -154q0 -91 63 -156
q64 -64 155 -64z" />
    <glyph glyph-name="Scommaaccent" unicode="&#x218;" horiz-adv-x="653" 
d="M326 695q109 0 174 -48.5t80 -133.5h-22q-16 78 -75 120t-157 42q-93 0 -149.5 -44t-56.5 -117q0 -53 43.5 -89.5t124.5 -51.5l121 -23q84 -16 129 -59t45 -108q0 -89 -67 -144q-68 -54 -177 -54q-119 0 -188.5 58t-85.5 169h22q33 -207 252 -207q99 0 161 48
q61 49 61 129q0 57 -41 95.5t-116 52.5l-124 24q-88 17 -135.5 58.5t-47.5 103.5q0 80 63 129q64 50 166 50zM289 -227l37 98q-26 0 -26 23q0 25 25 25q10 0 17.5 -7t7.5 -20q0 -11 -43 -119h-18z" />
    <glyph glyph-name="scommaaccent" unicode="&#x219;" horiz-adv-x="545" 
d="M70 126h21q33 -121 190 -121q71 0 114.5 30.5t43.5 80.5q0 40 -27.5 65t-76.5 33l-107 17q-134 21 -134 112q0 55 47 88.5t124 33.5q81 0 134.5 -37.5t58.5 -98.5h-21q-19 116 -171 116q-68 0 -109.5 -28t-41.5 -74q0 -73 114 -92l97 -16q134 -23 134 -121
q0 -58 -49.5 -93.5t-130.5 -35.5q-178 0 -210 141zM225 -227l37 98q-26 0 -26 23q0 25 25 25q10 0 17.5 -7t7.5 -20q0 -11 -43 -119h-18z" />
    <glyph glyph-name="uni021A" unicode="&#x21a;" horiz-adv-x="622" 
d="M592 680v-20h-270v-660h-22v660h-270v20h562zM310 -81q10 0 17.5 -7t7.5 -20q0 -11 -43 -119h-18l37 98q-26 0 -26 23q0 25 25 25z" />
    <glyph glyph-name="uni021B" unicode="&#x21b;" horiz-adv-x="413" 
d="M353 15l5 -18q-46 -12 -81 -12q-74 0 -105.5 38t-31.5 128v279h-140v20h140v170h21v-170h174v-20h-174v-279q0 -79 26.5 -112.5t89.5 -33.5q35 0 76 10zM235 -81q10 0 17.5 -7t7.5 -20q0 -11 -43 -119h-18l37 98q-26 0 -26 23q0 25 25 25z" />
    <glyph glyph-name="circumflex" unicode="&#x2c6;" 
d="M300 696l-117 -122h-26l127 136h31l127 -136h-26z" />
    <glyph glyph-name="caron" unicode="&#x2c7;" 
d="M442 710l-127 -136h-31l-127 136h26l117 -122l116 122h26z" />
    <glyph glyph-name="breve" unicode="&#x2d8;" 
d="M410 685h20q0 -58 -39 -91t-91 -33t-91 33t-39 91h20q0 -48 32.5 -76.5t77.5 -28.5t77.5 28.5t32.5 76.5z" />
    <glyph glyph-name="dotaccent" unicode="&#x2d9;" 
d="M317 581q-10 -10 -23.5 -5.5t-17 17t5.5 24.5q11 11 25 6.5t17 -17.5t-7 -25z" />
    <glyph glyph-name="ring" unicode="&#x2da;" 
d="M238 714q25 25 62 25t62 -25q25 -24 25 -61t-25 -62q-25 -24 -62 -24t-62 24q-25 25 -25 62t25 61zM368 653q0 28 -20 48t-48 20t-48 -20t-20 -48q0 -29 20 -48.5t48 -19.5t48 19.5t20 48.5z" />
    <glyph glyph-name="ogonek" unicode="&#x2db;" 
d="M350 12l10 -19q-33 -15 -67 -40q-33 -27 -33 -67q0 -35 26 -55.5t69 -20.5q6 0 28 2l2 -21q-13 -3 -33 -3q-51 0 -82.5 26.5t-31.5 69.5q0 48 40 82q27 23 72 46z" />
    <glyph glyph-name="tilde" unicode="&#x2dc;" 
d="M407 677h19q0 -54 -41 -69q-39 -13 -81 17l-38 27q-32 23 -61 13q-32 -9 -32 -48h-19q0 35 21 53t49 16.5t52 -18.5l37 -26q36 -25 64 -15q30 11 30 50z" />
    <glyph glyph-name="hungarumlaut" unicode="&#x2dd;" 
d="M333 706l-86 -136h-24l86 136h24zM457 706l-87 -136h-23l86 136h24z" />
    <glyph glyph-name="uni0326" unicode="&#x326;" horiz-adv-x="0" 
d="M247 -227l37 98q-26 0 -26 23q0 25 25 25q10 0 17.5 -7t7.5 -20q0 -11 -43 -119h-18z" />
    <glyph glyph-name="Wgrave" unicode="&#x1e80;" horiz-adv-x="1054" 
d="M522 760l-88 136h25l87 -136h-24zM1004 680l-239 -685h-21l-217 652l-217 -652h-21l-239 685h22l227 -655l217 655h22l217 -654l227 654h22z" />
    <glyph glyph-name="wgrave" unicode="&#x1e81;" horiz-adv-x="767" 
d="M379 550l-88 136h25l87 -136h-24zM717 450l-171 -450h-23l-140 415l-139 -415h-23l-171 450h23l159 -418l140 418h23l140 -417l159 417h23z" />
    <glyph glyph-name="Wacute" unicode="&#x1e82;" horiz-adv-x="1054" 
d="M533 760h-24l87 136h25zM1004 680l-239 -685h-21l-217 652l-217 -652h-21l-239 685h22l227 -655l217 655h22l217 -654l227 654h22z" />
    <glyph glyph-name="wacute" unicode="&#x1e83;" horiz-adv-x="767" 
d="M390 549h-24l87 136h25zM717 450l-171 -450h-23l-140 415l-139 -415h-23l-171 450h23l159 -418l140 418h23l140 -417l159 417h23z" />
    <glyph glyph-name="Wdieresis" unicode="&#x1e84;" horiz-adv-x="1054" 
d="M1004 680l-239 -685h-21l-217 652l-217 -652h-21l-239 685h22l227 -655l217 655h22l217 -654l227 654h22zM461 791q-10 -10 -23.5 -5.5t-17 17t5.5 24.5q11 11 25 6.5t17 -17.5t-7 -25zM627 791q-10 -10 -23.5 -5.5t-17 17t5.5 24.5q11 11 25 6.5t17 -17.5t-7 -25z" />
    <glyph glyph-name="wdieresis" unicode="&#x1e85;" horiz-adv-x="767" 
d="M319 601q-17 -17 -35 1t-1 35t35 -1t1 -35zM485 601q-17 -17 -35 1t-1 35t35 -1t1 -35zM717 450l-171 -450h-23l-140 415l-139 -415h-23l-171 450h23l159 -418l140 418h23l140 -417l159 417h23z" />
    <glyph glyph-name="Ygrave" unicode="&#x1ef2;" horiz-adv-x="640" 
d="M315 760l-88 136h25l87 -136h-24zM620 680l-289 -423v-257h-22v257l-289 423h25l275 -403l275 403h25z" />
    <glyph glyph-name="ygrave" unicode="&#x1ef3;" horiz-adv-x="561" 
d="M270 550l-88 136h25l87 -136h-24zM511 450l-337 -710h-24l108 227l-238 483h24l226 -457l217 457h24z" />
    <glyph glyph-name="endash" unicode="&#x2013;" horiz-adv-x="757" 
d="M627 291v-21h-497v21h497z" />
    <glyph glyph-name="emdash" unicode="&#x2014;" horiz-adv-x="870" 
d="M790 291v-21h-710v21h710z" />
    <glyph glyph-name="quoteleft" unicode="&#x2018;" horiz-adv-x="158" 
d="M108 680l-50 -155q18 -3 18 -20q0 -14 -11.5 -20t-23 0t-11.5 20q0 9 6 27l54 148h18z" />
    <glyph glyph-name="quoteright" unicode="&#x2019;" horiz-adv-x="178" 
d="M50 485l50 155q-18 3 -18 20q0 22 23 22t23 -22q0 -9 -6 -27l-54 -148h-18z" />
    <glyph glyph-name="quotesinglbase" unicode="&#x201a;" horiz-adv-x="178" 
d="M50 -160l50 155q-18 3 -18 20q0 14 11.5 20t23 0t11.5 -20q0 -9 -6 -27l-54 -148h-18z" />
    <glyph glyph-name="quotedblleft" unicode="&#x201c;" horiz-adv-x="318" 
d="M128 680l-50 -155q18 -3 18 -20q0 -14 -11.5 -20t-23 0t-11.5 20q0 9 6 27l54 148h18zM268 680l-50 -155q18 -3 18 -20q0 -14 -11.5 -20t-23 0t-11.5 20q0 9 6 27l54 148h18z" />
    <glyph glyph-name="quotedblright" unicode="&#x201d;" horiz-adv-x="319" 
d="M50 485l50 155q-18 3 -18 20q0 22 23 22t23 -22q0 -9 -6 -27l-54 -148h-18zM191 485l50 155q-18 3 -18 20q0 22 23 22t23 -22q0 -9 -6 -27l-54 -148h-18z" />
    <glyph glyph-name="quotedblbase" unicode="&#x201e;" horiz-adv-x="319" 
d="M50 -160l50 155q-18 3 -18 20q0 14 11.5 20t23 0t11.5 -20q0 -9 -6 -27l-54 -148h-18zM191 -160l50 155q-18 3 -18 20q0 14 11.5 20t23 0t11.5 -20q0 -9 -6 -27l-54 -148h-18z" />
    <glyph glyph-name="dagger" unicode="&#x2020;" horiz-adv-x="404" 
d="M212 576v-222h-21v222h-131v21h131v131h21v-131h132v-21h-132z" />
    <glyph glyph-name="daggerdbl" unicode="&#x2021;" horiz-adv-x="404" 
d="M212 497h132v-21h-132v-122h-21v122h-131v21h131v99h-131v21h131v111h21v-111h132v-21h-132v-99z" />
    <glyph glyph-name="bullet" unicode="&#x2022;" horiz-adv-x="305" 
d="M152 200q-39 0 -68 29t-29 68t29 68t68 29q40 0 69 -29t29 -68t-29 -68t-69 -29z" />
    <glyph glyph-name="ellipsis" unicode="&#x2026;" horiz-adv-x="489" 
d="M89 -1q-9 -11 -21.5 -6.5t-16 16t4.5 22.5q10 10 23 5.5t16 -16t-6 -21.5zM259 -1q-9 -11 -21.5 -6.5t-16 16t4.5 22.5q10 10 23 5.5t16 -16t-6 -21.5zM432 -1q-9 -11 -21.5 -6.5t-16 16t4.5 22.5q10 10 23 5.5t16 -16t-6 -21.5z" />
    <glyph glyph-name="perthousand" unicode="&#x2030;" horiz-adv-x="1523" 
d="M151 642q53 53 128 53q76 0 127 -53q52 -52 52 -131q0 -80 -52 -132q-51 -52 -127 -52t-128 52q-51 53 -51 132t51 131zM329 0h-24l444 680h24zM167 395q46 -46 112 -46t112 46t46 116t-46 116q-47 47 -112 47t-112 -47q-46 -46 -46 -116t46 -116zM676 300q53 53 128 53
q76 0 127 -53q52 -52 52 -131q0 -80 -52 -132q-51 -52 -127 -52t-128 52q-51 53 -51 132q0 78 51 131zM1116 300q53 53 128 53q76 0 127 -53q52 -52 52 -131q0 -80 -52 -132q-51 -52 -127 -52t-128 52q-51 53 -51 132q0 78 51 131zM692 53q46 -46 112 -46t112 46t46 116
t-46 116q-47 47 -112 47t-112 -47q-46 -46 -46 -116t46 -116zM1132 53q46 -46 112 -46t112 46t46 116t-46 116q-47 47 -112 47t-112 -47q-46 -46 -46 -116t46 -116z" />
    <glyph glyph-name="guilsinglleft" unicode="&#x2039;" horiz-adv-x="267" 
d="M207 396l-122 -144l122 -144h-25l-122 144l122 144h25z" />
    <glyph glyph-name="guilsinglright" unicode="&#x203a;" horiz-adv-x="267" 
d="M207 252l-122 -144h-25l122 144l-122 144h25z" />
    <glyph glyph-name="fraction" unicode="&#x2044;" horiz-adv-x="408" 
d="M-6 0h-24l444 680h24z" />
    <glyph glyph-name="zerosuperior" unicode="&#x2070;" horiz-adv-x="422" 
d="M211 691q74 0 118 -53q43 -52 43 -135t-43 -135q-44 -53 -118 -53t-118 53q-43 52 -43 135t43 135q44 53 118 53zM109 382q38 -47 102 -47q63 0 101 47q38 49 38 121t-38 121q-38 48 -101 48q-65 0 -102 -48q-37 -47 -37 -121t37 -121z" />
    <glyph glyph-name="foursuperior" unicode="&#x2074;" horiz-adv-x="388" 
d="M358 406h-67v-83h-20v83h-211v14l121 263h22l-116 -257h184v122h20v-122h67v-20z" />
    <glyph glyph-name="fivesuperior" unicode="&#x2075;" horiz-adv-x="365" 
d="M90 540h91q59 0 94 -30t35 -78q0 -51 -37.5 -84t-96.5 -33q-57 0 -94 27.5t-47 75.5h22q8 -40 39 -62t80 -22q48 0 80.5 28.5t32.5 69.5q0 40 -29.5 65t-79.5 24l-90 -1h-20v163h219v-19h-199v-124z" />
    <glyph glyph-name="sixsuperior" unicode="&#x2076;" horiz-adv-x="358" 
d="M177 561q60 0 98 -34t38 -88q0 -55 -38.5 -89.5t-97.5 -34.5q-60 0 -98.5 35t-38.5 89q0 43 28 79l130 165h26l-102 -132q24 10 55 10zM177 334q49 0 81.5 29.5t32.5 74.5t-32.5 74t-81.5 29q-62 0 -87 -31l-4 -5q-24 -29 -24 -67q0 -46 32.5 -75t82.5 -29z" />
    <glyph glyph-name="sevensuperior" unicode="&#x2077;" horiz-adv-x="291" 
d="M276 683v-13l-187 -347h-25l183 340h-227v20h256z" />
    <glyph glyph-name="eightsuperior" unicode="&#x2078;" horiz-adv-x="377" 
d="M243 514q39 -11 61.5 -35.5t22.5 -57.5q0 -47 -38 -76.5t-101 -29.5q-62 0 -100 29.5t-38 76.5q0 33 22.5 57.5t61.5 35.5q-67 19 -67 82q0 41 34.5 68t86.5 27q53 0 88 -27t35 -68q0 -62 -68 -82zM88 595q0 -35 27.5 -55t72.5 -20q46 0 73.5 20t27.5 55q0 33 -28.5 55.5
t-72.5 22.5q-43 0 -71.5 -22.5t-28.5 -55.5zM304 422q0 37 -32 60t-84 23t-83.5 -23t-31.5 -60q0 -39 31.5 -63.5t83.5 -24.5t84 24.5t32 63.5z" />
    <glyph glyph-name="ninesuperior" unicode="&#x2079;" horiz-adv-x="358" 
d="M181 699q60 0 98.5 -35t38.5 -89q0 -43 -28 -79l-130 -165h-26l102 132q-24 -10 -55 -10q-60 0 -98 34t-38 88q0 55 38.5 89.5t97.5 34.5zM268 504l4 5q24 29 24 67q0 46 -32.5 75t-82.5 29q-49 0 -81.5 -29.5t-32.5 -74.5t32.5 -74t81.5 -29q62 0 87 31z" />
    <glyph glyph-name="zeroinferior" unicode="&#x2080;" horiz-adv-x="422" 
d="M221 188q74 0 118 -53q43 -52 43 -135t-43 -135q-44 -53 -118 -53t-118 53q-43 52 -43 135t43 135q44 53 118 53zM119 -121q38 -47 102 -47q63 0 101 47q38 49 38 121t-38 121q-37 48 -101 48q-65 0 -102 -48q-37 -47 -37 -121t37 -121z" />
    <glyph glyph-name="oneinferior" unicode="&#x2081;" horiz-adv-x="288" 
d="M268 -161v-19h-238v19h114v308l-106 -29v20l116 32h11v-331h103z" />
    <glyph glyph-name="twoinferior" unicode="&#x2082;" horiz-adv-x="353" 
d="M303 -161v-19h-245v12l126 118q52 48 70.5 74t18.5 57q0 39 -27 63.5t-72 24.5q-42 0 -68 -22t-30 -59h-21q4 46 35.5 73t82.5 27q54 0 87.5 -30t33.5 -76q0 -34 -20 -63t-73 -80l-106 -100h208z" />
    <glyph glyph-name="threeinferior" unicode="&#x2083;" horiz-adv-x="364" 
d="M239 3q70 -22 70 -90q0 -44 -35 -71.5t-93 -27.5q-55 0 -90.5 24t-40.5 65h22q5 -32 34.5 -51t75.5 -19q47 0 76.5 22t29.5 58t-27.5 58t-71.5 22h-33v18h33q39 0 63.5 21.5t24.5 56.5q0 36 -26.5 58t-71.5 22q-41 0 -66.5 -18.5t-30.5 -50.5h-21q5 40 36 64t81 24
q54 0 86.5 -27t32.5 -72q0 -64 -58 -86z" />
    <glyph glyph-name="fourinferior" unicode="&#x2084;" horiz-adv-x="388" 
d="M358 -97h-67v-83h-20v83h-211v14l121 263h22l-116 -257h184v122h20v-122h67v-20z" />
    <glyph glyph-name="fiveinferior" unicode="&#x2085;" horiz-adv-x="365" 
d="M90 37h91q59 0 94 -30t35 -78q0 -51 -37.5 -84t-96.5 -33q-57 0 -94 27.5t-47 75.5h22q8 -40 39 -62t80 -22q48 0 80.5 28.5t32.5 69.5q0 40 -29.5 65t-79.5 24l-90 -1h-20v163h219v-19h-199v-124z" />
    <glyph glyph-name="sixinferior" unicode="&#x2086;" horiz-adv-x="358" 
d="M177 58q60 0 98 -34t38 -88q0 -55 -38.5 -89.5t-97.5 -34.5q-60 0 -98.5 35t-38.5 89q0 43 28 79l130 165h26l-102 -132q24 10 55 10zM177 -169q49 0 81.5 29.5t32.5 74.5t-32.5 74t-81.5 29q-62 0 -87 -31l-4 -5q-24 -29 -24 -67q0 -46 32.5 -75t82.5 -29z" />
    <glyph glyph-name="seveninferior" unicode="&#x2087;" horiz-adv-x="291" 
d="M276 180v-13l-187 -347h-25l183 340h-227v20h256z" />
    <glyph glyph-name="eightinferior" unicode="&#x2088;" horiz-adv-x="377" 
d="M243 11q39 -11 61.5 -35.5t22.5 -57.5q0 -47 -38 -76.5t-101 -29.5q-62 0 -100 29.5t-38 76.5q0 33 22.5 57.5t61.5 35.5q-67 19 -67 82q0 41 34.5 68t86.5 27q53 0 88 -27t35 -68q0 -62 -68 -82zM88 92q0 -35 27.5 -55t72.5 -20q46 0 73.5 20t27.5 55q0 33 -28.5 55.5
t-72.5 22.5q-43 0 -71.5 -22.5t-28.5 -55.5zM304 -81q0 37 -32 60t-84 23t-83.5 -23t-31.5 -60q0 -39 31.5 -63.5t83.5 -24.5t84 24.5t32 63.5z" />
    <glyph glyph-name="nineinferior" unicode="&#x2089;" horiz-adv-x="358" 
d="M181 189q60 0 98.5 -35t38.5 -89q0 -43 -28 -79l-130 -165h-26l102 132q-24 -10 -55 -10q-60 0 -98 34t-38 88q0 55 38.5 89.5t97.5 34.5zM268 -6l4 5q24 29 24 67q0 46 -32.5 75t-82.5 29q-49 0 -81.5 -29.5t-32.5 -74.5t32.5 -74t81.5 -29q62 0 87 31z" />
    <glyph glyph-name="Euro" unicode="&#x20ac;" horiz-adv-x="904" 
d="M513 7q109 0 189 57q79 58 103 150h24q-25 -100 -112 -165q-85 -63 -204 -63q-122 0 -216 73q-93 73 -125 187h-127v20h123q-8 40 -8 74q0 35 4 56h-119v20h123q27 121 123 199q95 79 222 79q119 0 204 -64q87 -64 112 -164h-24q-24 93 -103 149q-79 58 -189 58
q-118 0 -207 -73q-90 -73 -115 -184h382l-5 -20h-381q-5 -33 -5 -56q0 -34 8 -74h345l-5 -20h-335q30 -105 118 -172t200 -67z" />
    <glyph glyph-name="uni2116" unicode="&#x2116;" horiz-adv-x="1411" 
d="M645 680h22v-680h-28l-502 652v-652h-22v680h27l503 -652v652zM1057 125q-100 0 -170 70t-70 170q0 99 70 169t170 70q99 0 169 -70t70 -169q0 -100 -70 -170t-169 -70zM839 365q0 -91 63 -156q64 -64 155 -64q90 0 153 64q64 64 64 156q0 90 -64 154q-63 65 -153 65
q-89 0 -154 -65q-64 -64 -64 -154zM830 20h454v-20h-454v20z" />
    <glyph glyph-name="uni2117" unicode="&#x2117;" horiz-adv-x="878" 
d="M182 593q106 102 257 102t257 -102q107 -102 107 -253t-107 -253q-106 -102 -257 -102t-257 102q-107 102 -107 253t107 253zM681 578q-103 98 -242 98t-242 -98q-101 -98 -101 -238q0 -141 101 -239q101 -97 242 -97t242 97q102 98 102 239q0 140 -102 238zM326 537h132
q68 0 110 -33.5t42 -88.5t-42 -88t-110 -33h-112v-151h-20v394zM346 519v-207h112q59 0 95.5 28.5t36.5 74.5q0 47 -36.5 75.5t-95.5 28.5h-112z" />
    <glyph glyph-name="trademark" unicode="&#x2122;" horiz-adv-x="671" 
d="M270 679v-16h-116v-276h-18v276h-116v16h250zM616 679v-292h-18v257l-123 -213h-10l-124 214l1 -258h-18v292h19l127 -219l127 219h19z" />
    <glyph glyph-name="oneeighth" unicode="&#x215b;" horiz-adv-x="848" 
d="M640 680l-444 -680h-24l444 680h24zM268 322h-238v19h114v308l-106 -29v20l116 32h11v-331h103v-19zM714 191q39 -11 61.5 -35.5t22.5 -57.5q0 -47 -38 -76.5t-101 -29.5q-62 0 -100 29.5t-38 76.5q0 33 22.5 57.5t61.5 35.5q-67 19 -67 82q0 41 34.5 68t86.5 27
q53 0 88 -27t35 -68q0 -62 -68 -82zM559 272q0 -35 27.5 -55t72.5 -20q46 0 73.5 20t27.5 55q0 33 -28.5 55.5t-72.5 22.5q-43 0 -71.5 -22.5t-28.5 -55.5zM775 99q0 37 -32 60t-84 23t-83.5 -23t-31.5 -60q0 -39 31.5 -63.5t83.5 -24.5t84 24.5t32 63.5z" />
    <glyph glyph-name="threeeighths" unicode="&#x215c;" horiz-adv-x="850" 
d="M309 419q0 -44 -35 -71.5t-93 -27.5q-55 0 -90.5 24t-40.5 65h22q5 -32 34.5 -51t75.5 -19q47 0 76.5 22t29.5 58t-27.5 58t-71.5 22h-33v18h33q39 0 63.5 21.5t24.5 56.5q0 36 -26.5 58t-71.5 22q-41 0 -66.5 -18.5t-30.5 -50.5h-21q5 40 36 64t81 24q54 0 86.5 -27
t32.5 -72q0 -64 -58 -86q70 -22 70 -90zM642 680l-444 -680h-24l444 680h24zM716 191q39 -11 61.5 -35.5t22.5 -57.5q0 -47 -38 -76.5t-101 -29.5q-62 0 -100 29.5t-38 76.5q0 33 22.5 57.5t61.5 35.5q-67 19 -67 82q0 41 34.5 68t86.5 27q53 0 88 -27t35 -68q0 -62 -68 -82
zM561 272q0 -35 27.5 -55t72.5 -20q46 0 73.5 20t27.5 55q0 33 -28.5 55.5t-72.5 22.5q-43 0 -71.5 -22.5t-28.5 -55.5zM777 99q0 37 -32 60t-84 23t-83.5 -23t-31.5 -60q0 -39 31.5 -63.5t83.5 -24.5t84 24.5t32 63.5z" />
    <glyph glyph-name="fiveeighths" unicode="&#x215d;" horiz-adv-x="850" 
d="M310 431q0 -51 -37.5 -84t-96.5 -33q-57 0 -94 27.5t-47 75.5h22q8 -40 39 -62t80 -22q48 0 80.5 28.5t32.5 69.5q0 40 -29.5 65t-79.5 24l-90 -1h-20v163h219v-19h-199v-124h91q59 0 94 -30t35 -78zM642 680l-444 -680h-24l444 680h24zM716 191q39 -11 61.5 -35.5
t22.5 -57.5q0 -47 -38 -76.5t-101 -29.5q-62 0 -100 29.5t-38 76.5q0 33 22.5 57.5t61.5 35.5q-67 19 -67 82q0 41 34.5 68t86.5 27q53 0 88 -27t35 -68q0 -62 -68 -82zM561 272q0 -35 27.5 -55t72.5 -20q46 0 73.5 20t27.5 55q0 33 -28.5 55.5t-72.5 22.5
q-43 0 -71.5 -22.5t-28.5 -55.5zM777 99q0 37 -32 60t-84 23t-83.5 -23t-31.5 -60q0 -39 31.5 -63.5t83.5 -24.5t84 24.5t32 63.5z" />
    <glyph glyph-name="seveneighths" unicode="&#x215e;" horiz-adv-x="760" 
d="M64 322l183 340h-227v20h256v-13l-187 -347h-25zM552 680l-444 -680h-24l444 680h24zM626 191q39 -11 61.5 -35.5t22.5 -57.5q0 -47 -38 -76.5t-101 -29.5q-62 0 -100 29.5t-38 76.5q0 33 22.5 57.5t61.5 35.5q-67 19 -67 82q0 41 34.5 68t86.5 27q53 0 88 -27t35 -68
q0 -62 -68 -82zM471 272q0 -35 27.5 -55t72.5 -20q46 0 73.5 20t27.5 55q0 33 -28.5 55.5t-72.5 22.5q-43 0 -71.5 -22.5t-28.5 -55.5zM687 99q0 37 -32 60t-84 23t-83.5 -23t-31.5 -60q0 -39 31.5 -63.5t83.5 -24.5t84 24.5t32 63.5z" />
    <glyph glyph-name="arrowleft" unicode="&#x2190;" horiz-adv-x="766" 
d="M73 332l324 -324l-15 -14l-348 348l348 348l15 -14l-324 -324h653v-20h-653z" />
    <glyph glyph-name="arrowup" unicode="&#x2191;" horiz-adv-x="786" 
d="M383 653l-324 -324l-14 15l348 348l348 -348l-14 -15l-324 324v-653h-20v653z" />
    <glyph glyph-name="arrowright" unicode="&#x2192;" horiz-adv-x="766" 
d="M40 352h653l-324 324l15 14l348 -348l-348 -348l-15 14l324 324h-653v20z" />
    <glyph glyph-name="arrowdown" unicode="&#x2193;" horiz-adv-x="786" 
d="M403 680v-653l324 324l14 -15l-348 -348l-348 348l14 15l324 -324v653h20z" />
    <glyph glyph-name="arrowupleft" unicode="&#x2196;" horiz-adv-x="823" 
d="M759 -3l-648 648v-458l-21 1v492h492l1 -21h-458l648 -648z" />
    <glyph glyph-name="arrowupright" unicode="&#x2197;" horiz-adv-x="863" 
d="M738 659h-458l1 21h492v-492l-21 -1v458l-648 -648l-14 14z" />
    <glyph glyph-name="arrowdownright" unicode="&#x2198;" horiz-adv-x="823" 
d="M64 683l648 -648v458l21 -1v-492h-492l-1 21h458l-648 648z" />
    <glyph glyph-name="arrowdownleft" unicode="&#x2199;" horiz-adv-x="798" 
d="M125 21h458l-1 -21h-492v492l21 1v-458l648 648l14 -14z" />
    <glyph glyph-name="minus" unicode="&#x2212;" horiz-adv-x="702" 
d="M130 326h442v-21h-442v21z" />
    <glyph glyph-name="fi" unicode="&#xfb01;" horiz-adv-x="624" 
d="M502 450v-450h-21v430h-320v-430h-21v430h-137v20h137v139q0 78 42.5 122t114.5 44q48 0 81 -9l28 -8l32 -10l-5 -18l-37 11q-1 0 -8.5 2.5t-15 4.5t-11.5 2q-35 5 -64 5q-63 0 -99.5 -38.5t-36.5 -107.5v-139h341z" />
    <glyph glyph-name="fl" unicode="&#xfb02;" horiz-adv-x="579" 
d="M140 450v159q0 66 37.5 106t99.5 40q35 0 81 -12l-5 -18q-41 10 -76 10q-52 0 -84 -34.5t-32 -91.5v-159h167v-20h-167v-430h-21v430h-137v20h137zM479 710v-710h-21v710h21z" />
    <glyph glyph-name="NULL" horiz-adv-x="0" 
 />
    <glyph glyph-name="CR" horiz-adv-x="333" 
 />
    <glyph glyph-name="R.ss02" horiz-adv-x="671" 
d="M183 270h-46v-270h-22v680h228q116 0 184 -55q69 -54 69 -150q0 -95 -69 -151q-69 -54 -184 -54h-123l401 -270h-38zM137 290h206q106 0 168 49.5t62 135.5t-62 135.5t-168 49.5h-206v-370z" />
    <glyph glyph-name="Racute.ss02" horiz-adv-x="671" 
d="M332 760h-24l87 136h25zM183 270h-46v-270h-22v680h228q116 0 184 -55q69 -54 69 -150q0 -95 -69 -151q-69 -54 -184 -54h-123l401 -270h-38zM137 290h206q106 0 168 49.5t62 135.5t-62 135.5t-168 49.5h-206v-370z" />
    <glyph glyph-name="Rcaron.ss02" horiz-adv-x="671" 
d="M310 764l-127 136h26l117 -122l116 122h26l-127 -136h-31zM183 270h-46v-270h-22v680h228q116 0 184 -55q69 -54 69 -150q0 -95 -69 -151q-69 -54 -184 -54h-123l401 -270h-38zM137 290h206q106 0 168 49.5t62 135.5t-62 135.5t-168 49.5h-206v-370z" />
    <glyph glyph-name="Rcommaaccent.ss02" horiz-adv-x="671" 
d="M621 0h-38l-400 270h-46v-270h-22v680h228q116 0 184 -55q69 -54 69 -150q0 -95 -69 -151q-69 -54 -184 -54h-123zM137 290h206q106 0 168 49.5t62 135.5t-62 135.5t-168 49.5h-206v-370zM324 -81q10 0 17.5 -7t7.5 -20q0 -11 -43 -119h-18l37 98q-26 0 -26 23
q0 25 25 25z" />
    <glyph glyph-name="Q.ss03" horiz-adv-x="858" 
d="M178 590q104 104 251 104q146 0 250 -104t104 -250q0 -147 -104 -251q-103 -103 -250 -103q-148 0 -251 103t-103 251q0 147 103 250zM194 104q97 -97 235 -97t235 97t97 236q0 138 -97 235q-98 98 -235 98t-235 -98q-97 -97 -97 -235q0 -139 97 -236zM707 -186l-5 -23
q-126 32 -323 93l4 17z" />
    <glyph glyph-name="i.loclTRK" horiz-adv-x="266" 
d="M149 612q-15 -15 -31.5 1.5t-1.5 31.5q16 17 33 0t0 -33zM144 450v-450h-21v450h21z" />
    <glyph glyph-name="germandbls.case" horiz-adv-x="1306" 
d="M326 695q109 0 174 -48.5t80 -133.5h-22q-16 78 -75 120t-157 42q-93 0 -149.5 -44t-56.5 -117q0 -53 43.5 -89.5t124.5 -51.5l121 -23q84 -16 129 -59t45 -108q0 -89 -67 -144q-68 -54 -177 -54q-119 0 -188.5 58t-85.5 169h22q33 -207 252 -207q99 0 161 48
q61 49 61 129q0 57 -41 95.5t-116 52.5l-124 24q-88 17 -135.5 58.5t-47.5 103.5q0 80 63 129q64 50 166 50zM979 695q109 0 174 -48.5t80 -133.5h-22q-16 78 -75 120t-157 42q-93 0 -149.5 -44t-56.5 -117q0 -53 43.5 -89.5t124.5 -51.5l121 -23q84 -16 129 -59t45 -108
q0 -89 -67 -144q-67 -54 -177 -54q-119 0 -188.5 58t-85.5 169h22q33 -207 252 -207q100 0 161 48q61 49 61 129q0 57 -41 95.5t-116 52.5l-124 24q-88 17 -135.5 58.5t-47.5 103.5q0 80 63 129q64 50 166 50z" />
    <glyph glyph-name="l.ss01" horiz-adv-x="348" 
d="M131 710v-599q0 -106 86 -106q25 0 77 11l4 -19q-46 -12 -81 -12q-107 0 -107 126v599h21z" />
    <glyph glyph-name="lacute.ss01" horiz-adv-x="348" 
d="M223 945l-88 -136h-24l87 136h25zM131 710v-599q0 -106 86 -106q25 0 77 11l4 -19q-46 -12 -81 -12q-107 0 -107 126v599h21z" />
    <glyph glyph-name="lcaron.ss01" horiz-adv-x="348" 
d="M253 710l-17 -170h-19l14 170h22zM131 710v-599q0 -106 86 -106q25 0 77 11l4 -19q-46 -12 -81 -12q-107 0 -107 126v599h21z" />
    <glyph glyph-name="lcommaaccent.ss01" horiz-adv-x="348" 
d="M156 -227l37 98q-26 0 -26 23q0 25 25 25q10 0 17.5 -7t7.5 -20q0 -11 -43 -119h-18zM131 710v-599q0 -106 86 -106q25 0 77 11l4 -19q-46 -12 -81 -12q-107 0 -107 126v599h21z" />
    <glyph glyph-name="ldot.ss01" horiz-adv-x="348" 
d="M131 710v-599q0 -106 86 -106q25 0 77 11l4 -19q-46 -12 -81 -12q-107 0 -107 126v599h21zM289 287q-10 -10 -23.5 -5.5t-17 17t5.5 24.5q11 11 25 6.5t17 -17.5t-7 -25z" />
    <glyph glyph-name="lslash.ss01" horiz-adv-x="348" 
d="M294 16l4 -19q-46 -12 -81 -12q-107 0 -107 126v218l-75 -45v25l75 45v356h21v-343l84 51v-25l-84 -51v-231q0 -106 86 -106q25 0 77 11z" />
    <glyph glyph-name="y.ss04" horiz-adv-x="586" 
d="M486 450v-500q0 -91 -55 -145t-148 -54q-80 0 -136 40t-72 106h23q15 -57 64.5 -91.5t120.5 -34.5q84 0 133 48t49 131v122q-30 -41 -81 -64t-106 -23q-90 0 -142 51.5t-52 141.5v272h21v-272q0 -81 46 -127t127 -46q58 0 109 27t78 74v344h21z" />
    <glyph glyph-name="yacute.ss04" horiz-adv-x="586" 
d="M294 549h-24l87 136h25zM486 450v-500q0 -91 -55 -145t-148 -54q-80 0 -136 40t-72 106h23q15 -57 64.5 -91.5t120.5 -34.5q84 0 133 48t49 131v122q-30 -41 -81 -64t-106 -23q-90 0 -142 51.5t-52 141.5v272h21v-272q0 -81 46 -127t127 -46q58 0 109 27t78 74v344h21z
" />
    <glyph glyph-name="ycircumflex.ss04" horiz-adv-x="586" 
d="M171 544h-26l127 136h31l127 -136h-26l-116 122zM486 450v-500q0 -91 -55 -145t-148 -54q-80 0 -136 40t-72 106h23q15 -57 64.5 -91.5t120.5 -34.5q84 0 133 48t49 131v122q-30 -41 -81 -64t-106 -23q-90 0 -142 51.5t-52 141.5v272h21v-272q0 -81 46 -127t127 -46
q58 0 109 27t78 74v344h21z" />
    <glyph glyph-name="ydieresis.ss04" horiz-adv-x="586" 
d="M223 601q-17 -17 -35 1t-1 35t35 -1t1 -35zM389 601q-17 -17 -35 1t-1 35t35 -1t1 -35zM486 450v-500q0 -91 -55 -145t-148 -54q-80 0 -136 40t-72 106h23q15 -57 64.5 -91.5t120.5 -34.5q84 0 133 48t49 131v122q-30 -41 -81 -64t-106 -23q-90 0 -142 51.5t-52 141.5
v272h21v-272q0 -81 46 -127t127 -46q58 0 109 27t78 74v344h21z" />
    <glyph glyph-name="ygrave.ss04" horiz-adv-x="586" 
d="M283 550l-88 136h25l87 -136h-24zM486 450v-500q0 -91 -55 -145t-148 -54q-80 0 -136 40t-72 106h23q15 -57 64.5 -91.5t120.5 -34.5q84 0 133 48t49 131v122q-30 -41 -81 -64t-106 -23q-90 0 -142 51.5t-52 141.5v272h21v-272q0 -81 46 -127t127 -46q58 0 109 27t78 74
v344h21z" />
    <glyph glyph-name="a.ss06" horiz-adv-x="545" 
d="M287 456q188 0 188 -209v-247h-22v62q-83 -77 -201 -77q-82 0 -132 38t-50 101q0 56 42 89.5t117 33.5h224q0 95 -40 142t-126 47q-63 0 -108 -26.5t-55 -69.5h-24q12 52 63.5 84t123.5 32zM254 7q118 0 199 84v136h-224q-65 0 -101 -28.5t-36 -74.5q0 -53 45 -85
t117 -32z" />
    <glyph glyph-name="aacute.ss06" horiz-adv-x="545" 
d="M297 549h-24l87 136h25zM287 456q188 0 188 -209v-247h-22v62q-83 -77 -201 -77q-82 0 -132 38t-50 101q0 56 42 89.5t117 33.5h224q0 95 -40 142t-126 47q-63 0 -108 -26.5t-55 -69.5h-24q12 52 63.5 84t123.5 32zM254 7q118 0 199 84v136h-224q-65 0 -101 -28.5
t-36 -74.5q0 -53 45 -85t117 -32z" />
    <glyph glyph-name="abreve.ss06" horiz-adv-x="545" 
d="M161 665h20q0 -48 32.5 -76.5t77.5 -28.5t77.5 28.5t32.5 76.5h20q0 -58 -39 -91t-91 -33t-91 33t-39 91zM287 456q188 0 188 -209v-247h-22v62q-83 -77 -201 -77q-82 0 -132 38t-50 101q0 56 42 89.5t117 33.5h224q0 95 -40 142t-126 47q-63 0 -108 -26.5t-55 -69.5h-24
q12 52 63.5 84t123.5 32zM254 7q118 0 199 84v136h-224q-65 0 -101 -28.5t-36 -74.5q0 -53 45 -85t117 -32z" />
    <glyph glyph-name="acaron.ss06" horiz-adv-x="545" 
d="M275 544l-127 136h26l117 -122l116 122h26l-127 -136h-31zM287 456q188 0 188 -209v-247h-22v62q-83 -77 -201 -77q-82 0 -132 38t-50 101q0 56 42 89.5t117 33.5h224q0 95 -40 142t-126 47q-63 0 -108 -26.5t-55 -69.5h-24q12 52 63.5 84t123.5 32zM254 7q118 0 199 84
v136h-224q-65 0 -101 -28.5t-36 -74.5q0 -53 45 -85t117 -32z" />
    <glyph glyph-name="acircumflex.ss06" horiz-adv-x="545" 
d="M174 544h-26l127 136h31l127 -136h-26l-116 122zM287 456q188 0 188 -209v-247h-22v62q-83 -77 -201 -77q-82 0 -132 38t-50 101q0 56 42 89.5t117 33.5h224q0 95 -40 142t-126 47q-63 0 -108 -26.5t-55 -69.5h-24q12 52 63.5 84t123.5 32zM254 7q118 0 199 84v136h-224
q-65 0 -101 -28.5t-36 -74.5q0 -53 45 -85t117 -32z" />
    <glyph glyph-name="adieresis.ss06" horiz-adv-x="545" 
d="M287 456q188 0 188 -209v-247h-22v62q-83 -77 -201 -77q-82 0 -132 38t-50 101q0 56 42 89.5t117 33.5h224q0 95 -40 142t-126 47q-63 0 -108 -26.5t-55 -69.5h-24q12 52 63.5 84t123.5 32zM254 7q118 0 199 84v136h-224q-65 0 -101 -28.5t-36 -74.5q0 -53 45 -85
t117 -32zM225 601q-10 -10 -23.5 -5.5t-17 17t5.5 24.5q11 11 25 6.5t17 -17.5t-7 -25zM391 601q-10 -10 -23.5 -5.5t-17 17t5.5 24.5q11 11 25 6.5t17 -17.5t-7 -25z" />
    <glyph glyph-name="agrave.ss06" horiz-adv-x="545" 
d="M286 550l-88 136h25l87 -136h-24zM287 456q188 0 188 -209v-247h-22v62q-83 -77 -201 -77q-82 0 -132 38t-50 101q0 56 42 89.5t117 33.5h224q0 95 -40 142t-126 47q-63 0 -108 -26.5t-55 -69.5h-24q12 52 63.5 84t123.5 32zM254 7q118 0 199 84v136h-224
q-65 0 -101 -28.5t-36 -74.5q0 -53 45 -85t117 -32z" />
    <glyph glyph-name="amacron.ss06" horiz-adv-x="545" 
d="M428 570h-276v18h276v-18zM287 456q188 0 188 -209v-247h-22v62q-83 -77 -201 -77q-82 0 -132 38t-50 101q0 56 42 89.5t117 33.5h224q0 95 -40 142t-126 47q-63 0 -108 -26.5t-55 -69.5h-24q12 52 63.5 84t123.5 32zM254 7q118 0 199 84v136h-224q-65 0 -101 -28.5
t-36 -74.5q0 -53 45 -85t117 -32z" />
    <glyph glyph-name="aogonek.ss06" horiz-adv-x="545" 
d="M498 -181l2 -21q-14 -3 -33 -3q-51 0 -82.5 26.5t-31.5 69.5q0 70 100 122v49q-83 -77 -201 -77q-82 0 -132 38t-50 101q0 56 42 89.5t117 33.5h224q0 95 -40 142t-126 47q-63 0 -108 -26.5t-55 -69.5h-24q12 52 63.5 84t123.5 32q188 0 188 -209v-247q-33 -15 -67 -40
q-33 -27 -33 -67q0 -35 26 -55.5t69 -20.5q6 0 28 2zM254 7q118 0 199 84v136h-224q-65 0 -101 -28.5t-36 -74.5q0 -53 45 -85t117 -32z" />
    <glyph glyph-name="aring.ss06" horiz-adv-x="545" 
d="M353 571q-25 -24 -62 -24t-62 24q-25 25 -25 62t25 61q25 25 62 25t62 -25q25 -24 25 -61t-25 -62zM223 633q0 -29 19.5 -48.5t48.5 -19.5t48.5 19.5t19.5 48.5q0 28 -20 48t-48 20t-48 -20t-20 -48zM287 456q188 0 188 -209v-247h-22v62q-83 -77 -201 -77q-82 0 -132 38
t-50 101q0 56 42 89.5t117 33.5h224q0 95 -40 142t-126 47q-63 0 -108 -26.5t-55 -69.5h-24q12 52 63.5 84t123.5 32zM254 7q118 0 199 84v136h-224q-65 0 -101 -28.5t-36 -74.5q0 -53 45 -85t117 -32z" />
    <glyph glyph-name="atilde.ss06" horiz-adv-x="545" 
d="M319 605l-38 27q-32 23 -61 13q-32 -9 -32 -48h-19q0 35 21 53t49 16.5t52 -18.5l37 -26q34 -25 64 -14.5t30 49.5h19q0 -54 -41 -69q-39 -13 -81 17zM287 456q188 0 188 -209v-247h-22v62q-83 -77 -201 -77q-82 0 -132 38t-50 101q0 56 42 89.5t117 33.5h224
q0 95 -40 142t-126 47q-63 0 -108 -26.5t-55 -69.5h-24q12 52 63.5 84t123.5 32zM254 7q118 0 199 84v136h-224q-65 0 -101 -28.5t-36 -74.5q0 -53 45 -85t117 -32z" />
    <glyph glyph-name="zero.osf" horiz-adv-x="686" 
d="M150 470q75 76 193 76t193 -76t75 -203t-75 -203t-193 -76t-193 76t-75 203t75 203zM167 78q69 -70 176 -70t176 70t69 189q0 117 -69 188t-176 71t-176 -71t-69 -188q0 -119 69 -189z" />
    <glyph glyph-name="one.osf" horiz-adv-x="496" 
d="M476 20v-20h-421v20h210v504l-195 -77v23l206 80h10v-530h190z" />
    <glyph glyph-name="two.osf" horiz-adv-x="547" 
d="M497 20v-20h-428v13l169 117q118 81 158 120q62 62 62 122q0 77 -49 120t-133 43q-81 0 -135 -44.5t-63 -117.5h-21q7 83 66 132q59 50 151 50q95 0 150.5 -48.5t55.5 -134.5q0 -64 -53 -119q-54 -54 -174 -137l-139 -96h383z" />
    <glyph glyph-name="three.osf" horiz-adv-x="564" 
d="M372 206q64 -17 101 -63t37 -111q0 -82 -63 -133q-62 -50 -164 -50q-98 0 -163 44q-64 43 -70 117h22q7 -64 65.5 -102.5t146.5 -38.5q92 0 148 45t56 118t-51.5 118t-136.5 45h-59v20h59q76 0 122 43t46 114q0 74 -51.5 118.5t-138.5 44.5q-77 0 -127 -37.5t-58 -100.5
h-23q8 72 63.5 115t142.5 43q98 0 156 -50t58 -133q0 -60 -31.5 -104t-86.5 -62z" />
    <glyph glyph-name="four.osf" horiz-adv-x="646" 
d="M596 1h-125v-162h-21v162h-380v13l220 505h23l-215 -498h352v238h21v-238h125v-20z" />
    <glyph glyph-name="five.osf" horiz-adv-x="580" 
d="M120 266h176q103 0 166 -55t63 -144q0 -93 -67 -156q-68 -63 -171 -63t-168.5 50.5t-83.5 141.5h23q17 -82 76.5 -127t152.5 -45q95 0 155 57q61 58 61 142q0 82 -56.5 131t-151.5 48l-196 -1l1 298h385v-20h-364z" />
    <glyph glyph-name="six.osf" horiz-adv-x="612" 
d="M306 445q106 0 173 -63q68 -63 68 -165q0 -103 -68 -168q-67 -64 -173 -64t-173 64q-68 65 -68 168q0 81 48 145l242 318h28l-201 -264q56 29 124 29zM524 217q0 93 -62 150q-61 58 -156 58q-105 0 -165 -62l-10 -14q-43 -61 -43 -132q0 -95 61 -153q62 -59 157 -59
q94 0 156 59t62 153z" />
    <glyph glyph-name="seven.osf" horiz-adv-x="501" 
d="M476 540v-14l-346 -666h-27l345 660h-428v20h456z" />
    <glyph glyph-name="eight.osf" horiz-adv-x="618" 
d="M385 360q78 -16 123 -62.5t45 -113.5q0 -88 -68 -144q-67 -55 -176 -55q-110 0 -177 55t-67 144q0 67 45 113.5t123 62.5q-64 15 -100.5 56.5t-36.5 100.5q0 76 61 127q62 51 152 51q91 0 153 -51q61 -51 61 -127q0 -60 -36.5 -101t-101.5 -56zM117 517q0 -69 53 -109.5
t139 -40.5t139 40.5t53 109.5q0 67 -55 113t-137 46t-137 -46t-55 -113zM531 184q0 75 -61 121t-161 46t-161 -46t-61 -121q0 -81 61 -130t161 -49t161 49t61 130z" />
    <glyph glyph-name="nine.osf" horiz-adv-x="612" 
d="M547 307q0 -81 -48 -145l-242 -318h-28l201 264q-56 -29 -124 -29q-106 0 -173 63q-68 63 -68 165t68 167t173 65t173 -65t68 -167zM471 161l10 14q43 61 43 132q0 94 -62 153t-156 59q-95 0 -157 -59q-61 -58 -61 -153q0 -93 61 -151q61 -57 157 -57q105 0 165 62z" />
    <glyph glyph-name="zero.tf" horiz-adv-x="580" 
d="M99 597q74 98 191 98q118 0 190 -98q73 -97 73 -257q0 -161 -73 -258q-72 -97 -190 -97t-191 97q-72 98 -72 258t72 257zM116 97q66 -92 174 -92t174 92q66 91 66 243t-66 243q-66 92 -174 92t-174 -92q-66 -91 -66 -243t66 -243z" />
    <glyph glyph-name="one.tf" horiz-adv-x="580" 
d="M536 20v-20h-461v20h230v634l-195 -77v23l206 80h10v-660h210z" />
    <glyph glyph-name="two.tf" horiz-adv-x="580" 
d="M537 20v-20h-438v13l229 217q93 87 131 141q39 55 39 121q0 79 -55 131t-142 52q-82 0 -138 -44.5t-65 -117.5h-21q8 83 68 132q62 50 154 50q99 0 160 -57t61 -146q0 -66 -41 -127q-36 -53 -136 -149l-205 -196h399z" />
    <glyph glyph-name="three.tf" horiz-adv-x="580" 
d="M404 346q64 -17 101 -63t37 -111q0 -82 -63 -133q-62 -50 -164 -50q-98 0 -163 44q-64 43 -70 117h22q7 -64 65.5 -102.5t146.5 -38.5q92 0 148 45t56 118t-51.5 118t-136.5 45h-59v20h59q76 0 122 43t46 114q0 74 -51.5 118.5t-138.5 44.5q-77 0 -127 -37.5t-58 -100.5
h-23q8 72 63.5 115t142.5 43q98 0 156 -50t58 -133q0 -60 -31.5 -104t-86.5 -62z" />
    <glyph glyph-name="four.tf" horiz-adv-x="580" 
d="M578 162h-125v-162h-21v162h-380v13l220 505h23l-215 -498h352v238h21v-238h125v-20z" />
    <glyph glyph-name="five.tf" horiz-adv-x="580" 
d="M122 403h176q103 0 166 -55q63 -56 63 -144q0 -93 -67 -156q-68 -63 -171 -63t-168.5 50.5t-83.5 141.5h23q17 -82 76.5 -127t152.5 -45q95 0 155 57q61 58 61 142q0 82 -56.5 131t-151.5 48l-196 -1l1 298h385v-20h-364z" />
    <glyph glyph-name="six.tf" horiz-adv-x="580" 
d="M314 445q106 0 173 -63q68 -63 68 -165q0 -103 -68 -168q-67 -64 -173 -64t-173 64q-68 65 -68 168q0 81 48 145l242 318h28l-201 -264q56 29 124 29zM532 217q0 93 -62 150q-61 58 -156 58q-105 0 -165 -62l-10 -14q-43 -61 -43 -132q0 -95 61 -153q62 -59 157 -59
q94 0 156 59t62 153z" />
    <glyph glyph-name="seven.tf" horiz-adv-x="580" 
d="M536 680v-14l-346 -666h-27l345 660h-428v20h456z" />
    <glyph glyph-name="eight.tf" horiz-adv-x="580" 
d="M366 360q78 -16 123 -62.5t45 -113.5q0 -88 -68 -144q-67 -55 -176 -55q-110 0 -177 55t-67 144q0 67 45 113.5t123 62.5q-64 15 -100.5 56.5t-36.5 100.5q0 76 61 127q62 51 152 51q92 0 153 -51t61 -127q0 -60 -36.5 -101t-101.5 -56zM98 517q0 -69 53 -109.5
t139 -40.5t139 40.5t53 109.5q0 67 -55 113t-137 46t-137 -46t-55 -113zM512 184q0 75 -61 121t-161 46t-161 -46t-61 -121q0 -81 61 -130t161 -49t161 49t61 130z" />
    <glyph glyph-name="nine.tf" horiz-adv-x="580" 
d="M534 463q0 -81 -48 -145l-242 -318h-28l201 264q-56 -29 -124 -29q-105 0 -173 63t-68 165t68 167t173 65t173 -65t68 -167zM458 317l10 14q43 61 43 132q0 94 -62 153t-156 59q-95 0 -157 -59q-61 -58 -61 -153q0 -93 61 -151q61 -57 157 -57q105 0 165 62z" />
    <glyph glyph-name="zero.zero" horiz-adv-x="716" 
d="M150 598q76 97 208 97q131 0 207 -97t76 -258q0 -162 -76 -259q-75 -96 -207 -96q-133 0 -208 96t-75 259q0 162 75 258zM358 675q-122 0 -191 -91q-69 -92 -69 -244q0 -162 77 -254l346 528q-65 61 -163 61zM358 5q122 0 191 91t69 244q0 168 -83 260l-345 -530
q68 -65 168 -65z" />
    <glyph glyph-name="zero.osf.zero" horiz-adv-x="686" 
d="M160 470q75 76 193 76t193 -76t75 -203t-75 -203t-193 -76t-193 76t-75 203t75 203zM353 526q-107 0 -176 -71t-69 -188q0 -105 57 -175l355 372q-68 62 -167 62zM598 267q0 113 -65 184l-354 -374q67 -69 174 -69t176 70t69 189z" />
    <glyph glyph-name="zero.dnom" horiz-adv-x="422" 
d="M211 368q74 0 118 -53q43 -52 43 -135t-43 -135q-44 -53 -118 -53t-118 53q-43 52 -43 135t43 135q44 53 118 53zM109 59q38 -47 102 -47q63 0 101 47q38 49 38 121t-38 121q-38 48 -101 48q-65 0 -102 -48q-37 -47 -37 -121t37 -121z" />
    <glyph glyph-name="one.dnom" horiz-adv-x="288" 
d="M268 19v-19h-238v19h114v308l-106 -29v20l116 32h11v-331h103z" />
    <glyph glyph-name="two.dnom" horiz-adv-x="353" 
d="M303 19v-19h-245v12l126 118q52 48 70.5 74t18.5 57q0 39 -27 63.5t-72 24.5q-42 0 -68 -22t-30 -59h-21q4 46 35.5 73t82.5 27q54 0 87.5 -30t33.5 -76q0 -34 -20 -63t-73 -80l-106 -100h208z" />
    <glyph glyph-name="three.dnom" horiz-adv-x="364" 
d="M239 183q70 -22 70 -90q0 -44 -35 -71.5t-93 -27.5q-55 0 -90.5 24t-40.5 65h22q5 -32 34.5 -51t75.5 -19q47 0 76.5 22t29.5 58t-27.5 58t-71.5 22h-33v18h33q39 0 63.5 21.5t24.5 56.5q0 36 -26.5 58t-71.5 22q-41 0 -66.5 -18.5t-30.5 -50.5h-21q5 40 36 64t81 24
q54 0 86.5 -27t32.5 -72q0 -64 -58 -86z" />
    <glyph glyph-name="four.dnom" horiz-adv-x="388" 
d="M338 83h-67v-83h-20v83h-211v14l121 263h22l-116 -257h184v122h20v-122h67v-20z" />
    <glyph glyph-name="five.dnom" horiz-adv-x="365" 
d="M90 217h91q59 0 94 -30t35 -78q0 -51 -37.5 -84t-96.5 -33q-57 0 -94 27.5t-47 75.5h22q8 -40 39 -62t80 -22q48 0 80.5 28.5t32.5 69.5q0 40 -29.5 65t-79.5 24l-90 -1h-20v163h219v-19h-199v-124z" />
    <glyph glyph-name="six.dnom" horiz-adv-x="358" 
d="M177 238q60 0 98 -34t38 -88q0 -55 -38.5 -89.5t-97.5 -34.5q-60 0 -98.5 35t-38.5 89q0 43 28 79l130 165h26l-102 -132q24 10 55 10zM177 11q49 0 81.5 29.5t32.5 74.5t-32.5 74t-81.5 29q-62 0 -87 -31l-4 -5q-24 -29 -24 -67q0 -46 32.5 -75t82.5 -29z" />
    <glyph glyph-name="seven.dnom" horiz-adv-x="291" 
d="M276 360v-13l-187 -347h-25l183 340h-227v20h256z" />
    <glyph glyph-name="eight.dnom" horiz-adv-x="377" 
d="M243 191q39 -11 61.5 -35.5t22.5 -57.5q0 -47 -38 -76.5t-101 -29.5q-62 0 -100 29.5t-38 76.5q0 33 22.5 57.5t61.5 35.5q-67 19 -67 82q0 41 34.5 68t86.5 27q53 0 88 -27t35 -68q0 -62 -68 -82zM88 272q0 -35 27.5 -55t72.5 -20q46 0 73.5 20t27.5 55q0 33 -28.5 55.5
t-72.5 22.5q-43 0 -71.5 -22.5t-28.5 -55.5zM304 99q0 37 -32 60t-84 23t-83.5 -23t-31.5 -60q0 -39 31.5 -63.5t83.5 -24.5t84 24.5t32 63.5z" />
    <glyph glyph-name="nine.dnom" horiz-adv-x="358" 
d="M181 369q60 0 98.5 -35t38.5 -89q0 -43 -28 -79l-130 -165h-26l102 132q-24 -10 -55 -10q-60 0 -98 34t-38 88q0 55 38.5 89.5t97.5 34.5zM268 174l4 5q24 29 24 67q0 46 -32.5 75t-82.5 29q-49 0 -81.5 -29.5t-32.5 -74.5t32.5 -74t81.5 -29q62 0 87 31z" />
    <glyph glyph-name="zero.numr" horiz-adv-x="422" 
d="M211 690q74 0 118 -53q43 -52 43 -135t-43 -135q-44 -53 -118 -53t-118 53q-43 52 -43 135t43 135q44 53 118 53zM109 381q38 -47 102 -47q63 0 101 47q38 49 38 121t-38 121q-38 48 -101 48q-65 0 -102 -48q-37 -47 -37 -121t37 -121z" />
    <glyph glyph-name="one.numr" horiz-adv-x="288" 
d="M268 341v-19h-238v19h114v308l-106 -29v20l116 32h11v-331h103z" />
    <glyph glyph-name="two.numr" horiz-adv-x="353" 
d="M303 341v-19h-245v12l126 118q52 48 70.5 74t18.5 57q0 39 -27 63.5t-72 24.5q-42 0 -68 -22t-30 -59h-21q4 46 35.5 73t82.5 27q54 0 87.5 -30t33.5 -76q0 -34 -20 -63t-73 -80l-106 -100h208z" />
    <glyph glyph-name="three.numr" horiz-adv-x="364" 
d="M239 509q70 -22 70 -90q0 -44 -35 -71.5t-93 -27.5q-55 0 -90.5 24t-40.5 65h22q5 -32 34.5 -51t75.5 -19q47 0 76.5 22t29.5 58t-27.5 58t-71.5 22h-33v18h33q39 0 63.5 21.5t24.5 56.5q0 36 -26.5 58t-71.5 22q-41 0 -66.5 -18.5t-30.5 -50.5h-21q5 40 36 64t81 24
q54 0 86.5 -27t32.5 -72q0 -64 -58 -86z" />
    <glyph glyph-name="four.numr" horiz-adv-x="388" 
d="M338 405h-67v-83h-20v83h-211v14l121 263h22l-116 -257h184v122h20v-122h67v-20z" />
    <glyph glyph-name="five.numr" horiz-adv-x="365" 
d="M90 539h91q59 0 94 -30t35 -78q0 -51 -37.5 -84t-96.5 -33q-57 0 -94 27.5t-47 75.5h22q8 -40 39 -62t80 -22q48 0 80.5 28.5t32.5 69.5q0 40 -29.5 65t-79.5 24l-90 -1h-20v163h219v-19h-199v-124z" />
    <glyph glyph-name="six.numr" horiz-adv-x="358" 
d="M177 560q60 0 98 -34t38 -88q0 -55 -38.5 -89.5t-97.5 -34.5q-60 0 -98.5 35t-38.5 89q0 43 28 79l130 165h26l-102 -132q24 10 55 10zM177 333q49 0 81.5 29.5t32.5 74.5t-32.5 74t-81.5 29q-62 0 -87 -31l-4 -5q-24 -29 -24 -67q0 -46 32.5 -75t82.5 -29z" />
    <glyph glyph-name="seven.numr" horiz-adv-x="291" 
d="M276 682v-13l-187 -347h-25l183 340h-227v20h256z" />
    <glyph glyph-name="eight.numr" horiz-adv-x="377" 
d="M243 517q39 -11 61.5 -35.5t22.5 -57.5q0 -47 -38 -76.5t-101 -29.5q-62 0 -100 29.5t-38 76.5q0 33 22.5 57.5t61.5 35.5q-67 19 -67 82q0 41 34.5 68t86.5 27q53 0 88 -27t35 -68q0 -62 -68 -82zM88 598q0 -35 27.5 -55t72.5 -20q46 0 73.5 20t27.5 55q0 33 -28.5 55.5
t-72.5 22.5q-43 0 -71.5 -22.5t-28.5 -55.5zM304 425q0 37 -32 60t-84 23t-83.5 -23t-31.5 -60q0 -39 31.5 -63.5t83.5 -24.5t84 24.5t32 63.5z" />
    <glyph glyph-name="nine.numr" horiz-adv-x="358" 
d="M181 695q60 0 98.5 -35t38.5 -89q0 -43 -28 -79l-130 -165h-26l102 132q-24 -10 -55 -10q-60 0 -98 34t-38 88q0 55 38.5 89.5t97.5 34.5zM268 500l4 5q24 29 24 67q0 46 -32.5 75t-82.5 29q-49 0 -81.5 -29.5t-32.5 -74.5t32.5 -74t81.5 -29q62 0 87 31z" />
    <glyph glyph-name="backslash.case" horiz-adv-x="367" 
d="M50 730h22l245 -777h-22z" />
    <glyph glyph-name="bullet.case" horiz-adv-x="305" 
d="M152 235q-39 0 -68 29t-29 68t29 68t68 29q40 0 69 -29t29 -68t-29 -68t-69 -29z" />
    <glyph glyph-name="exclamdown.case" horiz-adv-x="246" 
d="M106 681q16 17 33 0t0 -33q-15 -15 -31.5 1.5t-1.5 31.5zM112 0v520h22v-520h-22z" />
    <glyph glyph-name="periodcentered.case" horiz-adv-x="146" 
d="M89 317q-9 -11 -21.5 -6.5t-16 16t4.5 22.5q10 10 23 5.5t16 -16t-6 -21.5z" />
    <glyph glyph-name="questiondown.case" 
d="M322 681q16 17 33 0t0 -33q-15 -15 -31.5 1.5t-1.5 31.5zM349 509l3 -134h-23q-87 0 -142 -54t-55 -131t55 -131t139 -54q63 0 112 37q52 38 65 96h22q-15 -69 -72 -111q-55 -42 -127 -42q-93 0 -155 59q-61 60 -61 146q0 87 61 145q61 60 158 60v114h20z" />
    <glyph glyph-name="slash.case" horiz-adv-x="367" 
d="M50 -47l245 777h22l-245 -777h-22z" />
    <glyph glyph-name="braceleft.case" horiz-adv-x="358" 
d="M182 579v-79q0 -129 -71 -156q71 -27 71 -156v-79q0 -66 32 -106t84 -40v-20q-62 0 -99.5 45.5t-37.5 120.5v79q0 79 -26.5 112.5t-89.5 33.5v20q63 0 89.5 33.5t26.5 112.5v79q0 75 37.5 120.5t99.5 45.5v-20q-52 0 -84 -40t-32 -106z" />
    <glyph glyph-name="braceright.case" horiz-adv-x="358" 
d="M176 500v79q0 66 -32 106t-84 40v20q62 0 99.5 -45.5t37.5 -120.5v-79q0 -79 26.5 -112.5t89.5 -33.5v-20q-63 0 -89.5 -33.5t-26.5 -112.5v-79q0 -75 -37.5 -120.5t-99.5 -45.5v20q52 0 84 40t32 106v79q0 129 71 156q-71 27 -71 156z" />
    <glyph glyph-name="bracketleft.case" horiz-adv-x="327" 
d="M136 -30h131v-20h-152v780h152v-20h-131v-740z" />
    <glyph glyph-name="bracketright.case" horiz-adv-x="302" 
d="M35 710v20h152v-780h-152v20h131v740h-131z" />
    <glyph glyph-name="parenleft.case" horiz-adv-x="328" 
d="M96 326q0 -131 43 -213q43 -81 139 -159l-12 -15q-100 75 -145.5 165.5t-45.5 221.5q0 134 46 229t145 168l12 -15q-95 -75 -138 -163q-44 -90 -44 -219z" />
    <glyph glyph-name="parenright.case" horiz-adv-x="328" 
d="M50 708l12 15q99 -73 145 -168t46 -229q0 -131 -45.5 -221.5t-145.5 -165.5l-12 15q94 76 138 159t44 213q0 129 -44 219q-43 88 -138 163z" />
    <glyph glyph-name="emdash.case" horiz-adv-x="870" 
d="M790 352v-21h-710v21h710z" />
    <glyph glyph-name="endash.case" horiz-adv-x="757" 
d="M627 351v-21h-497v21h497z" />
    <glyph glyph-name="hyphen.case" horiz-adv-x="574" 
d="M444 351v-21h-314v21h314z" />
    <glyph glyph-name="guillemotleft.case" horiz-adv-x="407" 
d="M207 486l-122 -144l122 -144h-25l-122 144l122 144h25zM347 486l-122 -144l122 -144h-25l-122 144l122 144h25z" />
    <glyph glyph-name="guillemotright.case" horiz-adv-x="407" 
d="M207 342l-122 -144h-25l122 144l-122 144h25zM347 342l-122 -144h-25l122 144l-122 144h25z" />
    <glyph glyph-name="guilsinglleft.case" horiz-adv-x="267" 
d="M207 486l-122 -144l122 -144h-25l-122 144l122 144h25z" />
    <glyph glyph-name="guilsinglright.case" horiz-adv-x="267" 
d="M207 342l-122 -144h-25l122 144l-122 144h25z" />
    <glyph glyph-name="florin.tf" horiz-adv-x="580" 
d="M444 665q-98 0 -116 -126l-25 -179h172v-20h-174l-33 -259q-9 -70 -43.5 -108t-93.5 -38q-35 0 -81 12l5 18q41 -10 76 -10q99 0 116 126l33 259h-130v20h132l25 179q21 146 137 146q34 0 81 -12l-5 -18q-41 10 -76 10z" />
    <glyph glyph-name="cent.tf" horiz-adv-x="580" 
d="M296 6q67 0 115 34.5t62 91.5h23q-15 -65 -67 -104.5t-125 -41.5v-127h-21v127q-96 4 -158 73q-61 68 -61 166t61 165q62 70 158 74v135h21v-135q73 -2 125 -41.5t67 -104.5h-23q-14 57 -62 91.5t-115 34.5q-94 0 -152 -64q-58 -62 -58 -155q0 -92 58 -156
q58 -63 152 -63z" />
    <glyph glyph-name="dollar.tf" horiz-adv-x="580" 
d="M541 183q0 -86 -64 -140q-62 -53 -167 -58v-126h-21v126q-234 5 -266 227h22q33 -207 252 -207q99 0 161 48q61 49 61 129q0 57 -41 95.5t-116 52.5l-124 24q-88 17 -135.5 58.5t-47.5 103.5q0 80 63 129q64 50 166 50h5v134h21v-135q97 -6 156 -54t72 -127h-22
q-16 78 -75 120t-157 42q-93 0 -149.5 -44t-56.5 -117q0 -53 43.5 -89.5t124.5 -51.5l121 -23q84 -16 129 -59t45 -108z" />
    <glyph glyph-name="Euro.tf" horiz-adv-x="580" 
d="M348 5q118 0 170 78h29q-62 -98 -199 -98q-110 0 -182.5 69t-92.5 192h-58v20h55q-5 45 -5 74t3 56h-53v20h55q17 130 90.5 204.5t187.5 74.5q72 0 127 -30t84 -85h-27q-26 45 -74 70t-110 25q-104 0 -171 -69t-84 -190h350l-5 -20h-347q-3 -27 -3 -56q0 -32 5 -74h312
l-5 -20h-304q20 -114 85.5 -177.5t166.5 -63.5z" />
    <glyph glyph-name="sterling.tf" horiz-adv-x="580" 
d="M124 20h419v-20h-528v20h87v270h-87v20h87v165q0 99 61 159q61 61 162 61q93 0 152.5 -51.5t68.5 -138.5h-22q-9 78 -62.5 124t-136.5 46q-91 0 -146 -55t-55 -145v-165h272v-20h-272v-270z" />
    <glyph glyph-name="yen.tf" horiz-adv-x="580" 
d="M299 234h193v-21h-193v-84h193v-21h-193v-108h-22v108h-193v21h193v84h-193v21h193v23l-239 423h25l225 -402l225 402h25l-239 -423v-23z" />
    <glyph glyph-name="arrowdown.ss05" horiz-adv-x="672" 
d="M572 412l-236 -236l-236 236l14 15l222 -222l222 222z" />
    <glyph glyph-name="arrowleft.ss05" horiz-adv-x="672" 
d="M558 186l-222 222l-222 -222l-14 15l236 236l236 -236z" />
    <glyph glyph-name="arrowright.ss05" horiz-adv-x="571" 
d="M169 351l222 -222l-15 -14l-236 236l236 236l15 -14z" />
    <glyph glyph-name="arrowup.ss05" horiz-adv-x="551" 
d="M411 351l-236 -236l-15 14l222 222l-222 222l15 14z" />
    <glyph glyph-name="at.case" horiz-adv-x="982" 
d="M656 464v-204q0 -64 20 -95.5t66 -31.5q59 0 93.5 49.5t34.5 129.5q0 146 -114 254t-266 108t-265 -108q-112 -106 -112 -262q0 -155 112 -263q113 -107 266 -107q139 0 246 89l14 -18q-113 -92 -260 -92q-166 0 -284 112q-117 113 -117 279t118 278q119 113 282 113
q164 0 283 -113t119 -269q0 -86 -39 -143t-111 -57q-76 0 -98 72q-58 -79 -155 -79q-78 0 -134 53q-54 52 -54 136q0 83 54 135q56 53 134 53q88 0 146 -67v48h21zM491 126q92 0 148 80q-4 20 -4 54v129q-56 74 -144 74q-70 0 -120 -47q-48 -46 -48 -121t48 -122t120 -47z
" />
    <glyph glyph-name="bar.case" horiz-adv-x="302" 
d="M162 730v-777h-22v777h22z" />
    <glyph glyph-name="brokenbar.case" horiz-adv-x="302" 
d="M162 392h-22v338h22v-338zM162 -47h-22v337h22v-337z" />
    <glyph glyph-name="registered.ss07" horiz-adv-x="878" 
d="M182 593q106 102 257 102t257 -102q107 -102 107 -253t-107 -253q-106 -102 -257 -102t-257 102q-107 102 -107 253t107 253zM197 101q101 -97 242 -97t242 97q102 98 102 239q0 140 -102 238q-103 98 -242 98t-242 -98q-101 -98 -101 -238q0 -141 101 -239zM597 415
q0 -52 -37.5 -84.5t-100.5 -36.5l147 -151h-26l-145 151h-102v-151h-20v394h132q68 0 110 -33.5t42 -88.5zM333 312h112q59 0 95.5 28.5t36.5 74.5q0 47 -36.5 75.5t-95.5 28.5h-112v-207z" />
    <glyph glyph-name="caron.alt" 
d="M303 680l-17 -170h-19l14 170h22z" />
    <glyph glyph-name="acute.case" 
d="M394 896l-88 -136h-24l87 136h25z" />
    <glyph glyph-name="breve.case" 
d="M410 895h20q0 -58 -39 -91t-91 -33t-91 33t-39 91h20q0 -48 32.5 -76.5t77.5 -28.5t77.5 28.5t32.5 76.5z" />
    <glyph glyph-name="caron.case" 
d="M442 900l-127 -136h-31l-127 136h26l117 -122l116 122h26z" />
    <glyph glyph-name="circumflex.case" 
d="M300 886l-117 -122h-26l127 136h31l127 -136h-26z" />
    <glyph glyph-name="dieresis.case" 
d="M199 827q17 17 35 -1t1 -35t-35 1t-1 35zM365 827q17 17 35 -1t1 -35t-35 1t-1 35z" />
    <glyph glyph-name="dotaccent.case" 
d="M317 791q-10 -10 -23.5 -5.5t-17 17t5.5 24.5q11 11 25 6.5t17 -17.5t-7 -25z" />
    <glyph glyph-name="grave.case" 
d="M334 760h-24l-88 136h25z" />
    <glyph glyph-name="hungarumlaut.case" 
d="M333 896l-86 -136h-24l86 136h24zM457 896l-87 -136h-23l86 136h24z" />
    <glyph glyph-name="macron.case" 
d="M437 798v-18h-276v18h276z" />
    <glyph glyph-name="ring.case" 
d="M238 924q25 25 62 25t62 -25q25 -24 25 -61t-25 -62q-25 -24 -62 -24t-62 24q-25 25 -25 62t25 61zM368 863q0 28 -20 48t-48 20t-48 -20t-20 -48q0 -29 20 -48.5t48 -19.5t48 19.5t20 48.5z" />
    <glyph glyph-name="tilde.case" 
d="M407 867h19q0 -54 -41 -69q-39 -13 -81 17l-38 27q-32 23 -61 13q-32 -9 -32 -48h-19q0 35 21 53t49 16.5t52 -18.5l37 -26q36 -25 64 -15q30 11 30 50z" />
    </font>
</defs>
</svg>
