<?xml version="1.0" standalone="no"?>
<!DOCTYPE svg PUBLIC "-//W3C//DTD SVG 1.1//EN" "http://www.w3.org/Graphics/SVG/1.1/DTD/svg11.dtd" >
<svg xmlns="http://www.w3.org/2000/svg" xmlns:xlink="http://www.w3.org/1999/xlink" version="1.1">
<metadata>
Created by FontForge 20161003 at Wed Sep 27 09:55:27 2017
 By www-data
Copyright A^(c) 2014 by RenA~(c) Bieder. All rights reserved.
</metadata>
<defs>
<font id="CamptonExtraBold" horiz-adv-x="600" >
  <font-face 
    font-family="CamptonExtraBold"
    font-weight="800"
    font-stretch="normal"
    units-per-em="1000"
    panose-1="0 0 0 0 0 0 0 0 0 0"
    ascent="773"
    descent="-227"
    x-height="492"
    cap-height="680"
    bbox="-78 -298 1509 979"
    underline-thickness="50"
    underline-position="-150"
    unicode-range="U+0020-FB02"
  />
<missing-glyph horiz-adv-x="870" 
d="M770 680v-680h-670v680h670zM700 610h-481l481 -481v481zM170 70h477l-477 477v-477z" />
    <glyph glyph-name=".notdef" horiz-adv-x="870" 
d="M770 680v-680h-670v680h670zM700 610h-481l481 -481v481zM170 70h477l-477 477v-477z" />
    <glyph glyph-name=".null" horiz-adv-x="0" 
 />
    <glyph glyph-name="nonmarkingreturn" horiz-adv-x="333" 
 />
    <glyph glyph-name="space" unicode=" " horiz-adv-x="253" 
 />
    <glyph glyph-name="exclam" unicode="!" horiz-adv-x="304" 
d="M236 226h-168l-17 454h202zM56 79q0 38 28.5 64t67.5 26t67.5 -26t28.5 -64q0 -39 -28 -65.5t-68 -26.5t-68 26.5t-28 65.5z" />
    <glyph glyph-name="quotedbl" unicode="&#x22;" horiz-adv-x="402" 
d="M179 680v-312h-151v312h151zM373 680v-312h-151v312h151z" />
    <glyph glyph-name="numbersign" unicode="#" horiz-adv-x="817" 
d="M631 282h107v-152h-155l-40 -130h-176l40 130h-132l-41 -130h-176l41 130h-76v152h124l32 104h-101v152h149l44 143h176l-44 -143h132l45 143h176l-45 -143h82v-152h-130zM355 386l-32 -104h132l32 104h-132z" />
    <glyph glyph-name="dollar" unicode="$" horiz-adv-x="683" 
d="M646 212q0 -89 -58.5 -147t-163.5 -74v-95h-144v94q-98 13 -168 71q-68 57 -82 168h203q15 -76 118 -76q73 0 73 43q0 28 -53 42l-114 28q-103 25 -151 73t-48 128q0 92 59.5 151.5t162.5 72.5v109h144v-113q85 -16 146 -70q59 -52 70 -153h-203q-15 67 -87 67
q-31 0 -50 -12.5t-19 -33.5q0 -18 12.5 -28.5t42.5 -17.5l111 -27q100 -24 149.5 -71t49.5 -129z" />
    <glyph glyph-name="percent" unicode="%" horiz-adv-x="1095" 
d="M264 695q91 0 150 -58q60 -57 60 -146t-60 -147q-58 -58 -150 -58q-91 0 -151 57q-60 59 -60 148t60 146q59 58 151 58zM384 0h-127l443 680h127zM350 491q0 36 -25.5 61t-61.5 25t-61.5 -25t-25.5 -61q0 -38 25 -63t62 -25t62 25t25 63zM832 394q92 0 151 -58
q60 -57 60 -146q0 -90 -60 -148q-60 -57 -151 -57q-93 0 -151 57q-59 57 -59 148q0 89 60 146q59 58 150 58zM770 127q26 -25 62 -24.5t61 24.5q26 26 26 63q0 38 -26 62q-25 25 -61 25t-62 -25q-25 -24 -25 -62q0 -39 25 -63z" />
    <glyph glyph-name="ampersand" unicode="&#x26;" horiz-adv-x="755" 
d="M512 0l-33 31q-79 -46 -199 -46t-191 58q-72 59 -72 156q0 117 114 178q-38 59 -38 117q0 84 63 142q65 59 176 59q108 0 172 -60t70 -165h-173q-1 30 -17 47.5t-41 17.5q-22 0 -36 -13t-14 -35q0 -18 11 -33t47 -51l9 -9l117 -116l61 102h195l-132 -225l156 -155h-245z
M288 140q31 0 61 11l-71 66q-7 7 -25 23.5t-24 22.5q-29 -23 -29 -53t25 -50t63 -20z" />
    <glyph glyph-name="quotesingle" unicode="'" horiz-adv-x="208" 
d="M179 680v-312h-151v312h151z" />
    <glyph glyph-name="parenleft" unicode="(" horiz-adv-x="409" 
d="M252 738l137 -137q-79 -84 -112 -154q-35 -73 -35 -166q0 -89 35 -161q34 -69 112 -152l-137 -137q-218 209 -218 450q0 248 218 457z" />
    <glyph glyph-name="parenright" unicode=")" horiz-adv-x="404" 
d="M20 601l137 137q218 -209 218 -457q0 -241 -218 -450l-137 137q78 83 112 152q35 72 35 161q0 93 -35 166q-33 70 -112 154z" />
    <glyph glyph-name="asterisk" unicode="*" horiz-adv-x="415" 
d="M388 474l-47 -81l-86 51v-96h-95v96l-86 -51l-47 81l88 52l-88 52l47 82l86 -51v91h95v-91l86 51l47 -82l-88 -52z" />
    <glyph glyph-name="plus" unicode="+" horiz-adv-x="655" 
d="M398 257v-157h-140v157h-165v135h165v157h140v-157h164v-135h-164z" />
    <glyph glyph-name="comma" unicode="," horiz-adv-x="250" 
d="M24 -118l55 120q-55 25 -55 81q0 40 29.5 68t71.5 28t72 -28t30 -69q0 -22 -6.5 -40t-29.5 -55l-65 -105h-102z" />
    <glyph glyph-name="hyphen" unicode="-" horiz-adv-x="560" 
d="M466 346v-179h-373v179h373z" />
    <glyph glyph-name="period" unicode="." horiz-adv-x="252" 
d="M198 12q-28 -28 -72 -28t-73 28q-30 28 -30 70t30 69q29 28 73 28q42 0 72 -28t30 -69q0 -42 -30 -70z" />
    <glyph glyph-name="slash" unicode="/" horiz-adv-x="455" 
d="M203 -160h-185l254 890h185z" />
    <glyph glyph-name="zero" unicode="0" horiz-adv-x="717" 
d="M123 597q89 98 236 98q146 0 235 -98t89 -257t-89 -257t-235 -98q-147 0 -236 98t-89 257t89 257zM256 206q38 -51 103 -51t102 51q37 50 37 134t-37 134q-37 51 -102 51t-103 -51q-37 -50 -37 -134t37 -134z" />
    <glyph glyph-name="one" unicode="1" horiz-adv-x="543" 
d="M538 164v-164h-508v164h167v305l-154 -41v179l220 73h122v-516h153z" />
    <glyph glyph-name="two" unicode="2" horiz-adv-x="584" 
d="M550 164v-164h-509v91l207 246l42 51q21 23 27 36q16 22 16 42q0 21 -14.5 35t-38.5 14q-26 0 -42.5 -15.5t-19.5 -43.5h-187q3 111 69 175t183 64q116 0 189 -62q73 -61 73 -154q0 -47 -32 -97q-33 -52 -121 -156l-52 -62h210z" />
    <glyph glyph-name="three" unicode="3" horiz-adv-x="596" 
d="M486 340q80 -45 80 -139q0 -97 -76 -157q-76 -59 -200 -59q-119 0 -187 59.5t-76 166.5h182q11 -71 94 -71q34 0 55.5 17.5t21.5 45.5q0 27 -22.5 45.5t-55.5 18.5h-66v138h66q33 0 55 18t22 47q0 28 -20 45t-54 17q-36 0 -59 -19t-25 -51h-183q5 104 73.5 165t183.5 61
t186 -57t71 -149q0 -94 -66 -142z" />
    <glyph glyph-name="four" unicode="4" horiz-adv-x="673" 
d="M647 107h-82v-107h-187v107h-345v125l179 448h186l-147 -407h127v176h187v-176h82v-166z" />
    <glyph glyph-name="five" unicode="5" horiz-adv-x="631" 
d="M264 447h80q120 0 184 -64q65 -63 65 -163q0 -106 -77 -171q-76 -64 -201 -64q-120 0 -197 62q-78 62 -85 164h186q8 -33 33.5 -52t62.5 -19q43 0 70 22t27 57q0 34 -27.5 54t-77.5 20h-228v387h479v-166h-294v-67z" />
    <glyph glyph-name="six" unicode="6" horiz-adv-x="630" 
d="M482 680l-125 -193q109 -12 177 -80t68 -162q0 -111 -80 -186q-80 -74 -207 -74q-125 0 -205 74q-78 73 -78 185q0 75 53 158l174 278h223zM315 146q43 0 72 28.5t29 67.5q0 38 -29 65.5t-72 27.5q-41 0 -72 -23l-6 -10q-23 -39 -23 -61q0 -38 29.5 -66.5t71.5 -28.5z
" />
    <glyph glyph-name="seven" unicode="7" horiz-adv-x="543" 
d="M527 680v-107l-248 -573h-217l223 504h-275v176h517z" />
    <glyph glyph-name="eight" unicode="8" horiz-adv-x="620" 
d="M480 363q111 -54 111 -161q0 -102 -74 -159.5t-207 -57.5q-134 0 -208 57.5t-74 159.5q0 106 111 161q-82 48 -82 133q0 88 71 144q70 55 182 55q110 0 180 -55q71 -56 71 -144q0 -85 -81 -133zM366 536q-23 20 -56.5 20t-56.5 -20q-22 -19 -22 -50t22 -51
q23 -21 57 -20.5t56 20.5q23 21 23 51t-23 50zM310 137q36 0 60.5 22t24.5 56q0 33 -24.5 54.5t-60.5 21.5q-37 0 -61 -21.5t-24 -54.5q0 -34 24 -56t61 -22z" />
    <glyph glyph-name="nine" unicode="9" horiz-adv-x="630" 
d="M315 695q125 0 204 -74q79 -73 79 -185q0 -75 -53 -158l-174 -278h-223l125 193q-111 12 -178 79t-67 163q0 111 80 185q80 75 207 75zM387 368l6 10q23 39 23 61q0 38 -29.5 66.5t-71.5 28.5q-43 0 -72 -28.5t-29 -67.5q0 -38 29 -65.5t72 -27.5q41 0 72 23z" />
    <glyph glyph-name="colon" unicode=":" horiz-adv-x="252" 
d="M126 305q-43 0 -73 28t-30 70t30 70t73 28q42 0 72 -28t30 -70t-30 -70t-72 -28zM228 82q0 -42 -30 -70t-73 -28t-72.5 28t-29.5 70t29.5 69.5t72.5 27.5t73 -28t30 -69z" />
    <glyph glyph-name="semicolon" unicode=";" horiz-adv-x="252" 
d="M25 -118l55 120q-55 25 -55 81q0 40 29.5 68t71.5 28t72 -28t30 -69q0 -22 -6.5 -40t-29.5 -55l-65 -105h-102zM126 305q-43 0 -73 28t-30 70t30 70t73 28q42 0 72 -28t30 -70t-30 -70t-72 -28z" />
    <glyph glyph-name="less" unicode="&#x3c;" horiz-adv-x="515" 
d="M459 580v-165l-240 -107l240 -108v-165l-422 190v165z" />
    <glyph glyph-name="equal" unicode="=" horiz-adv-x="669" 
d="M575 360h-482v135h482v-135zM575 147h-482v135h482v-135z" />
    <glyph glyph-name="greater" unicode="&#x3e;" horiz-adv-x="515" 
d="M479 225l-422 -190v165l239 108l-239 107v165l422 -190v-165z" />
    <glyph glyph-name="question" unicode="?" horiz-adv-x="554" 
d="M184 224l-10 168h91q39 0 63 19.5t24 52.5q0 31 -21 49.5t-55 18.5q-36 0 -57 -18.5t-23 -51.5h-183q5 106 72.5 166t186.5 60q111 0 182 -62t71 -163q0 -75 -51.5 -126t-141.5 -65l-5 -48h-143zM155 79q0 38 28 64t68 26q39 0 67.5 -26t28.5 -64q0 -39 -28 -65.5
t-68 -26.5t-68 26.5t-28 65.5z" />
    <glyph glyph-name="at" unicode="@" horiz-adv-x="980" 
d="M716 444v-252q0 -56 37 -56q64 0 64 134q0 127 -88 211q-88 85 -225 85q-142 0 -239 -94q-98 -95 -98 -228q0 -136 95 -231q97 -95 234 -95q121 0 212 75l65 -95q-117 -90 -277 -90q-188 0 -319 125q-127 123 -130 310q-2 178 133 307t319 127q188 -3 309 -117
q125 -116 125 -286q0 -113 -49 -178.5t-143 -65.5q-99 0 -145 61q-67 -58 -146 -58q-82 0 -141 59q-58 59 -58 151q0 93 58 152q59 60 141 60q60 0 107 -30v19h159zM487 159q43 0 74 33q-4 24 -4 63v44q-30 30 -70 30q-35 0 -58 -23.5t-23 -61.5t23 -61.5t58 -23.5z" />
    <glyph glyph-name="A" unicode="A" horiz-adv-x="773" 
d="M517 97h-261l-35 -97h-215l282 684h197l282 -684h-214zM457 261l-71 193l-70 -193h141z" />
    <glyph glyph-name="B" unicode="B" horiz-adv-x="688" 
d="M540 347q56 -13 89.5 -56.5t33.5 -99.5q0 -88 -65 -139.5t-179 -51.5h-369v680h344q111 0 175 -49t64 -133q0 -48 -25 -91q-26 -44 -68 -60zM251 523v-114h107q38 0 59 16t21 43q0 55 -80 55h-107zM251 159h130q85 0 85 60q0 53 -84 53h-131v-113z" />
    <glyph glyph-name="C" unicode="C" horiz-adv-x="784" 
d="M398 172q58 0 96.5 32.5t48.5 88.5h207q-9 -138 -105 -223q-95 -85 -244 -85q-161 0 -264 100t-103 255q0 154 103 254q104 101 264 101q147 0 244 -86q96 -85 105 -222h-207q-10 56 -48.5 88.5t-96.5 32.5q-72 0 -116 -48q-43 -47 -43 -120t43 -120q44 -48 116 -48z" />
    <glyph glyph-name="D" unicode="D" horiz-adv-x="737" 
d="M50 680h286q165 0 267 -93q103 -93 103 -246q0 -154 -103 -248q-102 -93 -267 -93h-286v680zM251 178h85q72 0 118 46q47 47 47 117t-47 115q-46 46 -118 46h-85v-324z" />
    <glyph glyph-name="E" unicode="E" horiz-adv-x="609" 
d="M251 511v-91h280v-162h-280v-89h327v-169h-528v680h528v-169h-327z" />
    <glyph glyph-name="F" unicode="F" horiz-adv-x="583" 
d="M251 508v-113h273v-169h-273v-226h-201v680h522v-172h-321z" />
    <glyph glyph-name="G" unicode="G" horiz-adv-x="803" 
d="M758 387v-387h-146l-5 63q-81 -78 -202 -78q-165 0 -268 99t-103 253q0 157 103 257q104 101 266 101q140 0 238 -74t110 -189h-209q-32 83 -135 83q-76 0 -122 -49t-46 -123q0 -76 49 -125t130 -49q95 0 152 74l-187 2v142h375z" />
    <glyph glyph-name="H" unicode="H" horiz-adv-x="743" 
d="M693 680v-680h-202v242h-240v-242h-201v680h201v-262h240v262h202z" />
    <glyph glyph-name="I" unicode="I" horiz-adv-x="301" 
d="M251 680v-680h-201v680h201z" />
    <glyph glyph-name="J" unicode="J" horiz-adv-x="650" 
d="M609 680v-391q0 -146 -76.5 -225t-216.5 -79q-131 0 -207.5 71.5t-81.5 201.5h198q4 -44 28 -67.5t64 -23.5q43 0 65.5 30t22.5 86v397h204z" />
    <glyph glyph-name="K" unicode="K" horiz-adv-x="745" 
d="M336 223l-85 -99v-124h-201v680h201v-276l237 276h237l-252 -296l268 -384h-239z" />
    <glyph glyph-name="L" unicode="L" horiz-adv-x="591" 
d="M574 174v-174h-524v680h201v-506h323z" />
    <glyph glyph-name="M" unicode="M" horiz-adv-x="860" 
d="M810 680v-680h-202v303l-125 -189v-1h-106v3l-126 189l1 -305h-202v680h155l225 -317l225 317h155z" />
    <glyph glyph-name="N" unicode="N" horiz-adv-x="742" 
d="M692 680v-680h-157l-284 321v-321h-201v680h157l283 -327v327h202z" />
    <glyph glyph-name="O" unicode="O" horiz-adv-x="802" 
d="M137 593q103 102 264 102q159 0 263 -102q104 -101 104 -253t-104 -254q-104 -101 -263 -101q-160 0 -264 101q-103 102 -103 254q0 153 103 253zM285 223q46 -49 116 -49t116 49t46 117t-46 117t-116 49t-116 -49t-46 -117t46 -117z" />
    <glyph glyph-name="P" unicode="P" horiz-adv-x="656" 
d="M50 680h286q144 0 225 -68.5t81 -190.5q0 -125 -82.5 -194.5t-230.5 -69.5h-78v-157h-201v680zM251 328h83q49 0 76.5 24.5t27.5 68.5q0 41 -27.5 64.5t-76.5 23.5h-83v-181z" />
    <glyph glyph-name="Q" unicode="Q" horiz-adv-x="802" 
d="M767 340q0 -162 -116 -266l102 -120l-138 -125l-139 163q-32 -7 -75 -7q-160 0 -264 101q-103 102 -103 254q0 153 103 253q103 102 264 102q159 0 262 -102q104 -101 104 -253zM285 457q-46 -49 -46 -117t46 -117t116 -49t116 49t46 117t-46 117t-116 49t-116 -49z" />
    <glyph glyph-name="R" unicode="R" horiz-adv-x="715" 
d="M338 179h-87v-179h-201v680h308q139 0 218 -65.5t79 -181.5q0 -138 -115 -208l162 -225h-243zM251 357h105q42 0 69 21.5t27 56.5q0 33 -27 53.5t-69 20.5h-105v-152z" />
    <glyph glyph-name="S" unicode="S" horiz-adv-x="683" 
d="M338 695q97 0 183 -43q49 -24 81 -72.5t38 -115.5h-203q-15 67 -87 67q-31 0 -50 -12.5t-19 -33.5q0 -18 12.5 -28.5t42.5 -17.5l111 -27q100 -24 149.5 -71t49.5 -129q0 -104 -81 -166q-79 -61 -217 -61q-114 0 -202 50q-99 57 -116 194h203q15 -76 118 -76q73 0 73 43
q0 28 -53 42l-114 28q-103 25 -151 73t-48 128q0 105 77 167q76 61 203 61z" />
    <glyph glyph-name="T" unicode="T" horiz-adv-x="644" 
d="M625 505h-202v-505h-202v505h-202v175h606v-175z" />
    <glyph glyph-name="U" unicode="U" horiz-adv-x="736" 
d="M696 680v-351q0 -165 -85.5 -254.5t-242.5 -89.5t-242.5 89.5t-85.5 254.5v351h204v-358q0 -70 33 -109.5t91 -39.5t91 39.5t33 109.5v358h204z" />
    <glyph glyph-name="V" unicode="V" horiz-adv-x="782" 
d="M782 680l-283 -684h-216l-283 684h223l168 -421l169 421h222z" />
    <glyph glyph-name="W" unicode="W" horiz-adv-x="1080" 
d="M1070 680l-216 -684h-192l-122 391l-122 -391h-193l-215 684h214l106 -372l128 372h164l127 -373l107 373h214z" />
    <glyph glyph-name="X" unicode="X" horiz-adv-x="719" 
d="M485 0l-126 185l-126 -185h-229l220 333l1 1l-220 346h241l113 -185l113 185h241l-220 -346l1 -1l221 -333h-230z" />
    <glyph glyph-name="Y" unicode="Y" horiz-adv-x="742" 
d="M472 185l1 -185h-202l-1 185l-267 495h223l144 -268l146 268h223z" />
    <glyph glyph-name="Z" unicode="Z" horiz-adv-x="664" 
d="M636 175v-175h-609v95l309 410h-291v175h583v-95l-295 -410h303z" />
    <glyph glyph-name="bracketleft" unicode="[" horiz-adv-x="405" 
d="M238 23h144v-176h-338v883h338v-177h-144v-530z" />
    <glyph glyph-name="backslash" unicode="\" horiz-adv-x="455" 
d="M193 730l254 -890h-185l-254 890h185z" />
    <glyph glyph-name="bracketright" unicode="]" horiz-adv-x="405" 
d="M23 553v177h338v-883h-338v176h144v530h-144z" />
    <glyph glyph-name="asciicircum" unicode="^" horiz-adv-x="457" 
d="M444 429h-163l-52 104l-53 -104h-163l148 251h135z" />
    <glyph glyph-name="underscore" unicode="_" horiz-adv-x="615" 
d="M23 -92h568v-158h-568v158z" />
    <glyph glyph-name="grave" unicode="`" 
d="M407 558h-184l-100 171h198z" />
    <glyph glyph-name="a" unicode="a" horiz-adv-x="640" 
d="M592 492v-492h-194v25q-56 -34 -127 -34q-100 0 -172 73q-72 74 -72 184t72 184t172 74q71 0 127 -34v20h194zM315 142q49 0 83 33v147q-35 32 -83 32q-43 0 -72.5 -29.5t-29.5 -76.5q0 -45 29.5 -75.5t72.5 -30.5z" />
    <glyph glyph-name="b" unicode="b" horiz-adv-x="640" 
d="M369 502q100 0 172 -74t72 -184t-72 -184q-72 -73 -172 -73q-72 0 -128 34v-21h-193v710h193v-242q56 34 128 34zM324 138q43 0 73 30.5t30 75.5q0 46 -29.5 76t-73.5 30q-46 0 -83 -32v-147q36 -33 83 -33z" />
    <glyph glyph-name="c" unicode="c" horiz-adv-x="588" 
d="M303 144q35 0 58.5 19.5t27.5 51.5h172q-5 -101 -77 -164q-73 -62 -181 -62q-123 0 -199 72q-77 72 -77 186q0 115 77 187q76 72 199 72q109 0 181 -63q72 -62 77 -163h-172q-4 32 -27.5 51.5t-58.5 19.5q-45 0 -72 -29t-27 -75t27 -74.5t72 -28.5z" />
    <glyph glyph-name="d" unicode="d" horiz-adv-x="640" 
d="M592 710v-710h-194v21q-56 -34 -127 -34q-100 0 -172 73q-72 74 -72 184t72 184t172 74q71 0 127 -34v242h194zM315 138q49 0 83 33v147q-35 32 -83 32q-43 0 -72.5 -29.5t-29.5 -76.5q0 -45 29.5 -75.5t72.5 -30.5z" />
    <glyph glyph-name="e" unicode="e" horiz-adv-x="578" 
d="M551 257q0 -29 -2 -53h-340q19 -70 93 -70q46 0 66 33h180q-13 -80 -82 -130q-68 -48 -163 -48q-123 0 -200 71q-76 72 -76 187t72 187q73 72 190 72q115 0 188 -69q74 -68 74 -180zM294 367q-67 0 -87 -71h173q-14 71 -86 71z" />
    <glyph glyph-name="f" unicode="f" horiz-adv-x="459" 
d="M299 492h159v-166h-159v-326h-193v326h-104v166h104v46q0 114 63 178q65 65 162 65q63 0 144 -22l-25 -155q-40 9 -79 9q-32 0 -52 -18.5t-20 -49.5v-53z" />
    <glyph glyph-name="g" unicode="g" horiz-adv-x="641" 
d="M594 492v-480q0 -114 -76 -178t-200 -64q-118 0 -195 59q-75 58 -80 157h187q13 -61 88 -61q37 0 59.5 21t22.5 59v39q-56 -30 -128 -30q-99 0 -172 68q-72 69 -72 171q0 111 72 183q72 73 172 73q72 0 128 -34v17h194zM317 159q47 0 83 33v132q-36 33 -83 33
q-45 0 -73.5 -28.5t-28.5 -75.5q0 -39 30 -66.5t72 -27.5z" />
    <glyph glyph-name="h" unicode="h" horiz-adv-x="614" 
d="M369 507q92 0 147.5 -57t55.5 -156v-294h-194v252q0 41 -19 61.5t-50 20.5q-35 0 -68 -33v-301h-193v710h193v-247q59 44 128 44z" />
    <glyph glyph-name="i" unicode="i" horiz-adv-x="292" 
d="M224 582q-32 -30 -78 -30t-78 30q-32 32 -32 76q0 45 32 75q31 31 78 31t78 -31q32 -30 32 -75q0 -44 -32 -76zM243 492v-492h-194v492h194z" />
    <glyph glyph-name="j" unicode="j" horiz-adv-x="290" 
d="M222 582q-32 -30 -78 -30t-78 30q-32 32 -32 76q0 45 32 75q31 31 78 31t78 -31q32 -30 32 -75q0 -44 -32 -76zM241 492v-447q0 -120 -51 -185q-54 -68 -210 -73l-17 156q48 7 66.5 23t18.5 52v474h193z" />
    <glyph glyph-name="k" unicode="k" horiz-adv-x="617" 
d="M296 151l-55 -60v-91h-193v710h193v-374l145 156h221l-181 -198l189 -294h-219z" />
    <glyph glyph-name="l" unicode="l" horiz-adv-x="289" 
d="M241 710v-710h-193v710h193z" />
    <glyph glyph-name="m" unicode="m" horiz-adv-x="912" 
d="M676 507q88 0 140.5 -57t52.5 -156v-294h-194v252q0 82 -66 82q-31 0 -54 -26v-14v-294h-194v252q0 82 -66 82q-30 0 -54 -28v-306h-193v492h193v-27q52 42 122 42q94 0 145 -62q71 62 168 62z" />
    <glyph glyph-name="n" unicode="n" horiz-adv-x="614" 
d="M369 507q92 0 147.5 -57t55.5 -156v-294h-194v252q0 41 -19 61.5t-50 20.5q-35 0 -68 -33v-301h-193v492h193v-29q59 44 128 44z" />
    <glyph glyph-name="o" unicode="o" horiz-adv-x="598" 
d="M572 247q0 -112 -77 -187t-196 -75t-196 75q-76 75 -76 187t76 185q77 74 196 74t196 -74t77 -185zM229 175q26 -29 70 -29q42 0 69 29q27 30 27 71t-27 69q-27 29 -69 29q-41 0 -70 -29q-27 -28 -27.5 -69.5t27.5 -70.5z" />
    <glyph glyph-name="p" unicode="p" horiz-adv-x="640" 
d="M369 506q100 0 172 -74q72 -73 72 -184q0 -110 -72 -184q-72 -73 -172 -73q-72 0 -128 34v-243h-193v710h193v-20q56 34 128 34zM324 142q43 0 73 30.5t30 75.5q0 46 -29.5 76t-73.5 30q-46 0 -83 -32v-147q36 -33 83 -33z" />
    <glyph glyph-name="q" unicode="q" horiz-adv-x="640" 
d="M589 492v-710h-194v243q-56 -34 -128 -34q-100 0 -172 73q-72 74 -72 184t72 184t172 74q72 0 128 -34v20h194zM312 142q47 0 83 33v147q-37 32 -83 32q-43 0 -72.5 -29.5t-29.5 -76.5q0 -45 29.5 -75.5t72.5 -30.5z" />
    <glyph glyph-name="r" unicode="r" horiz-adv-x="426" 
d="M406 500v-184q-108 -2 -165 -50v-266h-193v492h193v-50q70 58 165 58z" />
    <glyph glyph-name="s" unicode="s" horiz-adv-x="537" 
d="M13 167h168q9 -48 82 -48q54 0 54 26q0 19 -46 26l-92 15q-144 24 -144 153q0 78 62 123t167 45q104 0 171 -45q70 -45 71 -130l-167 -1q-5 47 -74 47q-48 0 -48 -25q0 -21 42 -29l95 -18q160 -30 160 -155q0 -84 -68 -125t-174 -41q-114 0 -182.5 47.5t-76.5 134.5z" />
    <glyph glyph-name="t" unicode="t" horiz-adv-x="489" 
d="M447 173l19 -161q-87 -27 -170 -27q-90 0 -145 64t-55 169v108h-87v166h87v158h194v-158h155v-166h-155v-99q0 -64 64 -64q14 0 93 10z" />
    <glyph glyph-name="u" unicode="u" horiz-adv-x="614" 
d="M566 492v-492h-194v29q-59 -44 -128 -44q-92 0 -147 57t-55 156v294h194v-251q0 -82 69 -82q35 0 67 32v301h194z" />
    <glyph glyph-name="v" unicode="v" horiz-adv-x="607" 
d="M602 492l-202 -492h-193l-202 492h203l96 -249l95 249h203z" />
    <glyph glyph-name="w" unicode="w" horiz-adv-x="823" 
d="M812 492l-156 -492h-180l-64 226l-65 -226h-180l-155 492h197l59 -235l70 235h147l70 -233l59 233h198z" />
    <glyph glyph-name="x" unicode="x" horiz-adv-x="577" 
d="M413 242l163 -242h-201l-86 128l-87 -128h-200l163 243l-163 250h210l76 -115l78 115h210l-164 -250z" />
    <glyph glyph-name="y" unicode="y" horiz-adv-x="649" 
d="M641 493l-293 -710h-202l89 216l-227 494h204l119 -261l107 261h203z" />
    <glyph glyph-name="z" unicode="z" horiz-adv-x="526" 
d="M499 392l-202 -232h202v-160h-472v97l209 236h-207v159h470v-100z" />
    <glyph glyph-name="braceleft" unicode="{" horiz-adv-x="383" 
d="M295 518v-86q0 -66 -16 -98t-63 -47q47 -17 63 -46.5t16 -92.5v-86q0 -21 18 -33.5t47 -12.5v-174q-119 0 -188.5 53.5t-69.5 147.5v117q0 37 -14.5 46.5t-64.5 9.5v141q50 0 64.5 9.5t14.5 46.5v124q0 94 69.5 147.5t188.5 53.5v-174q-29 0 -47 -12.5t-18 -33.5z" />
    <glyph glyph-name="bar" unicode="|" horiz-adv-x="339" 
d="M252 730v-890h-165v890h165z" />
    <glyph glyph-name="braceright" unicode="}" horiz-adv-x="388" 
d="M93 432v86q0 21 -18 33.5t-47 12.5v174q119 0 188.5 -53.5t69.5 -147.5v-124q0 -37 14.5 -46.5t64.5 -9.5v-141q-50 0 -64.5 -9.5t-14.5 -46.5v-117q0 -94 -69.5 -147.5t-188.5 -53.5v174q29 0 47 12.5t18 33.5v86q0 63 16 92.5t63 46.5q-47 15 -63 47t-16 98z" />
    <glyph glyph-name="asciitilde" unicode="~" horiz-adv-x="507" 
d="M334 429h160q0 -67 -24.5 -114t-64.5 -65q-38 -17 -80 -15.5t-76 21.5l-33 19q-43 25 -43 -28h-161q0 69 26 116t64.5 63.5t80 14.5t75.5 -22l32 -19q21 -13 32.5 -5t11.5 34z" />
    <glyph glyph-name="exclamdown" unicode="&#xa1;" horiz-adv-x="304" 
d="M248 419q0 -38 -28.5 -64t-67.5 -26t-67.5 26t-28.5 64q0 39 28 65.5t68 26.5t68 -26.5t28 -65.5zM51 -182l17 454h168l17 -454h-202z" />
    <glyph glyph-name="cent" unicode="&#xa2;" horiz-adv-x="588" 
d="M304 144q34 0 58 19.5t28 51.5h172q-5 -83 -55.5 -141t-132.5 -77v-97h-144v97q-93 20 -148 87t-55 163t55 163q56 68 148 88v114h144v-114q82 -19 132.5 -77t55.5 -141h-172q-4 32 -28 51.5t-58 19.5q-46 0 -72.5 -28.5t-26.5 -75.5t26.5 -75t72.5 -28z" />
    <glyph glyph-name="sterling" unicode="&#xa3;" horiz-adv-x="623" 
d="M269 165h317v-165h-559v165h52v99h-52v138h52v46q0 110 72 176t190 66q112 0 182 -61q72 -62 79 -166h-192q-10 61 -69 61q-33 0 -52.5 -20t-19.5 -56v-46h171v-138h-171v-99z" />
    <glyph glyph-name="yen" unicode="&#xa5;" horiz-adv-x="742" 
d="M552 334h103v-115h-165l-18 -34v-4h183v-115h-182v-66h-202v66h-183v115h182v4l-18 34h-164v115h102l-187 346h223l144 -268l146 268h223z" />
    <glyph glyph-name="brokenbar" unicode="&#xa6;" horiz-adv-x="339" 
d="M252 336h-165v394h165v-394zM252 -160h-165v394h165v-394z" />
    <glyph glyph-name="section" unicode="&#xa7;" horiz-adv-x="577" 
d="M554 251q0 -85 -70 -134q32 -44 32 -101q0 -80 -63 -129q-62 -50 -166 -50q-109 0 -176 55t-72 153h184q1 -25 16.5 -40t42.5 -15q39 0 39 29q0 23 -37 38l-109 44q-152 62 -152 175q0 87 70 133q-32 47 -32 102q0 79 63 129q64 50 166 50q108 0 175 -55q69 -55 73 -152
h-184q-1 24 -16.5 39.5t-42.5 15.5q-40 0 -40 -30q0 -23 38 -38l109 -44q152 -61 152 -175zM252 247l107 -44q23 8 23 29q0 24 -57 48l-108 44q-22 -7 -22 -29q0 -24 57 -48z" />
    <glyph glyph-name="dieresis" unicode="&#xa8;" 
d="M178 746q42 0 72 -28t30 -70t-29.5 -69.5t-72.5 -27.5t-72.5 27.5t-29.5 69.5t29.5 70t72.5 28zM422 746q42 0 72 -28t30 -70t-29.5 -69.5t-72.5 -27.5t-72.5 27.5t-29.5 69.5t29.5 70t72.5 28z" />
    <glyph glyph-name="copyright" unicode="&#xa9;" horiz-adv-x="797" 
d="M141 593q106 102 257 102q150 0 257 -102t107 -253t-107 -253t-257 -102q-151 0 -257 102q-107 102 -107 253t107 253zM211 155q78 -75 187 -75q108 0 186 75q79 76 79 185q0 108 -79 184t-186 76q-108 0 -187 -76q-78 -75 -78 -184q0 -110 78 -185zM399 397
q-23 0 -39.5 -17t-16.5 -39q0 -23 16 -39.5t40 -16.5q39 0 49 34h111q-5 -60 -49.5 -97.5t-110.5 -37.5q-72 0 -119 44q-46 45 -46 113t46 111q46 45 119 45q66 0 110.5 -37.5t49.5 -96.5h-111q-10 34 -49 34z" />
    <glyph glyph-name="ordfeminine" unicode="&#xaa;" horiz-adv-x="372" 
d="M186 686q75 0 120.5 -39t45.5 -102v-198h-124v11q-37 -17 -79 -17q-61 0 -99 28t-38 76q0 46 36 73t99 27h81q0 45 -42 45q-39 0 -42 -33h-120q2 61 47 95t115 34zM173 434q26 0 55 16v32h-68q-27 0 -27 -20q0 -12 11 -20t29 -8z" />
    <glyph glyph-name="guillemotleft" unicode="&#xab;" horiz-adv-x="514" 
d="M279 419l-99 -167l99 -167h-162l-99 167l99 167h162zM496 419l-99 -167l99 -167h-162l-99 167l99 167h162z" />
    <glyph glyph-name="registered" unicode="&#xae;" horiz-adv-x="543" 
d="M92 621q75 72 180 72t180 -72t75 -177t-75 -177q-76 -71 -180 -71t-180 71q-75 72 -75 177t75 177zM271 270q71 0 124 51t53 123q0 73 -53 124t-124 51t-124 -51q-52 -51 -52 -124q0 -72 52 -123t124 -51zM335 418l44 -66h-76l-31 51h-19v-51h-65v194h91q42 0 65 -19
t23 -54t-32 -55zM253 454h25q22 0 22 20q0 19 -22 19h-25v-39z" />
    <glyph glyph-name="overscore" unicode="&#xaf;" 
d="M447 707v-140h-294v140h294z" />
    <glyph glyph-name="degree" unicode="&#xb0;" horiz-adv-x="458" 
d="M98 645q53 50 131 50q77 0 130 -50t53 -127q0 -78 -53 -128t-130 -50q-78 0 -131 50q-52 49 -52 128q0 78 52 127zM297 518q0 28 -20 47t-48 19t-48 -19t-20 -47q0 -29 20 -48t48 -19t48 19t20 48z" />
    <glyph glyph-name="plusminus" unicode="&#xb1;" horiz-adv-x="655" 
d="M562 327h-164v-117h-140v117h-165v135h165v117h140v-117h164v-135zM562 172v-135h-469v135h469z" />
    <glyph glyph-name="twosuperior" unicode="&#xb2;" horiz-adv-x="378" 
d="M351 388v-114h-321v63l133 154q43 49 43 63q0 21 -24 21q-27 0 -29 -29h-125q1 70 42 110.5t115 40.5q73 0 119 -38q45 -37 45 -92q0 -31 -18 -62q-18 -34 -67 -92l-21 -25h108z" />
    <glyph glyph-name="threesuperior" unicode="&#xb3;" horiz-adv-x="388" 
d="M314 482q45 -27 45 -84q0 -59 -46.5 -96t-122.5 -37q-75 0 -117.5 37.5t-48.5 106.5h128q4 -36 41 -36q17 0 27 8.5t10 21.5q0 28 -44 28h-33v96h33q43 0 43 31q0 27 -34 27q-33 0 -35 -35h-128q4 68 45.5 106t114.5 38q72 0 115 -35.5t43 -95.5q0 -53 -36 -81z" />
    <glyph glyph-name="acute" unicode="&#xb4;" 
d="M494 729l-100 -171h-184l86 171h198z" />
    <glyph glyph-name="paragraph" unicode="&#xb6;" horiz-adv-x="764" 
d="M717 680v-840h-157v710h-59v-710h-156v360h-67q-112 0 -185 69t-73 179q0 102 74 167t184 65h439zM345 550h-67q-50 0 -81 -28.5t-31 -74.5q0 -49 31 -79.5t81 -30.5h67v213z" />
    <glyph glyph-name="middot" unicode="&#xb7;" horiz-adv-x="252" 
d="M126 183q-43 0 -73 28.5t-30 70.5q0 41 30 69t73 28q42 0 72 -28t30 -69q0 -42 -30 -70.5t-72 -28.5z" />
    <glyph glyph-name="cedilla" unicode="&#xb8;" 
d="M340 -246h-156l43 193h173z" />
    <glyph glyph-name="onesuperior" unicode="&#xb9;" horiz-adv-x="343" 
d="M338 389v-114h-318v114h98v157l-91 -24v123l136 45h84v-301h91z" />
    <glyph glyph-name="ordmasculine" unicode="&#xba;" horiz-adv-x="393" 
d="M379 514q0 -76 -51 -126q-52 -50 -131 -50t-131 50q-51 50 -51 126q0 74 51 123q50 49 131 49t131 -49q51 -49 51 -123zM197 446q27 0 45 19.5t18 47.5q0 27 -18 45.5t-45 18.5t-45.5 -18.5t-18.5 -45.5q0 -28 18.5 -47.5t45.5 -19.5z" />
    <glyph glyph-name="guillemotright" unicode="&#xbb;" horiz-adv-x="514" 
d="M279 252l-99 -167h-162l99 167l-99 167h162zM496 252l-99 -167h-162l99 167l-99 167h162z" />
    <glyph glyph-name="onequarter" unicode="&#xbc;" horiz-adv-x="973" 
d="M20 265v114h98v157l-91 -24v123l136 45h84v-301h91v-114h-318zM773 680l-443 -680h-127l443 680h127zM950 61h-44v-61h-131v61h-203v86l103 268h131l-83 -240h52v75h131v-75h44v-114z" />
    <glyph glyph-name="onehalf" unicode="&#xbd;" horiz-adv-x="948" 
d="M20 265v114h98v157l-91 -24v123l136 45h84v-301h91v-114h-318zM775 680l-443 -680h-127l443 680h127zM921 114v-114h-321v63l133 154q43 49 43 63q0 21 -24 21q-27 0 -29 -29h-125q1 70 42 110.5t115 40.5q73 0 119 -38q45 -37 45 -92q0 -31 -18 -62q-18 -34 -67 -92
l-21 -25h108z" />
    <glyph glyph-name="threequarters" unicode="&#xbe;" horiz-adv-x="967" 
d="M361 392q0 -59 -46.5 -96t-122.5 -37q-75 0 -117.5 37.5t-48.5 106.5h128q4 -36 41 -36q17 0 27 8.5t10 21.5q0 28 -44 28h-33v96h33q43 0 43 31q0 27 -34 27q-33 0 -35 -35h-128q4 68 45.5 106t114.5 38q72 0 115 -35.5t43 -95.5q0 -53 -36 -81q45 -27 45 -84zM766 680
l-443 -680h-126l443 680h126zM943 61h-44v-61h-131v61h-202v86l103 268h130l-83 -240h52v75h131v-75h44v-114z" />
    <glyph glyph-name="questiondown" unicode="&#xbf;" horiz-adv-x="554" 
d="M304 554q39 0 67 -26.5t28 -65.5q0 -38 -28 -64t-67 -26t-67.5 26t-28.5 64q0 39 28 65.5t68 26.5zM370 317l10 -168h-91q-39 0 -63 -19.5t-24 -52.5q0 -31 21 -49.5t55 -18.5q36 0 57 18.5t23 51.5h183q-5 -106 -72.5 -166t-186.5 -60q-112 0 -183 62q-70 61 -70 163
q0 75 52 126t142 65l4 48h143z" />
    <glyph glyph-name="Agrave" unicode="&#xc0;" horiz-adv-x="773" 
d="M305 745l-100 171h198l86 -171h-184zM517 97h-261l-35 -97h-215l282 684h198l282 -684h-215zM457 261l-71 193l-70 -193h141z" />
    <glyph glyph-name="Aacute" unicode="&#xc1;" horiz-adv-x="773" 
d="M485 745h-184l86 171h198zM517 97h-261l-35 -97h-215l282 684h198l282 -684h-215zM457 261l-71 193l-70 -193h141z" />
    <glyph glyph-name="Acircumflex" unicode="&#xc2;" horiz-adv-x="773" 
d="M339 745h-159l114 171h183l115 -171h-159l-47 60zM517 97h-261l-35 -97h-215l282 684h198l282 -684h-215zM457 261l-71 193l-70 -193h141z" />
    <glyph glyph-name="Atilde" unicode="&#xc3;" horiz-adv-x="773" 
d="M388 748l-27 17q-37 23 -37 -24h-132q0 57 21.5 95.5t53 53t66.5 13.5t63 -19l27 -17q37 -23 37 24h132q0 -56 -21.5 -95t-53.5 -53.5t-66.5 -13.5t-62.5 19zM517 97h-261l-35 -97h-215l282 684h198l282 -684h-215zM457 261l-71 193l-70 -193h141z" />
    <glyph glyph-name="Adieresis" unicode="&#xc4;" horiz-adv-x="773" 
d="M264 933q42 0 72 -28t30 -70t-29.5 -69.5t-72.5 -27.5t-72.5 27.5t-29.5 69.5t29.5 70t72.5 28zM508 933q42 0 72 -28t30 -70t-29.5 -69.5t-72.5 -27.5t-72.5 27.5t-29.5 69.5t29.5 70t72.5 28zM517 97h-261l-35 -97h-215l282 684h198l282 -684h-215zM457 261l-71 193
l-70 -193h141z" />
    <glyph glyph-name="Aring" unicode="&#xc5;" horiz-adv-x="773" 
d="M481 769q-37 -34 -95 -34q-59 0 -95 33t-36 89q0 55 36 88q37 34 95 34t95 -34t37 -88t-37 -88zM341 857q-3 -26 21 -37t48 0t21 37q3 27 -21 38.5t-48 0t-21 -38.5zM517 97h-261l-35 -97h-215l282 684h198l282 -684h-215zM457 261l-71 193l-70 -193h141z" />
    <glyph glyph-name="AE" unicode="&#xc6;" horiz-adv-x="1123" 
d="M766 511v-91h280v-162h-280v-89h327v-169h-528v97h-253l-64 -97h-242l476 680h611v-169h-327zM565 261v219l-144 -219h144z" />
    <glyph glyph-name="Ccedilla" unicode="&#xc7;" horiz-adv-x="784" 
d="M398 172q59 0 97 33t47 88h208q-11 -138 -106 -223t-243 -85q-161 0 -264 100t-103 255q0 154 103 254q104 101 264 101q146 0 243 -86q95 -85 106 -222h-208q-9 55 -47 88t-97 33q-72 0 -116 -48q-43 -47 -43 -120t43 -120q44 -48 116 -48zM312 -53h173l-60 -193h-156z
" />
    <glyph glyph-name="Egrave" unicode="&#xc8;" horiz-adv-x="609" 
d="M227 745l-100 171h198l86 -171h-184zM251 511v-91h281v-162h-281v-89h327v-169h-528v680h528v-169h-327z" />
    <glyph glyph-name="Eacute" unicode="&#xc9;" horiz-adv-x="609" 
d="M406 745h-184l86 171h198zM251 511v-91h281v-162h-281v-89h327v-169h-528v680h528v-169h-327z" />
    <glyph glyph-name="Ecircumflex" unicode="&#xca;" horiz-adv-x="609" 
d="M261 745h-159l114 171h183l115 -171h-159l-47 60zM251 511v-91h281v-162h-281v-89h327v-169h-528v680h528v-169h-327z" />
    <glyph glyph-name="Edieresis" unicode="&#xcb;" horiz-adv-x="609" 
d="M186 933q42 0 72 -28t30 -70t-29.5 -69.5t-72.5 -27.5t-72.5 27.5t-29.5 69.5t29.5 70t72.5 28zM430 933q42 0 72 -28t30 -70t-29.5 -69.5t-72.5 -27.5t-72.5 27.5t-29.5 69.5t29.5 70t72.5 28zM251 511v-91h281v-162h-281v-89h327v-169h-528v680h528v-169h-327z" />
    <glyph glyph-name="Igrave" unicode="&#xcc;" horiz-adv-x="301" 
d="M251 680v-680h-201v680h201zM253 745h-184l-100 171h198z" />
    <glyph glyph-name="Iacute" unicode="&#xcd;" horiz-adv-x="301" 
d="M349 916l-100 -171h-184l86 171h198zM251 680v-680h-201v680h201z" />
    <glyph glyph-name="Icircumflex" unicode="&#xce;" horiz-adv-x="301" 
d="M150 805l-47 -60h-159l114 171h183l115 -171h-159zM251 680v-680h-201v680h201z" />
    <glyph glyph-name="Idieresis" unicode="&#xcf;" horiz-adv-x="301" 
d="M28 933q42 0 72 -28t30 -70t-29.5 -69.5t-72.5 -27.5t-72.5 27.5t-29.5 69.5t29.5 70t72.5 28zM272 933q42 0 72 -28t30 -70t-29.5 -69.5t-72.5 -27.5t-72.5 27.5t-29.5 69.5t29.5 70t72.5 28zM251 680v-680h-201v680h201z" />
    <glyph glyph-name="Eth" unicode="&#xd0;" horiz-adv-x="737" 
d="M50 680h285q163 0 267 -93q103 -93 103 -246q0 -154 -103 -248q-102 -93 -267 -93h-285v255h-43v166h43v259zM251 178h84q72 0 118 46q47 47 47 117t-47 115q-46 46 -118 46h-84v-81h104v-166h-104v-77z" />
    <glyph glyph-name="Ntilde" unicode="&#xd1;" horiz-adv-x="742" 
d="M373 748l-27 17q-37 23 -37 -24h-132q0 57 21.5 95.5t53 53t66.5 13.5t63 -19l27 -17q37 -23 37 24h132q0 -56 -21.5 -95t-53.5 -53.5t-66.5 -13.5t-62.5 19zM691 680v-680h-156l-284 321v-321h-201v680h157l283 -327v327h201z" />
    <glyph glyph-name="Ograve" unicode="&#xd2;" horiz-adv-x="802" 
d="M504 745h-184l-100 171h198zM401 695q159 0 262 -102q104 -101 104 -253t-104 -254q-104 -101 -262 -101q-160 0 -264 101q-103 102 -103 254q0 153 103 253q103 102 264 102zM285 223q46 -49 116 -49t116 49t46 117t-46 117t-116 49t-116 -49t-46 -117t46 -117z" />
    <glyph glyph-name="Oacute" unicode="&#xd3;" horiz-adv-x="802" 
d="M599 916l-100 -171h-184l86 171h198zM401 695q159 0 262 -102q104 -101 104 -253t-104 -254q-104 -101 -262 -101q-160 0 -264 101q-103 102 -103 254q0 153 103 253q103 102 264 102zM285 223q46 -49 116 -49t116 49t46 117t-46 117t-116 49t-116 -49t-46 -117t46 -117z
" />
    <glyph glyph-name="Ocircumflex" unicode="&#xd4;" horiz-adv-x="802" 
d="M401 805l-47 -60h-159l114 171h183l115 -171h-159zM401 695q159 0 262 -102q104 -101 104 -253t-104 -254q-104 -101 -262 -101q-160 0 -264 101q-103 102 -103 254q0 153 103 253q103 102 264 102zM285 223q46 -49 116 -49t116 49t46 117t-46 117t-116 49t-116 -49
t-46 -117t46 -117z" />
    <glyph glyph-name="Otilde" unicode="&#xd5;" horiz-adv-x="802" 
d="M475 891h132q0 -56 -21.5 -95t-53.5 -53.5t-66.5 -13.5t-62.5 19l-27 17q-37 23 -37 -24h-132q0 57 21.5 95.5t53 53t66.5 13.5t63 -19l27 -17q37 -23 37 24zM401 695q159 0 262 -102q104 -101 104 -253t-104 -254q-104 -101 -262 -101q-160 0 -264 101
q-103 102 -103 254q0 153 103 253q103 102 264 102zM285 223q46 -49 116 -49t116 49t46 117t-46 117t-116 49t-116 -49t-46 -117t46 -117z" />
    <glyph glyph-name="Odieresis" unicode="&#xd6;" horiz-adv-x="802" 
d="M279 933q42 0 72 -28t30 -70t-29.5 -69.5t-72.5 -27.5t-72.5 27.5t-29.5 69.5t29.5 70t72.5 28zM523 933q42 0 72 -28t30 -70t-29.5 -69.5t-72.5 -27.5t-72.5 27.5t-29.5 69.5t29.5 70t72.5 28zM401 695q159 0 262 -102q104 -101 104 -253t-104 -254q-104 -101 -262 -101
q-160 0 -264 101q-103 102 -103 254q0 153 103 253q103 102 264 102zM285 223q46 -49 116 -49t116 49t46 117t-46 117t-116 49t-116 -49t-46 -117t46 -117z" />
    <glyph glyph-name="multiply" unicode="&#xd7;" horiz-adv-x="627" 
d="M546 184l-96 -96l-136 137l-137 -137l-96 96l137 137l-137 136l96 96l137 -136l136 136l96 -96l-136 -136z" />
    <glyph glyph-name="Oslash" unicode="&#xd8;" horiz-adv-x="802" 
d="M707 635l-39 -46q99 -99 99 -249q0 -152 -104 -254q-104 -101 -262 -101q-110 0 -197 51l-44 -53l-74 63l42 50q-94 100 -94 244q0 153 103 253q103 102 264 102q104 0 190 -47l42 50zM239 340q0 -47 22 -85l201 239q-27 12 -61 12q-70 0 -116 -49t-46 -117zM401 174
q70 0 116 49t46 117q0 51 -26 92l-204 -243q30 -15 68 -15z" />
    <glyph glyph-name="Ugrave" unicode="&#xd9;" horiz-adv-x="736" 
d="M696 680v-351q0 -165 -85.5 -254.5t-242.5 -89.5t-242.5 89.5t-85.5 254.5v351h204v-358q0 -70 33 -109.5t91 -39.5t91 39.5t33 109.5v358h204zM471 745h-184l-100 171h198z" />
    <glyph glyph-name="Uacute" unicode="&#xda;" horiz-adv-x="736" 
d="M696 680v-351q0 -165 -85.5 -254.5t-242.5 -89.5t-242.5 89.5t-85.5 254.5v351h204v-358q0 -70 33 -109.5t91 -39.5t91 39.5t33 109.5v358h204zM566 916l-100 -171h-184l86 171h198z" />
    <glyph glyph-name="Ucircumflex" unicode="&#xdb;" horiz-adv-x="736" 
d="M696 680v-351q0 -165 -85.5 -254.5t-242.5 -89.5t-242.5 89.5t-85.5 254.5v351h204v-358q0 -70 33 -109.5t91 -39.5t91 39.5t33 109.5v358h204zM368 805l-47 -60h-159l114 171h183l115 -171h-159z" />
    <glyph glyph-name="Udieresis" unicode="&#xdc;" horiz-adv-x="736" 
d="M696 680v-351q0 -165 -85.5 -254.5t-242.5 -89.5t-242.5 89.5t-85.5 254.5v351h204v-358q0 -70 33 -109.5t91 -39.5t91 39.5t33 109.5v358h204zM246 933q42 0 72 -28t30 -70t-29.5 -69.5t-72.5 -27.5t-72.5 27.5t-29.5 69.5t29.5 70t72.5 28zM490 933q42 0 72 -28t30 -70
t-29.5 -69.5t-72.5 -27.5t-72.5 27.5t-29.5 69.5t29.5 70t72.5 28z" />
    <glyph glyph-name="Yacute" unicode="&#xdd;" horiz-adv-x="742" 
d="M469 745h-184l86 171h198zM472 185l1 -185h-202l-1 185l-267 495h223l144 -268l146 268h223z" />
    <glyph glyph-name="Thorn" unicode="&#xde;" horiz-adv-x="656" 
d="M251 602h85q144 0 225 -68.5t81 -190.5q0 -125 -82.5 -194.5t-230.5 -69.5h-78v-79h-201v680h201v-78zM251 250h83q49 0 76.5 24.5t27.5 68.5q0 41 -27.5 64.5t-76.5 23.5h-83v-181z" />
    <glyph glyph-name="germandbls" unicode="&#xdf;" horiz-adv-x="707" 
d="M651 391l-116 -158q74 -22 116.5 -75.5t42.5 -130.5q0 -108 -74 -179t-201 -71q-79 0 -166 23v161q83 -18 136 -18q45 0 72 22.5t27 58.5q0 34 -23 54.5t-64 20.5h-88v77l103 150h-175v-326h-193v534q0 111 71 177q72 66 190 66v-176q-31 0 -49.5 -17.5t-18.5 -49.5v-42
h410v-101z" />
    <glyph glyph-name="agrave" unicode="&#xe0;" horiz-adv-x="640" 
d="M242 558l-100 171h198l86 -171h-184zM592 492v-492h-194v25q-56 -34 -127 -34q-100 0 -172 73q-72 74 -72 184t72 184t172 74q71 0 127 -34v20h194zM316 142q45 0 82 32v149q-35 31 -82 31q-44 0 -73.5 -30t-29.5 -76q0 -45 30 -75.5t73 -30.5z" />
    <glyph glyph-name="aacute" unicode="&#xe1;" horiz-adv-x="640" 
d="M434 558h-184l86 171h198zM592 492v-492h-194v25q-56 -34 -127 -34q-100 0 -172 73q-72 74 -72 184t72 184t172 74q71 0 127 -34v20h194zM316 142q45 0 82 32v149q-35 31 -82 31q-44 0 -73.5 -30t-29.5 -76q0 -45 30 -75.5t73 -30.5z" />
    <glyph glyph-name="acircumflex" unicode="&#xe2;" horiz-adv-x="640" 
d="M289 556h-159l114 171h183l115 -171h-159l-47 60zM592 492v-492h-194v25q-56 -34 -127 -34q-100 0 -172 73q-72 74 -72 184t72 184t172 74q71 0 127 -34v20h194zM316 142q45 0 82 32v149q-35 31 -82 31q-44 0 -73.5 -30t-29.5 -76q0 -45 30 -75.5t73 -30.5z" />
    <glyph glyph-name="atilde" unicode="&#xe3;" horiz-adv-x="640" 
d="M338 575l-27 17q-37 23 -37 -24h-132q0 57 21.5 95.5t53 53t66.5 13.5t63 -19l27 -17q37 -23 37 24h132q0 -56 -21.5 -95t-53.5 -53.5t-66.5 -13.5t-62.5 19zM592 492v-492h-194v25q-56 -34 -127 -34q-100 0 -172 73q-72 74 -72 184t72 184t172 74q71 0 127 -34v20h194z
M316 142q45 0 82 32v149q-35 31 -82 31q-44 0 -73.5 -30t-29.5 -76q0 -45 30 -75.5t73 -30.5z" />
    <glyph glyph-name="adieresis" unicode="&#xe4;" horiz-adv-x="640" 
d="M214 746q42 0 72 -28t30 -70t-29.5 -69.5t-72.5 -27.5t-72.5 27.5t-29.5 69.5t29.5 70t72.5 28zM458 746q42 0 72 -28t30 -70t-29.5 -69.5t-72.5 -27.5t-72.5 27.5t-29.5 69.5t29.5 70t72.5 28zM592 492v-492h-194v25q-56 -34 -127 -34q-100 0 -172 73q-72 74 -72 184
t72 184t172 74q71 0 127 -34v20h194zM316 142q45 0 82 32v149q-35 31 -82 31q-44 0 -73.5 -30t-29.5 -76q0 -45 30 -75.5t73 -30.5z" />
    <glyph glyph-name="aring" unicode="&#xe5;" horiz-adv-x="640" 
d="M430 589q-37 -34 -95 -34q-59 0 -95 33t-36 89q0 55 36 88q37 34 95 34t95 -34t37 -88t-37 -88zM290 677q-3 -26 21 -37t48 0t21 37q3 27 -21 38.5t-48 0t-21 -38.5zM592 492v-492h-194v25q-56 -34 -127 -34q-100 0 -172 73q-72 74 -72 184t72 184t172 74q71 0 127 -34
v20h194zM316 142q45 0 82 32v149q-35 31 -82 31q-44 0 -73.5 -30t-29.5 -76q0 -45 30 -75.5t73 -30.5z" />
    <glyph glyph-name="ae" unicode="&#xe6;" horiz-adv-x="904" 
d="M877 257q0 -29 -2 -53h-340q19 -70 93 -70q46 0 66 33h180q-13 -80 -82 -130q-68 -48 -163 -48q-126 0 -206 77q-45 -38 -88 -56.5t-102 -18.5q-93 0 -149.5 42.5t-56.5 113.5q0 69 54.5 109.5t149.5 40.5h125q0 32 -16.5 51t-47.5 19q-27 0 -45 -13.5t-20 -36.5h-178
q4 91 71 140.5t180 49.5q94 0 155 -48q68 47 160 47q115 0 188 -69q74 -68 74 -180zM620 367q-67 0 -87 -71h173q-14 71 -86 71zM269 131q43 0 96 32q-6 20 -9 41h-106q-43 0 -43 -31q0 -19 16.5 -30.5t45.5 -11.5z" />
    <glyph glyph-name="ccedilla" unicode="&#xe7;" horiz-adv-x="588" 
d="M304 144q34 0 58 19.5t28 51.5h172q-6 -101 -79 -164q-73 -62 -180 -62q-123 0 -199 72q-77 72 -77 186q0 115 77 187q76 72 199 72q106 0 180 -63q73 -63 79 -163h-172q-4 32 -28 51.5t-58 19.5q-46 0 -72.5 -28.5t-26.5 -75.5t26.5 -75t72.5 -28zM214 -53h173l-60 -193
h-156z" />
    <glyph glyph-name="egrave" unicode="&#xe8;" horiz-adv-x="578" 
d="M198 558l-100 171h198l86 -171h-184zM551 257q0 -29 -2 -53h-1h-339q19 -70 93 -70q46 0 66 33h181q-15 -80 -83 -130q-68 -48 -163 -48q-123 0 -200 71q-76 72 -76 187t72 187q73 72 191 72q114 0 187 -69q74 -68 74 -180zM294 367q-66 0 -86 -71h172q-14 71 -86 71z
" />
    <glyph glyph-name="eacute" unicode="&#xe9;" horiz-adv-x="578" 
d="M390 558h-184l86 171h198zM551 257q0 -29 -2 -53h-1h-339q19 -70 93 -70q46 0 66 33h181q-15 -80 -83 -130q-68 -48 -163 -48q-123 0 -200 71q-76 72 -76 187t72 187q73 72 191 72q114 0 187 -69q74 -68 74 -180zM294 367q-66 0 -86 -71h172q-14 71 -86 71z" />
    <glyph glyph-name="ecircumflex" unicode="&#xea;" horiz-adv-x="578" 
d="M245 556h-159l114 171h183l115 -171h-159l-47 60zM551 257q0 -29 -2 -53h-1h-339q19 -70 93 -70q46 0 66 33h181q-15 -80 -83 -130q-68 -48 -163 -48q-123 0 -200 71q-76 72 -76 187t72 187q73 72 191 72q114 0 187 -69q74 -68 74 -180zM294 367q-66 0 -86 -71h172
q-14 71 -86 71z" />
    <glyph glyph-name="edieresis" unicode="&#xeb;" horiz-adv-x="578" 
d="M170 746q42 0 72 -28t30 -70t-29.5 -69.5t-72.5 -27.5t-72.5 27.5t-29.5 69.5t29.5 70t72.5 28zM414 746q42 0 72 -28t30 -70t-29.5 -69.5t-72.5 -27.5t-72.5 27.5t-29.5 69.5t29.5 70t72.5 28zM551 257q0 -29 -2 -53h-1h-339q19 -70 93 -70q46 0 66 33h181
q-15 -80 -83 -130q-68 -48 -163 -48q-123 0 -200 71q-76 72 -76 187t72 187q73 72 191 72q114 0 187 -69q74 -68 74 -180zM294 367q-66 0 -86 -71h172q-14 71 -86 71z" />
    <glyph glyph-name="igrave" unicode="&#xec;" horiz-adv-x="292" 
d="M243 492v-492h-194v492h194zM236 558h-184l-100 171h198z" />
    <glyph glyph-name="iacute" unicode="&#xed;" horiz-adv-x="292" 
d="M344 729l-100 -171h-184l86 171h198zM243 492v-492h-194v492h194z" />
    <glyph glyph-name="icircumflex" unicode="&#xee;" horiz-adv-x="292" 
d="M146 616l-47 -60h-159l114 171h183l115 -171h-159zM243 492v-492h-194v492h194z" />
    <glyph glyph-name="idieresis" unicode="&#xef;" horiz-adv-x="292" 
d="M24 746q42 0 72 -28t30 -70t-29.5 -69.5t-72.5 -27.5t-72.5 27.5t-29.5 69.5t29.5 70t72.5 28zM268 746q42 0 72 -28t30 -70t-29.5 -69.5t-72.5 -27.5t-72.5 27.5t-29.5 69.5t29.5 70t72.5 28zM243 492v-492h-194v492h194z" />
    <glyph glyph-name="eth" unicode="&#xf0;" horiz-adv-x="598" 
d="M478 631l-54 -20q148 -154 148 -364q0 -112 -77 -187t-196 -75t-196 75q-76 75 -76 187t76 185q77 74 196 74q21 0 27 -1q-20 27 -49 53l-152 -55l-35 92l89 32l-73 41l147 67q37 -18 86 -50l104 37zM229 175q26 -29 70 -29q42 0 69 29q27 30 27 71t-27 69q-27 29 -69 29
q-41 0 -70 -29q-27 -28 -27.5 -69.5t27.5 -70.5z" />
    <glyph glyph-name="ntilde" unicode="&#xf1;" horiz-adv-x="614" 
d="M309 575l-27 17q-37 23 -37 -24h-132q0 57 21.5 95.5t53 53t66.5 13.5t63 -19l27 -17q37 -23 37 24h132q0 -56 -21.5 -95t-53.5 -53.5t-66.5 -13.5t-62.5 19zM369 507q92 0 147 -57t55 -156v-294h-193v252q0 41 -19 61.5t-51 20.5q-34 0 -66 -32v-302h-194v492h194v-28
q55 43 127 43z" />
    <glyph glyph-name="ograve" unicode="&#xf2;" horiz-adv-x="598" 
d="M389 558h-184l-100 171h198zM572 247q0 -112 -77 -187t-195 -75q-120 0 -197 75q-76 75 -76 187t76 185q77 74 197 74q119 0 196 -74q76 -73 76 -185zM299 146q41 0 68.5 29t27.5 71t-27 70t-69 28t-69.5 -28t-27.5 -70t27.5 -71t69.5 -29z" />
    <glyph glyph-name="oacute" unicode="&#xf3;" horiz-adv-x="598" 
d="M497 729l-100 -171h-184l86 171h198zM572 247q0 -112 -77 -187t-195 -75q-120 0 -197 75q-76 75 -76 187t76 185q77 74 197 74q119 0 196 -74q76 -73 76 -185zM299 146q41 0 68.5 29t27.5 71t-27 70t-69 28t-69.5 -28t-27.5 -70t27.5 -71t69.5 -29z" />
    <glyph glyph-name="ocircumflex" unicode="&#xf4;" horiz-adv-x="598" 
d="M299 616l-47 -60h-159l114 171h183l115 -171h-159zM572 247q0 -112 -77 -187t-195 -75q-120 0 -197 75q-76 75 -76 187t76 185q77 74 197 74q119 0 196 -74q76 -73 76 -185zM299 146q41 0 68.5 29t27.5 71t-27 70t-69 28t-69.5 -28t-27.5 -70t27.5 -71t69.5 -29z" />
    <glyph glyph-name="otilde" unicode="&#xf5;" horiz-adv-x="598" 
d="M373 718h132q0 -56 -21.5 -95t-53.5 -53.5t-66.5 -13.5t-62.5 19l-27 17q-37 23 -37 -24h-132q0 57 21.5 95.5t53 53t66.5 13.5t63 -19l27 -17q37 -23 37 24zM572 247q0 -112 -77 -187t-195 -75q-120 0 -197 75q-76 75 -76 187t76 185q77 74 197 74q119 0 196 -74
q76 -73 76 -185zM299 146q41 0 68.5 29t27.5 71t-27 70t-69 28t-69.5 -28t-27.5 -70t27.5 -71t69.5 -29z" />
    <glyph glyph-name="odieresis" unicode="&#xf6;" horiz-adv-x="598" 
d="M177 746q42 0 72 -28t30 -70t-29.5 -69.5t-72.5 -27.5t-72.5 27.5t-29.5 69.5t29.5 70t72.5 28zM421 746q42 0 72 -28t30 -70t-29.5 -69.5t-72.5 -27.5t-72.5 27.5t-29.5 69.5t29.5 70t72.5 28zM572 247q0 -112 -77 -187t-195 -75q-120 0 -197 75q-76 75 -76 187t76 185
q77 74 197 74q119 0 196 -74q76 -73 76 -185zM299 146q41 0 68.5 29t27.5 71t-27 70t-69 28t-69.5 -28t-27.5 -70t27.5 -71t69.5 -29z" />
    <glyph glyph-name="divide" unicode="&#xf7;" horiz-adv-x="682" 
d="M406 467q-27 -25 -65 -25t-65 25q-28 26 -27.5 62.5t27.5 62.5q28 26 65 26t65 -26q27 -26 27.5 -62.5t-27.5 -62.5zM93 392h496v-135h-496v135zM406 58q-27 -26 -65 -26t-65 26q-28 26 -27.5 62.5t27.5 62.5q28 25 65 25t65 -25q27 -26 27.5 -62.5t-27.5 -62.5z" />
    <glyph glyph-name="oslash" unicode="&#xf8;" horiz-adv-x="598" 
d="M526 462l-27 -33q73 -73 73 -182q0 -112 -77 -187t-195 -75q-80 0 -145 36l-34 -41l-56 45l33 40q-71 74 -71 182q0 112 76 185q77 74 197 74q80 0 141 -34l29 35zM202 246q0 -25 10 -46l117 139q-17 5 -30 5q-42 0 -69.5 -28t-27.5 -70zM299 146q41 0 68.5 29t27.5 71
q0 23 -11 47l-119 -141q17 -6 34 -6z" />
    <glyph glyph-name="ugrave" unicode="&#xf9;" horiz-adv-x="614" 
d="M213 558l-100 171h198l86 -171h-184zM566 492v-492h-194v29q-59 -44 -128 -44q-92 0 -147 57t-55 156v294h194v-251q0 -82 69 -82q35 0 67 32v301h194z" />
    <glyph glyph-name="uacute" unicode="&#xfa;" horiz-adv-x="614" 
d="M405 558h-184l86 171h198zM566 492v-492h-194v29q-59 -44 -128 -44q-92 0 -147 57t-55 156v294h194v-251q0 -82 69 -82q35 0 67 32v301h194z" />
    <glyph glyph-name="ucircumflex" unicode="&#xfb;" horiz-adv-x="614" 
d="M260 556h-159l114 171h183l115 -171h-159l-47 60zM566 492v-492h-194v29q-59 -44 -128 -44q-92 0 -147 57t-55 156v294h194v-251q0 -82 69 -82q35 0 67 32v301h194z" />
    <glyph glyph-name="udieresis" unicode="&#xfc;" horiz-adv-x="614" 
d="M566 492v-492h-194v29q-59 -44 -128 -44q-92 0 -147 57t-55 156v294h194v-251q0 -82 69 -82q35 0 67 32v301h194zM185 746q42 0 72 -28t30 -70t-29.5 -69.5t-72.5 -27.5t-72.5 27.5t-29.5 69.5t29.5 70t72.5 28zM429 746q42 0 72 -28t30 -70t-29.5 -69.5t-72.5 -27.5
t-72.5 27.5t-29.5 69.5t29.5 70t72.5 28z" />
    <glyph glyph-name="yacute" unicode="&#xfd;" horiz-adv-x="649" 
d="M428 558h-184l86 171h198zM641 493l-292 -710h-203l89 216l-227 494h203l120 -261l107 261h203z" />
    <glyph glyph-name="thorn" unicode="&#xfe;" horiz-adv-x="637" 
d="M369 506q100 0 172 -74q72 -73 72 -184q0 -110 -72 -184q-72 -73 -172 -73q-72 0 -128 34v-243h-193v898h193v-208q56 34 128 34zM324 142q43 0 73 30.5t30 75.5q0 46 -29.5 76t-73.5 30q-46 0 -83 -32v-147q36 -33 83 -33z" />
    <glyph glyph-name="ydieresis" unicode="&#xff;" horiz-adv-x="649" 
d="M208 746q42 0 72 -28t30 -70t-29.5 -69.5t-72.5 -27.5t-72.5 27.5t-29.5 69.5t29.5 70t72.5 28zM452 746q42 0 72 -28t30 -70t-29.5 -69.5t-72.5 -27.5t-72.5 27.5t-29.5 69.5t29.5 70t72.5 28zM641 493l-292 -710h-203l89 216l-227 494h203l120 -261l107 261h203z" />
    <glyph glyph-name="Amacron" unicode="&#x100;" horiz-adv-x="773" 
d="M534 748h-294v140h294v-140zM517 97h-261l-35 -97h-215l282 684h198l282 -684h-215zM457 261l-71 193l-70 -193h141z" />
    <glyph glyph-name="amacron" unicode="&#x101;" horiz-adv-x="640" 
d="M483 567h-294v140h294v-140zM592 492v-492h-194v25q-56 -34 -127 -34q-100 0 -172 73q-72 74 -72 184t72 184t172 74q71 0 127 -34v20h194zM316 142q45 0 82 32v149q-35 31 -82 31q-44 0 -73.5 -30t-29.5 -76q0 -45 30 -75.5t73 -30.5z" />
    <glyph glyph-name="Abreve" unicode="&#x102;" horiz-adv-x="773" 
d="M197 919h134q-2 -36 27 -51t58 0t27 51h134q0 -83 -52 -131.5t-138 -48.5t-138 48.5t-52 131.5zM517 97h-261l-35 -97h-215l282 684h198l282 -684h-215zM457 261l-71 193l-70 -193h141z" />
    <glyph glyph-name="abreve" unicode="&#x103;" horiz-adv-x="640" 
d="M146 727h134q-2 -36 27 -51t58 0t27 51h134q0 -83 -52 -131.5t-138 -48.5t-138 48.5t-52 131.5zM592 492v-492h-194v25q-56 -34 -127 -34q-100 0 -172 73q-72 74 -72 184t72 184t172 74q71 0 127 -34v20h194zM316 142q45 0 82 32v149q-35 31 -82 31q-44 0 -73.5 -30
t-29.5 -76q0 -45 30 -75.5t73 -30.5z" />
    <glyph glyph-name="Aogonek" unicode="&#x104;" horiz-adv-x="773" 
d="M761 -47l18 -144q-32 -17 -91 -17q-76 0 -129 36q-52 36 -52 101q0 44 41 85l-31 83h-261l-35 -97h-215l282 684h198l282 -684h-81q-21 -10 -21 -29q0 -26 43 -26q22 0 52 8zM457 261l-71 193l-70 -193h141z" />
    <glyph glyph-name="aogonek" unicode="&#x105;" horiz-adv-x="640" 
d="M603 -49l18 -144q-32 -17 -91 -17q-76 0 -129 36q-52 36 -52 101q0 51 49 93v5q-56 -34 -127 -34q-100 0 -172 73q-72 74 -72 184t72 184t172 74q71 0 127 -34v20h194v-492h-58q-26 -11 -26 -31q0 -26 43 -26q22 0 52 8zM316 142q45 0 82 32v149q-35 31 -82 31
q-44 0 -73.5 -30t-29.5 -76q0 -45 30 -75.5t73 -30.5z" />
    <glyph glyph-name="Cacute" unicode="&#x106;" horiz-adv-x="784" 
d="M494 745h-184l86 171h198zM398 172q59 0 97 33t47 88h208q-11 -138 -106 -223t-243 -85q-161 0 -264 100t-103 255q0 154 103 254q104 101 264 101q146 0 243 -86q95 -85 106 -222h-208q-9 55 -47 88t-97 33q-72 0 -116 -48q-43 -47 -43 -120t43 -120q44 -48 116 -48z
" />
    <glyph glyph-name="cacute" unicode="&#x107;" horiz-adv-x="588" 
d="M398 558h-184l86 171h198zM304 144q34 0 58 19.5t28 51.5h172q-6 -101 -79 -164q-73 -62 -180 -62q-123 0 -199 72q-77 72 -77 186q0 115 77 187q76 72 199 72q106 0 180 -63q73 -63 79 -163h-172q-4 32 -28 51.5t-58 19.5q-46 0 -72.5 -28.5t-26.5 -75.5t26.5 -75
t72.5 -28z" />
    <glyph glyph-name="Cdotaccent" unicode="&#x10a;" horiz-adv-x="784" 
d="M396 933q42 0 72 -28t30 -70t-29.5 -69.5t-72.5 -27.5t-72.5 27.5t-29.5 69.5t29.5 70t72.5 28zM398 172q59 0 97 33t47 88h208q-11 -138 -106 -223t-243 -85q-161 0 -264 100t-103 255q0 154 103 254q104 101 264 101q146 0 243 -86q95 -85 106 -222h-208q-9 55 -47 88
t-97 33q-72 0 -116 -48q-43 -47 -43 -120t43 -120q44 -48 116 -48z" />
    <glyph glyph-name="cdotaccent" unicode="&#x10b;" horiz-adv-x="588" 
d="M300 746q42 0 72 -28t30 -70t-29.5 -69.5t-72.5 -27.5t-72.5 27.5t-29.5 69.5t29.5 70t72.5 28zM304 144q34 0 58 19.5t28 51.5h172q-6 -101 -79 -164q-73 -62 -180 -62q-123 0 -199 72q-77 72 -77 186q0 115 77 187q76 72 199 72q106 0 180 -63q73 -63 79 -163h-172
q-4 32 -28 51.5t-58 19.5q-46 0 -72.5 -28.5t-26.5 -75.5t26.5 -75t72.5 -28z" />
    <glyph glyph-name="Ccaron" unicode="&#x10c;" horiz-adv-x="784" 
d="M301 735l-115 165h162l47 -60l47 60h162l-115 -165h-188zM398 172q59 0 97 33t47 88h208q-11 -138 -106 -223t-243 -85q-161 0 -264 100t-103 255q0 154 103 254q104 101 264 101q146 0 243 -86q95 -85 106 -222h-208q-9 55 -47 88t-97 33q-72 0 -116 -48
q-43 -47 -43 -120t43 -120q44 -48 116 -48z" />
    <glyph glyph-name="ccaron" unicode="&#x10d;" horiz-adv-x="588" 
d="M206 559l-115 165h162l47 -60l47 60h162l-115 -165h-188zM304 144q34 0 58 19.5t28 51.5h172q-6 -101 -79 -164q-73 -62 -180 -62q-123 0 -199 72q-77 72 -77 186q0 115 77 187q76 72 199 72q106 0 180 -63q73 -63 79 -163h-172q-4 32 -28 51.5t-58 19.5
q-46 0 -72.5 -28.5t-26.5 -75.5t26.5 -75t72.5 -28z" />
    <glyph glyph-name="Dcaron" unicode="&#x10e;" horiz-adv-x="737" 
d="M244 735l-115 165h162l47 -60l47 60h162l-115 -165h-188zM50 680h285q163 0 267 -93q103 -93 103 -246q0 -154 -103 -248q-102 -93 -267 -93h-285v680zM251 178h84q72 0 118 46q47 47 47 117t-47 115q-46 46 -118 46h-84v-324z" />
    <glyph glyph-name="dcaron" unicode="&#x10f;" horiz-adv-x="640" 
d="M398 710h194v-710h-194v21q-56 -34 -127 -34q-100 0 -172 73q-72 74 -72 184t72 184t172 74q71 0 127 -34v242zM802 710l-39 -203h-130l5 203h164zM316 138q45 0 82 32v149q-35 31 -82 31q-44 0 -73.5 -30t-29.5 -76q0 -45 30 -75.5t73 -30.5z" />
    <glyph glyph-name="Dcroat" unicode="&#x110;" horiz-adv-x="737" 
d="M50 680h285q163 0 267 -93q103 -93 103 -246q0 -154 -103 -248q-102 -93 -267 -93h-285v255h-43v166h43v259zM251 178h84q72 0 118 46q47 47 47 117t-47 115q-46 46 -118 46h-84v-81h104v-166h-104v-77z" />
    <glyph glyph-name="dslash" unicode="&#x111;" horiz-adv-x="640" 
d="M619 545h-27v-545h-194v21q-56 -34 -127 -34q-100 0 -172 73q-72 74 -72 184t72 184t172 74q71 0 127 -34v77h-137v121h137v44h194v-44h27v-121zM316 138q45 0 82 32v149q-35 31 -82 31q-44 0 -73.5 -30t-29.5 -76q0 -45 30 -75.5t73 -30.5z" />
    <glyph glyph-name="Emacron" unicode="&#x112;" horiz-adv-x="609" 
d="M455 748h-294v140h294v-140zM251 511v-91h281v-162h-281v-89h327v-169h-528v680h528v-169h-327z" />
    <glyph glyph-name="emacron" unicode="&#x113;" horiz-adv-x="578" 
d="M439 567h-294v140h294v-140zM551 257q0 -29 -2 -53h-1h-339q19 -70 93 -70q46 0 66 33h181q-15 -80 -83 -130q-68 -48 -163 -48q-123 0 -200 71q-76 72 -76 187t72 187q73 72 191 72q114 0 187 -69q74 -68 74 -180zM294 367q-66 0 -86 -71h172q-14 71 -86 71z" />
    <glyph glyph-name="Edotaccent" unicode="&#x116;" horiz-adv-x="609" 
d="M308 933q42 0 72 -28t30 -70t-29.5 -69.5t-72.5 -27.5t-72.5 27.5t-29.5 69.5t29.5 70t72.5 28zM251 511v-91h281v-162h-281v-89h327v-169h-528v680h528v-169h-327z" />
    <glyph glyph-name="edotaccent" unicode="&#x117;" horiz-adv-x="578" 
d="M292 746q42 0 72 -28t30 -70t-29.5 -69.5t-72.5 -27.5t-72.5 27.5t-29.5 69.5t29.5 70t72.5 28zM551 257q0 -29 -2 -53h-1h-339q19 -70 93 -70q46 0 66 33h181q-15 -80 -83 -130q-68 -48 -163 -48q-123 0 -200 71q-76 72 -76 187t72 187q73 72 191 72q114 0 187 -69
q74 -68 74 -180zM294 367q-66 0 -86 -71h172q-14 71 -86 71z" />
    <glyph glyph-name="Eogonek" unicode="&#x118;" horiz-adv-x="609" 
d="M589 -49l18 -144q-32 -17 -91 -17q-76 0 -129 36q-52 36 -52 101q0 38 29 73h-314v680h528v-169h-327v-91h281v-162h-281v-89h327v-169h-58q-26 -11 -26 -31q0 -26 43 -26q22 0 52 8z" />
    <glyph glyph-name="eogonek" unicode="&#x119;" horiz-adv-x="578" 
d="M551 257q0 -29 -2 -53h-1h-339q19 -70 93 -70q46 0 66 33h181q-15 -78 -79 -127l-1 -1l-10 -7q-44 -32 -44 -55q0 -30 44 -30q21 0 51 8l18 -144q-32 -17 -90 -17q-75 0 -121 37q-47 36 -47 94q0 33 20 64q-119 5 -191 75t-72 183q0 115 72 187q73 72 191 72
q114 0 187 -69q74 -68 74 -180zM294 367q-66 0 -86 -71h172q-14 71 -86 71z" />
    <glyph glyph-name="Ecaron" unicode="&#x11a;" horiz-adv-x="609" 
d="M214 735l-115 165h162l47 -60l47 60h162l-115 -165h-188zM251 511v-91h281v-162h-281v-89h327v-169h-528v680h528v-169h-327z" />
    <glyph glyph-name="ecaron" unicode="&#x11b;" horiz-adv-x="578" 
d="M198 559l-115 165h162l47 -60l47 60h162l-115 -165h-188zM551 257q0 -29 -2 -53h-1h-339q19 -70 93 -70q46 0 66 33h181q-15 -80 -83 -130q-68 -48 -163 -48q-123 0 -200 71q-76 72 -76 187t72 187q73 72 191 72q114 0 187 -69q74 -68 74 -180zM294 367q-66 0 -86 -71
h172q-14 71 -86 71z" />
    <glyph glyph-name="Gbreve" unicode="&#x11e;" horiz-adv-x="803" 
d="M208 919h134q-2 -36 27 -51t58 0t27 51h134q0 -83 -52 -131.5t-138 -48.5t-138 48.5t-52 131.5zM758 387v-387h-146l-5 63q-81 -78 -202 -78q-165 0 -268 99t-103 253q0 157 103 257q104 101 265 101q141 0 239 -74t110 -189h-210q-30 83 -134 83q-76 0 -122 -49
t-46 -123q0 -76 49 -125t129 -49q95 0 152 74l-186 2v142h375z" />
    <glyph glyph-name="gbreve" unicode="&#x11f;" horiz-adv-x="641" 
d="M148 727h134q-2 -36 27 -51t58 0t27 51h134q0 -83 -52 -131.5t-138 -48.5t-138 48.5t-52 131.5zM594 492v-480q0 -114 -76 -178q-74 -64 -199 -64q-119 0 -196 59q-75 58 -80 157h188q12 -61 87 -61q38 0 60 21t22 59v39q-56 -30 -128 -30q-99 0 -172 68q-72 69 -72 171
q0 111 71 184q72 72 173 72q72 0 128 -34v17h194zM317 159q47 0 83 33v132q-36 33 -83 33q-45 0 -74 -28.5t-29 -75.5q0 -38 30 -66t73 -28z" />
    <glyph glyph-name="Gdotaccent" unicode="&#x120;" horiz-adv-x="803" 
d="M398 933q42 0 72 -28t30 -70t-29.5 -69.5t-72.5 -27.5t-72.5 27.5t-29.5 69.5t29.5 70t72.5 28zM758 387v-387h-146l-5 63q-81 -78 -202 -78q-165 0 -268 99t-103 253q0 157 103 257q104 101 265 101q141 0 239 -74t110 -189h-210q-30 83 -134 83q-76 0 -122 -49
t-46 -123q0 -76 49 -125t129 -49q95 0 152 74l-186 2v142h375z" />
    <glyph glyph-name="gdotaccent" unicode="&#x121;" horiz-adv-x="641" 
d="M338 746q42 0 72 -28t30 -70t-29.5 -69.5t-72.5 -27.5t-72.5 27.5t-29.5 69.5t29.5 70t72.5 28zM594 492v-480q0 -114 -76 -178q-74 -64 -199 -64q-119 0 -196 59q-75 58 -80 157h188q12 -61 87 -61q38 0 60 21t22 59v39q-56 -30 -128 -30q-99 0 -172 68q-72 69 -72 171
q0 111 71 184q72 72 173 72q72 0 128 -34v17h194zM317 159q47 0 83 33v132q-36 33 -83 33q-45 0 -74 -28.5t-29 -75.5q0 -38 30 -66t73 -28z" />
    <glyph glyph-name="Gcommaaccent" unicode="&#x122;" horiz-adv-x="803" 
d="M758 387v-387h-146l-5 63q-81 -78 -202 -78q-165 0 -268 99t-103 253q0 157 103 257q104 101 265 101q141 0 239 -74t110 -189h-210q-30 83 -134 83q-76 0 -122 -49t-46 -123q0 -76 49 -125t129 -49q95 0 152 74l-186 2v142h375zM493 -133q0 -26 -17 -57
q-20 -36 -71 -108h-95l46 90q-53 23 -53 75q0 37 28 63t67 26t67 -26t28 -63z" />
    <glyph glyph-name="gcommaaccent" unicode="&#x123;" horiz-adv-x="641" 
d="M243 625q0 28 16 57q17 30 72 108h95l-46 -90q53 -23 53 -75q0 -37 -28 -63t-67 -26t-67 26t-28 63zM594 492v-480q0 -114 -76 -178q-74 -64 -199 -64q-119 0 -196 59q-75 58 -80 157h188q12 -61 87 -61q38 0 60 21t22 59v39q-56 -30 -128 -30q-99 0 -172 68
q-72 69 -72 171q0 111 71 184q72 72 173 72q72 0 128 -34v17h194zM317 159q47 0 83 33v132q-36 33 -83 33q-45 0 -74 -28.5t-29 -75.5q0 -38 30 -66t73 -28z" />
    <glyph glyph-name="Hbar" unicode="&#x126;" horiz-adv-x="743" 
d="M725 491h-33v-491h-201v242h-240v-242h-201v491h-35v119h35v70h201v-70h240v70h201v-70h33v-119zM491 491h-240v-73h240v73z" />
    <glyph glyph-name="hbar" unicode="&#x127;" horiz-adv-x="614" 
d="M369 507q92 0 147 -57t55 -156v-294h-193v252q0 41 -19 61.5t-51 20.5q-34 0 -66 -32v-302h-194v571h-32v99h32v40h194v-40h85v-99h-85v-107q55 43 127 43z" />
    <glyph glyph-name="Imacron" unicode="&#x12a;" horiz-adv-x="301" 
d="M298 888v-140h-294v140h294zM251 680v-680h-201v680h201z" />
    <glyph glyph-name="imacron" unicode="&#x12b;" horiz-adv-x="292" 
d="M293 707v-140h-294v140h294zM243 492v-492h-194v492h194z" />
    <glyph glyph-name="Iogonek" unicode="&#x12e;" horiz-adv-x="301" 
d="M259 -49l18 -144q-32 -17 -91 -17q-76 0 -129 36q-52 36 -52 101q0 48 45 90v663h201v-680h-61q-26 -11 -26 -31q0 -26 43 -26q22 0 52 8z" />
    <glyph glyph-name="iogonek" unicode="&#x12f;" horiz-adv-x="292" 
d="M224 582q-32 -30 -78 -30t-78 30q-32 32 -32 76q0 45 32 75q31 31 78 31t78 -31q32 -30 32 -75q0 -44 -32 -76zM250 -49l18 -144q-32 -17 -91 -17q-77 0 -129 36t-52 101q0 54 53 96v469h194v-492h-62q-26 -11 -26 -31q0 -26 43 -26q22 0 52 8z" />
    <glyph glyph-name="Idot" unicode="&#x130;" horiz-adv-x="301" 
d="M151 738q-44 0 -74 28.5t-30 70.5q0 43 30 71.5t74 28.5q43 0 73 -29t30 -71t-30 -70.5t-73 -28.5zM251 680v-680h-201v680h201z" />
    <glyph glyph-name="dotlessi" unicode="&#x131;" horiz-adv-x="292" 
d="M243 492v-492h-194v492h194z" />
    <glyph glyph-name="IJ" unicode="&#x132;" horiz-adv-x="931" 
d="M890 680v-391q0 -146 -76.5 -225t-216.5 -79q-131 0 -207.5 71.5t-81.5 201.5h198q4 -44 28 -67.5t64 -23.5q43 0 65.5 30t22.5 86v397h204zM251 680v-680h-201v680h201z" />
    <glyph glyph-name="ij" unicode="&#x133;" horiz-adv-x="582" 
d="M224 582q-32 -30 -78 -30t-78 30q-32 32 -32 76q0 45 32 75q31 31 78 31t78 -31q32 -30 32 -75q0 -44 -32 -76zM514 582q-32 -30 -78 -30t-78 30q-32 32 -32 76q0 45 32 75q31 31 78 31t78 -31q32 -30 32 -75q0 -44 -32 -76zM243 492v-492h-194v492h194zM533 492v-447
q0 -120 -51 -185q-54 -68 -210 -73l-17 156q48 7 66.5 23t18.5 52v474h193z" />
    <glyph glyph-name="Kcommaaccent" unicode="&#x136;" horiz-adv-x="745" 
d="M741 0h-239l-166 223l-85 -99v-124h-201v680h201v-276l237 276h237l-252 -296zM467 -133q0 -26 -17 -57q-20 -36 -71 -108h-95l46 90q-53 23 -53 75q0 37 28 63t67 26t67 -26t28 -63z" />
    <glyph glyph-name="kcommaaccent" unicode="&#x137;" horiz-adv-x="617" 
d="M242 0h-194v710h194v-373l144 155h221l-181 -198l189 -294h-219l-100 151l-54 -59v-92zM403 -133q0 -26 -17 -57q-20 -36 -71 -108h-95l46 90q-53 23 -53 75q0 37 28 63t67 26t67 -26t28 -63z" />
    <glyph glyph-name="Lacute" unicode="&#x139;" horiz-adv-x="591" 
d="M249 745h-184l86 171h198zM574 174v-174h-524v680h201v-506h323z" />
    <glyph glyph-name="lacute" unicode="&#x13a;" horiz-adv-x="289" 
d="M343 947l-100 -171h-184l86 171h198zM242 710v-710h-194v710h194z" />
    <glyph glyph-name="Lcommaaccent" unicode="&#x13b;" horiz-adv-x="591" 
d="M574 174v-174h-524v680h201v-506h323zM404 -133q0 -26 -17 -57q-20 -36 -71 -108h-95l46 90q-53 23 -53 75q0 37 28 63t67 26t67 -26t28 -63z" />
    <glyph glyph-name="lcommaaccent" unicode="&#x13c;" horiz-adv-x="289" 
d="M242 710v-710h-194v710h194zM54 -298l46 90q-53 23 -53 75q0 37 28 63t67 26t67 -26t28 -63q0 -26 -17 -57q-20 -36 -71 -108h-95z" />
    <glyph glyph-name="Lcaron" unicode="&#x13d;" horiz-adv-x="591" 
d="M574 174v-174h-524v680h201v-506h323zM473 477h-130l5 203h164z" />
    <glyph glyph-name="lcaron" unicode="&#x13e;" horiz-adv-x="289" 
d="M242 710v-710h-194v710h194zM440 710l-39 -203h-130l5 203h164z" />
    <glyph glyph-name="Ldot" unicode="&#x13f;" horiz-adv-x="591" 
d="M574 174v-174h-524v680h201v-506h323zM428 468q42 0 72 -28t30 -70t-29.5 -69.5t-72.5 -27.5t-72.5 27.5t-29.5 69.5t29.5 70t72.5 28z" />
    <glyph glyph-name="ldot" unicode="&#x140;" horiz-adv-x="511" 
d="M242 710v-710h-194v710h194zM369 452q42 0 72 -28t30 -70t-29.5 -69.5t-72.5 -27.5t-72.5 27.5t-29.5 69.5t29.5 70t72.5 28z" />
    <glyph glyph-name="Lslash" unicode="&#x141;" horiz-adv-x="591" 
d="M574 174v-174h-524v231l-47 -15v153l47 15v296h201v-230l142 47v-153l-142 -47v-123h323z" />
    <glyph glyph-name="lslash" unicode="&#x142;" horiz-adv-x="289" 
d="M285 315l-43 -14v-301h-194v237l-45 -15v159l45 15v314h194v-249l43 14v-160z" />
    <glyph glyph-name="Nacute" unicode="&#x143;" horiz-adv-x="742" 
d="M469 745h-184l86 171h198zM691 680v-680h-156l-284 321v-321h-201v680h157l283 -327v327h201z" />
    <glyph glyph-name="nacute" unicode="&#x144;" horiz-adv-x="614" 
d="M405 558h-184l86 171h198zM369 507q92 0 147 -57t55 -156v-294h-193v252q0 41 -19 61.5t-51 20.5q-34 0 -66 -32v-302h-194v492h194v-28q55 43 127 43z" />
    <glyph glyph-name="Ncommaaccent" unicode="&#x145;" horiz-adv-x="742" 
d="M691 680v-680h-156l-284 321v-321h-201v680h157l283 -327v327h201zM466 -133q0 -26 -17 -57q-20 -36 -71 -108h-95l46 90q-53 23 -53 75q0 37 28 63t67 26t67 -26t28 -63z" />
    <glyph glyph-name="ncommaaccent" unicode="&#x146;" horiz-adv-x="614" 
d="M369 507q92 0 147 -57t55 -156v-294h-193v252q0 41 -19 61.5t-51 20.5q-34 0 -66 -32v-302h-194v492h194v-28q55 43 127 43zM402 -133q0 -26 -17 -57q-20 -36 -71 -108h-95l46 90q-53 23 -53 75q0 37 28 63t67 26t67 -26t28 -63z" />
    <glyph glyph-name="Ncaron" unicode="&#x147;" horiz-adv-x="742" 
d="M277 735l-115 165h162l47 -60l47 60h162l-115 -165h-188zM691 680v-680h-156l-284 321v-321h-201v680h157l283 -327v327h201z" />
    <glyph glyph-name="ncaron" unicode="&#x148;" horiz-adv-x="614" 
d="M213 559l-115 165h162l47 -60l47 60h162l-115 -165h-188zM369 507q92 0 147 -57t55 -156v-294h-193v252q0 41 -19 61.5t-51 20.5q-34 0 -66 -32v-302h-194v492h194v-28q55 43 127 43z" />
    <glyph glyph-name="Omacron" unicode="&#x14c;" horiz-adv-x="802" 
d="M548 888v-140h-294v140h294zM401 695q159 0 262 -102q104 -101 104 -253t-104 -254q-104 -101 -262 -101q-160 0 -264 101q-103 102 -103 254q0 153 103 253q103 102 264 102zM285 223q46 -49 116 -49t116 49t46 117t-46 117t-116 49t-116 -49t-46 -117t46 -117z" />
    <glyph glyph-name="omacron" unicode="&#x14d;" horiz-adv-x="598" 
d="M446 707v-140h-294v140h294zM572 247q0 -112 -77 -187t-195 -75q-120 0 -197 75q-76 75 -76 187t76 185q77 74 197 74q119 0 196 -74q76 -73 76 -185zM299 146q41 0 68.5 29t27.5 71t-27 70t-69 28t-69.5 -28t-27.5 -70t27.5 -71t69.5 -29z" />
    <glyph glyph-name="Ohungarumlaut" unicode="&#x150;" horiz-adv-x="802" 
d="M449 918l-67 -171h-141l53 171h155zM627 918l-67 -171h-141l53 171h155zM401 695q159 0 262 -102q104 -101 104 -253t-104 -254q-104 -101 -262 -101q-160 0 -264 101q-103 102 -103 254q0 153 103 253q103 102 264 102zM285 223q46 -49 116 -49t116 49t46 117t-46 117
t-116 49t-116 -49t-46 -117t46 -117z" />
    <glyph glyph-name="ohungarumlaut" unicode="&#x151;" horiz-adv-x="598" 
d="M347 731l-67 -171h-141l53 171h155zM525 731l-67 -171h-141l53 171h155zM572 247q0 -112 -77 -187t-195 -75q-120 0 -197 75q-76 75 -76 187t76 185q77 74 197 74q119 0 196 -74q76 -73 76 -185zM299 146q41 0 68.5 29t27.5 71t-27 70t-69 28t-69.5 -28t-27.5 -70
t27.5 -71t69.5 -29z" />
    <glyph glyph-name="OE" unicode="&#x152;" horiz-adv-x="993" 
d="M636 511v-91h280v-162h-280v-89h327v-169h-566q-167 0 -270 94t-103 246q0 151 103 245q104 95 270 95h566v-169h-327zM435 188v304h-38q-75 0 -121.5 -42.5t-46.5 -109.5t46.5 -109.5t121.5 -42.5h38z" />
    <glyph glyph-name="oe" unicode="&#x153;" horiz-adv-x="948" 
d="M921 257q0 -35 -3 -53h-340q19 -70 94 -70q46 0 65 33h181q-15 -81 -82 -130q-68 -48 -164 -48q-114 0 -187 61q-76 -65 -185 -65q-120 0 -197 75q-76 75 -76 187t76 185q77 74 197 74q108 0 181 -61q70 61 178 61q115 0 188 -69q74 -68 74 -180zM664 367q-67 0 -87 -71
h172q-14 71 -85 71zM299 146q41 0 68.5 29t27.5 71t-27 70t-69 28t-69.5 -28t-27.5 -70t27.5 -71t69.5 -29z" />
    <glyph glyph-name="Racute" unicode="&#x154;" horiz-adv-x="715" 
d="M423 745h-184l86 171h198zM338 179h-87v-179h-201v680h307q139 0 218.5 -65t79.5 -182q0 -138 -115 -208l162 -225h-242zM251 357h105q42 0 68.5 21.5t26.5 56.5q0 33 -26.5 53.5t-68.5 20.5h-105v-152z" />
    <glyph glyph-name="racute" unicode="&#x155;" horiz-adv-x="426" 
d="M317 558h-184l86 171h198zM242 492v-50q70 58 165 58v-184q-109 -2 -165 -50v-266h-194v492h194z" />
    <glyph glyph-name="Rcommaaccent" unicode="&#x156;" horiz-adv-x="715" 
d="M702 0h-242l-122 179h-87v-179h-201v680h307q139 0 218.5 -65t79.5 -182q0 -138 -115 -208zM251 357h105q42 0 68.5 21.5t26.5 56.5q0 33 -26.5 53.5t-68.5 20.5h-105v-152zM442 -133q0 -26 -17 -57q-20 -36 -71 -108h-95l46 90q-53 23 -53 75q0 37 28 63t67 26t67 -26
t28 -63z" />
    <glyph glyph-name="rcommaaccent" unicode="&#x157;" horiz-adv-x="426" 
d="M407 500v-184q-109 -2 -165 -50v-266h-194v492h194v-50q70 58 165 58zM237 -133q0 -26 -17 -57q-20 -36 -71 -108h-95l46 90q-53 23 -53 75q0 37 28 63t67 26t67 -26t28 -63z" />
    <glyph glyph-name="Rcaron" unicode="&#x158;" horiz-adv-x="715" 
d="M230 735l-115 165h162l47 -60l47 60h162l-115 -165h-188zM338 179h-87v-179h-201v680h307q139 0 218.5 -65t79.5 -182q0 -138 -115 -208l162 -225h-242zM251 357h105q42 0 68.5 21.5t26.5 56.5q0 33 -26.5 53.5t-68.5 20.5h-105v-152z" />
    <glyph glyph-name="rcaron" unicode="&#x159;" horiz-adv-x="426" 
d="M125 559l-115 165h162l47 -60l47 60h162l-115 -165h-188zM242 492v-50q70 58 165 58v-184q-109 -2 -165 -50v-266h-194v492h194z" />
    <glyph glyph-name="Sacute" unicode="&#x15a;" horiz-adv-x="683" 
d="M338 695q97 0 183 -43q49 -24 81 -72.5t38 -115.5h-203q-15 67 -87 67q-31 0 -50 -12.5t-19 -33.5q0 -18 12.5 -28.5t42.5 -17.5l111 -27q100 -24 149.5 -71t49.5 -129q0 -104 -81 -166q-79 -61 -217 -61q-114 0 -202 50q-99 57 -116 194h203q15 -76 118 -76q73 0 73 43
q0 28 -53 42l-114 28q-103 25 -151 73t-48 128q0 105 77 167q76 61 203 61zM540 916l-100 -171h-184l86 171h198z" />
    <glyph glyph-name="sacute" unicode="&#x15b;" horiz-adv-x="537" 
d="M467 729l-100 -171h-184l86 171h198zM13 167h168q9 -48 81 -48q55 0 55 26q0 19 -46 26l-92 15q-145 24 -145 153q0 78 62.5 123t167.5 45q104 0 171 -45q68 -45 71 -130l-168 -1q-5 47 -74 47q-48 0 -48 -25q0 -20 43 -29l94 -18q161 -32 161 -155q0 -84 -68 -125
t-175 -41q-113 0 -181.5 47.5t-76.5 134.5z" />
    <glyph glyph-name="Scedilla" unicode="&#x15e;" horiz-adv-x="683" 
d="M338 695q97 0 183 -43q49 -24 81 -72.5t38 -115.5h-203q-15 67 -87 67q-31 0 -50 -12.5t-19 -33.5q0 -18 12.5 -28.5t42.5 -17.5l111 -27q100 -24 149.5 -71t49.5 -129q0 -104 -81 -166q-79 -61 -217 -61q-114 0 -202 50q-99 57 -116 194h203q15 -76 118 -76q73 0 73 43
q0 28 -53 42l-114 28q-103 25 -151 73t-48 128q0 105 77 167q76 61 203 61zM378 -246h-156l43 193h173z" />
    <glyph glyph-name="scedilla" unicode="&#x15f;" horiz-adv-x="537" 
d="M13 167h168q9 -48 81 -48q55 0 55 26q0 19 -46 26l-92 15q-145 24 -145 153q0 78 62.5 123t167.5 45q104 0 171 -45q68 -45 71 -130l-168 -1q-5 47 -74 47q-48 0 -48 -25q0 -20 43 -29l94 -18q161 -32 161 -155q0 -84 -68 -125t-175 -41q-113 0 -181.5 47.5t-76.5 134.5z
M300 -246h-156l43 193h173z" />
    <glyph glyph-name="Scaron" unicode="&#x160;" horiz-adv-x="683" 
d="M338 695q97 0 183 -43q49 -24 81 -72.5t38 -115.5h-203q-15 67 -87 67q-31 0 -50 -12.5t-19 -33.5q0 -18 12.5 -28.5t42.5 -17.5l111 -27q100 -24 149.5 -71t49.5 -129q0 -104 -81 -166q-79 -61 -217 -61q-114 0 -202 50q-99 57 -116 194h203q15 -76 118 -76q73 0 73 43
q0 28 -53 42l-114 28q-103 25 -151 73t-48 128q0 105 77 167q76 61 203 61zM550 900l-115 -165h-188l-115 165h162l47 -60l47 60h162z" />
    <glyph glyph-name="scaron" unicode="&#x161;" horiz-adv-x="537" 
d="M477 724l-115 -165h-188l-115 165h162l47 -60l47 60h162zM13 167h168q9 -48 81 -48q55 0 55 26q0 19 -46 26l-92 15q-145 24 -145 153q0 78 62.5 123t167.5 45q104 0 171 -45q68 -45 71 -130l-168 -1q-5 47 -74 47q-48 0 -48 -25q0 -20 43 -29l94 -18q161 -32 161 -155
q0 -84 -68 -125t-175 -41q-113 0 -181.5 47.5t-76.5 134.5z" />
    <glyph glyph-name="Tcedilla" unicode="&#x162;" horiz-adv-x="644" 
d="M625 505h-203v-505h-201v505h-202v175h606v-175zM237 -53h173l-60 -193h-156z" />
    <glyph glyph-name="tcedilla" unicode="&#x163;" horiz-adv-x="489" 
d="M296 -15q-90 0 -145 64t-55 169v108h-87v166h87v158h194v-158h155v-166h-155v-99q0 -64 64 -64q14 0 93 10l19 -161q-87 -27 -170 -27zM191 -53h173l-60 -193h-156z" />
    <glyph glyph-name="Tcaron" unicode="&#x164;" horiz-adv-x="644" 
d="M228 735l-115 165h162l47 -60l47 60h162l-115 -165h-188zM625 505h-203v-505h-201v505h-202v175h606v-175z" />
    <glyph glyph-name="tcaron" unicode="&#x165;" horiz-adv-x="489" 
d="M461 521h-130l5 203h164zM354 163q14 0 93 10l19 -161q-87 -27 -170 -27q-90 0 -145 64t-55 169v108h-87v166h87v158h194v-158h155v-166h-155v-99q0 -64 64 -64z" />
    <glyph glyph-name="Umacron" unicode="&#x16a;" horiz-adv-x="736" 
d="M696 680v-351q0 -165 -85.5 -254.5t-242.5 -89.5t-242.5 89.5t-85.5 254.5v351h204v-358q0 -70 33 -109.5t91 -39.5t91 39.5t33 109.5v358h204zM515 888v-140h-294v140h294z" />
    <glyph glyph-name="umacron" unicode="&#x16b;" horiz-adv-x="614" 
d="M454 567h-294v140h294v-140zM566 492v-492h-194v29q-59 -44 -128 -44q-92 0 -147 57t-55 156v294h194v-251q0 -82 69 -82q35 0 67 32v301h194z" />
    <glyph glyph-name="Uring" unicode="&#x16e;" horiz-adv-x="736" 
d="M273 945q37 34 95 34t95 -34t37 -88t-37 -88t-95 -34q-59 0 -95 33t-36 89q0 55 36 88zM413 857q3 27 -21 38.5t-48 0t-21 -38.5q-3 -26 21 -37t48 0t21 37zM696 680v-351q0 -165 -85.5 -254.5t-242.5 -89.5t-242.5 89.5t-85.5 254.5v351h204v-358q0 -70 33 -109.5
t91 -39.5t91 39.5t33 109.5v358h204z" />
    <glyph glyph-name="uring" unicode="&#x16f;" horiz-adv-x="614" 
d="M402 589q-37 -34 -95 -34q-59 0 -95 33t-36 89q0 55 36 88q37 34 95 34t95 -34t37 -88t-37 -88zM262 677q-3 -26 21 -37t48 0t21 37q3 27 -21 38.5t-48 0t-21 -38.5zM566 492v-492h-194v29q-59 -44 -128 -44q-92 0 -147 57t-55 156v294h194v-251q0 -82 69 -82q35 0 67 32
v301h194z" />
    <glyph glyph-name="Uhungarumlaut" unicode="&#x170;" horiz-adv-x="736" 
d="M696 680v-351q0 -165 -85.5 -254.5t-242.5 -89.5t-242.5 89.5t-85.5 254.5v351h204v-358q0 -70 33 -109.5t91 -39.5t91 39.5t33 109.5v358h204zM416 918l-67 -171h-141l53 171h155zM594 918l-67 -171h-141l53 171h155z" />
    <glyph glyph-name="uhungarumlaut" unicode="&#x171;" horiz-adv-x="614" 
d="M288 560h-141l53 171h155zM325 560l53 171h155l-67 -171h-141zM566 492v-492h-194v29q-59 -44 -128 -44q-92 0 -147 57t-55 156v294h194v-251q0 -82 69 -82q35 0 67 32v301h194z" />
    <glyph glyph-name="Uogonek" unicode="&#x172;" horiz-adv-x="736" 
d="M696 680v-351q0 -237 -171 -314q-59 -41 -59 -77q0 -29 42 -29q22 0 52 8l18 -149q-32 -15 -91 -15q-75 0 -120.5 33.5t-45.5 90.5q0 56 50 108h-3q-157 0 -242.5 89.5t-85.5 254.5v351h204v-358q0 -70 33 -109.5t91 -39.5t91 39.5t33 109.5v358h204z" />
    <glyph glyph-name="uogonek" unicode="&#x173;" horiz-adv-x="614" 
d="M582 -58l18 -144q-32 -17 -91 -17q-77 0 -129 36t-52 101q0 48 44 89v22q-59 -44 -128 -44q-92 0 -147 57t-55 156v294h194v-251q0 -82 69 -82q35 0 67 32v301h194v-492h-23q-32 -7 -44 -16t-12 -24q0 -26 43 -26q22 0 52 8z" />
    <glyph glyph-name="Wcircumflex" unicode="&#x174;" horiz-adv-x="1080" 
d="M493 745h-159l114 171h183l115 -171h-159l-47 60zM1070 680l-215 -684h-193l-122 393l-122 -393h-193l-215 684h214l106 -372l127 372h165l127 -373l107 373h214z" />
    <glyph glyph-name="wcircumflex" unicode="&#x175;" horiz-adv-x="823" 
d="M365 556h-159l114 171h183l115 -171h-159l-47 60zM812 492l-156 -492h-179l-65 227l-65 -227h-180l-155 492h197l59 -234l70 234h147l70 -233l59 233h198z" />
    <glyph glyph-name="Ycircumflex" unicode="&#x176;" horiz-adv-x="742" 
d="M324 745h-159l114 171h183l115 -171h-159l-47 60zM472 185l1 -185h-202l-1 185l-267 495h223l144 -268l146 268h223z" />
    <glyph glyph-name="ycircumflex" unicode="&#x177;" horiz-adv-x="649" 
d="M282 556h-159l114 171h183l115 -171h-159l-47 60zM641 493l-292 -710h-203l89 216l-227 494h203l120 -261l107 261h203z" />
    <glyph glyph-name="Ydieresis" unicode="&#x178;" horiz-adv-x="742" 
d="M472 185l1 -185h-202l-1 185l-267 495h223l144 -268l146 268h223zM249 933q42 0 72 -28t30 -70t-29.5 -69.5t-72.5 -27.5t-72.5 27.5t-29.5 69.5t29.5 70t72.5 28zM493 933q42 0 72 -28t30 -70t-29.5 -69.5t-72.5 -27.5t-72.5 27.5t-29.5 69.5t29.5 70t72.5 28z" />
    <glyph glyph-name="Zacute" unicode="&#x179;" horiz-adv-x="664" 
d="M430 745h-184l86 171h198zM636 175v-175h-609v95l309 410h-291v175h583v-95l-295 -410h303z" />
    <glyph glyph-name="zacute" unicode="&#x17a;" horiz-adv-x="526" 
d="M361 558h-184l86 171h198zM498 392l-201 -232h201v-160h-471v97l209 236h-207v159h469v-100z" />
    <glyph glyph-name="Zdotaccent" unicode="&#x17b;" horiz-adv-x="664" 
d="M636 175v-175h-609v95l309 410h-291v175h583v-95l-295 -410h303zM332 933q42 0 72 -28t30 -70t-29.5 -69.5t-72.5 -27.5t-72.5 27.5t-29.5 69.5t29.5 70t72.5 28z" />
    <glyph glyph-name="zdotaccent" unicode="&#x17c;" horiz-adv-x="526" 
d="M263 746q42 0 72 -28t30 -70t-29.5 -69.5t-72.5 -27.5t-72.5 27.5t-29.5 69.5t29.5 70t72.5 28zM498 392l-201 -232h201v-160h-471v97l209 236h-207v159h469v-100z" />
    <glyph glyph-name="Zcaron" unicode="&#x17d;" horiz-adv-x="664" 
d="M238 735l-115 165h162l47 -60l47 60h162l-115 -165h-188zM636 175v-175h-609v95l309 410h-291v175h583v-95l-295 -410h303z" />
    <glyph glyph-name="zcaron" unicode="&#x17e;" horiz-adv-x="526" 
d="M169 559l-115 165h162l47 -60l47 60h162l-115 -165h-188zM498 392l-201 -232h201v-160h-471v97l209 236h-207v159h469v-100z" />
    <glyph glyph-name="florin" unicode="&#x192;" horiz-adv-x="598" 
d="M471 511q-63 0 -72 -67l-7 -52h138v-146h-159l-20 -135q-17 -117 -75.5 -179.5t-151.5 -62.5q-64 0 -144 21l25 162q43 -9 79 -9q61 0 72 68l20 135h-115v146h136l7 51q16 117 74.5 180t152.5 63q62 0 144 -22l-26 -162q-41 9 -78 9z" />
    <glyph glyph-name="Acaron" unicode="&#x1cd;" horiz-adv-x="773" 
d="M292 735l-115 165h162l47 -60l47 60h162l-115 -165h-188zM517 97h-261l-35 -97h-215l282 684h198l282 -684h-215zM457 261l-71 193l-70 -193h141z" />
    <glyph glyph-name="acaron" unicode="&#x1ce;" horiz-adv-x="640" 
d="M242 559l-115 165h162l47 -60l47 60h162l-115 -165h-188zM592 492v-492h-194v25q-56 -34 -127 -34q-100 0 -172 73q-72 74 -72 184t72 184t172 74q71 0 127 -34v20h194zM316 142q45 0 82 32v149q-35 31 -82 31q-44 0 -73.5 -30t-29.5 -76q0 -45 30 -75.5t73 -30.5z" />
    <glyph glyph-name="Scommaaccent" unicode="&#x218;" horiz-adv-x="683" 
d="M338 695q97 0 183 -43q49 -24 81 -72.5t38 -115.5h-203q-15 67 -87 67q-31 0 -50 -12.5t-19 -33.5q0 -18 12.5 -28.5t42.5 -17.5l111 -27q100 -24 149.5 -71t49.5 -129q0 -104 -81 -166q-79 -61 -217 -61q-114 0 -202 50q-99 57 -116 194h203q15 -76 118 -76q73 0 73 43
q0 28 -53 42l-114 28q-103 25 -151 73t-48 128q0 105 77 167q76 61 203 61zM250 -298l46 90q-53 23 -53 75q0 37 28 63t67 26t67 -26t28 -63q0 -26 -17 -57q-20 -36 -71 -108h-95z" />
    <glyph glyph-name="scommaaccent" unicode="&#x219;" horiz-adv-x="537" 
d="M13 167h168q9 -48 81 -48q55 0 55 26q0 19 -46 26l-92 15q-145 24 -145 153q0 78 62.5 123t167.5 45q104 0 171 -45q68 -45 71 -130l-168 -1q-5 47 -74 47q-48 0 -48 -25q0 -20 43 -29l94 -18q161 -32 161 -155q0 -84 -68 -125t-175 -41q-113 0 -181.5 47.5t-76.5 134.5z
M172 -298l46 90q-53 23 -53 75q0 37 28 63t67 26t67 -26t28 -63q0 -26 -17 -57q-20 -36 -71 -108h-95z" />
    <glyph glyph-name="uni021A" unicode="&#x21a;" horiz-adv-x="644" 
d="M625 505h-203v-505h-201v505h-202v175h606v-175zM405 -133q0 -26 -17 -57q-20 -36 -71 -108h-95l46 90q-53 23 -53 75q0 37 28 63t67 26t67 -26t28 -63z" />
    <glyph glyph-name="uni021B" unicode="&#x21b;" horiz-adv-x="489" 
d="M447 173l19 -161q-87 -27 -170 -27q-90 0 -145 64t-55 169v108h-87v166h87v158h194v-158h155v-166h-155v-99q0 -64 64 -64q14 0 93 10zM359 -133q0 -26 -17 -57q-20 -36 -71 -108h-95l46 90q-53 23 -53 75q0 37 28 63t67 26t67 -26t28 -63z" />
    <glyph glyph-name="circumflex" unicode="&#x2c6;" 
d="M300 622l-47 -60h-159l114 171h183l115 -171h-159z" />
    <glyph glyph-name="caron" unicode="&#x2c7;" 
d="M509 727l-115 -165h-188l-115 165h162l47 -60l47 60h162z" />
    <glyph glyph-name="breve" unicode="&#x2d8;" 
d="M356 726h134q0 -83 -52 -131.5t-138 -48.5t-138 48.5t-52 131.5h134q-2 -36 27 -51t58 0t27 51z" />
    <glyph glyph-name="dotaccent" unicode="&#x2d9;" 
d="M300 746q42 0 72 -28t30 -70t-29.5 -69.5t-72.5 -27.5t-72.5 27.5t-29.5 69.5t29.5 70t72.5 28z" />
    <glyph glyph-name="ring" unicode="&#x2da;" 
d="M204 765q37 34 95 34t95 -34t37 -88t-37 -88t-95 -34q-59 0 -95 33t-36 89q0 55 36 88zM344 677q3 27 -21 38.5t-48 0t-21 -38.5q-3 -26 21 -37t48 0t21 37z" />
    <glyph glyph-name="ogonek" unicode="&#x2db;" 
d="M344 76l28 -66q-32 -7 -44 -16t-12 -24q0 -26 43 -26q22 0 52 8l18 -144q-32 -17 -91 -17q-76 0 -129 36q-52 36 -52 101q0 48 47 92q49 44 140 56z" />
    <glyph glyph-name="tilde" unicode="&#x2dc;" 
d="M374 718h132q0 -56 -21.5 -95t-53.5 -53.5t-66.5 -13.5t-62.5 19l-27 17q-37 23 -37 -24h-132q0 57 21.5 95.5t53 53t66.5 13.5t63 -19l27 -17q37 -23 37 24z" />
    <glyph glyph-name="hungarumlaut" unicode="&#x2dd;" 
d="M351 731l-67 -171h-141l53 171h155zM529 731l-67 -171h-141l53 171h155z" />
    <glyph glyph-name="uni0326" unicode="&#x326;" horiz-adv-x="0" 
d="M203 -298l46 90q-53 23 -53 75q0 37 28 63t67 26t67 -26t28 -63q0 -26 -17 -57q-20 -36 -71 -108h-95z" />
    <glyph glyph-name="Wgrave" unicode="&#x1e80;" horiz-adv-x="1080" 
d="M459 745l-100 171h198l86 -171h-184zM1070 680l-215 -684h-193l-122 393l-122 -393h-193l-215 684h214l106 -372l127 372h165l127 -373l107 373h214z" />
    <glyph glyph-name="wgrave" unicode="&#x1e81;" horiz-adv-x="823" 
d="M318 558l-100 171h198l86 -171h-184zM812 492l-156 -492h-179l-65 227l-65 -227h-180l-155 492h197l59 -234l70 234h147l70 -233l59 233h198z" />
    <glyph glyph-name="Wacute" unicode="&#x1e82;" horiz-adv-x="1080" 
d="M638 745h-184l86 171h198zM1070 680l-215 -684h-193l-122 393l-122 -393h-193l-215 684h214l106 -372l127 372h165l127 -373l107 373h214z" />
    <glyph glyph-name="wacute" unicode="&#x1e83;" horiz-adv-x="823" 
d="M510 558h-184l86 171h198zM812 492l-156 -492h-179l-65 227l-65 -227h-180l-155 492h197l59 -234l70 234h147l70 -233l59 233h198z" />
    <glyph glyph-name="Wdieresis" unicode="&#x1e84;" horiz-adv-x="1080" 
d="M418 933q42 0 72 -28t30 -70t-29.5 -69.5t-72.5 -27.5t-72.5 27.5t-29.5 69.5t29.5 70t72.5 28zM662 933q42 0 72 -28t30 -70t-29.5 -69.5t-72.5 -27.5t-72.5 27.5t-29.5 69.5t29.5 70t72.5 28zM1070 680l-215 -684h-193l-122 393l-122 -393h-193l-215 684h214l106 -372
l127 372h165l127 -373l107 373h214z" />
    <glyph glyph-name="wdieresis" unicode="&#x1e85;" horiz-adv-x="823" 
d="M290 746q42 0 72 -28t30 -70t-29.5 -69.5t-72.5 -27.5t-72.5 27.5t-29.5 69.5t29.5 70t72.5 28zM534 746q42 0 72 -28t30 -70t-29.5 -69.5t-72.5 -27.5t-72.5 27.5t-29.5 69.5t29.5 70t72.5 28zM812 492l-156 -492h-179l-65 227l-65 -227h-180l-155 492h197l59 -234
l70 234h147l70 -233l59 233h198z" />
    <glyph glyph-name="Ygrave" unicode="&#x1ef2;" horiz-adv-x="742" 
d="M290 745l-100 171h198l86 -171h-184zM472 185l1 -185h-202l-1 185l-267 495h223l144 -268l146 268h223z" />
    <glyph glyph-name="ygrave" unicode="&#x1ef3;" horiz-adv-x="649" 
d="M235 558l-100 171h198l86 -171h-184zM641 493l-292 -710h-203l89 216l-227 494h203l120 -261l107 261h203z" />
    <glyph glyph-name="endash" unicode="&#x2013;" horiz-adv-x="684" 
d="M590 347v-178h-497v178h497z" />
    <glyph glyph-name="emdash" unicode="&#x2014;" horiz-adv-x="1086" 
d="M993 347v-178h-900v178h900z" />
    <glyph glyph-name="quoteleft" unicode="&#x2018;" horiz-adv-x="250" 
d="M226 680l-55 -120q55 -25 55 -82q0 -40 -29.5 -67.5t-71.5 -27.5q-43 0 -72.5 27.5t-29.5 69.5q0 36 36 95l65 105h102z" />
    <glyph glyph-name="quoteright" unicode="&#x2019;" horiz-adv-x="250" 
d="M24 395l55 120q-55 25 -55 82q0 40 29.5 67.5t71.5 27.5q43 0 72.5 -27.5t29.5 -69.5q0 -37 -36 -95l-65 -105h-102z" />
    <glyph glyph-name="quotesinglbase" unicode="&#x201a;" horiz-adv-x="250" 
d="M24 -118l56 120q-56 26 -56 81q0 40 29.5 68t71.5 28t72 -28t30 -69q0 -23 -6 -41t-29 -54l-66 -105h-102z" />
    <glyph glyph-name="quotedblleft" unicode="&#x201c;" horiz-adv-x="473" 
d="M226 680l-55 -120q55 -25 55 -82q0 -40 -29.5 -67.5t-71.5 -27.5q-43 0 -72.5 27.5t-29.5 69.5q0 36 36 95l65 105h102zM449 680l-55 -120q56 -26 56 -82q0 -40 -29.5 -67.5t-72.5 -27.5q-42 0 -71.5 27.5t-29.5 69.5q0 22 6.5 40t28.5 55l65 105h102z" />
    <glyph glyph-name="quotedblright" unicode="&#x201d;" horiz-adv-x="473" 
d="M24 395l55 120q-55 25 -55 82q0 40 29.5 67.5t71.5 27.5q43 0 72.5 -27.5t29.5 -69.5q0 -37 -36 -95l-65 -105h-102zM247 395l56 120q-56 26 -56 82q0 40 29.5 67.5t71.5 27.5q43 0 72.5 -27.5t29.5 -69.5q0 -40 -35 -95l-66 -105h-102z" />
    <glyph glyph-name="quotedblbase" unicode="&#x201e;" horiz-adv-x="475" 
d="M249 -118l55 120q-55 25 -55 81q0 40 29.5 68t71.5 28t72 -28t30 -69q0 -22 -6.5 -40t-29.5 -55l-65 -105h-102zM24 -118l56 120q-56 26 -56 81q0 40 29.5 68t71.5 28t72 -28t30 -69q0 -23 -6 -41t-29 -54l-66 -105h-102z" />
    <glyph glyph-name="dagger" unicode="&#x2020;" horiz-adv-x="397" 
d="M254 500v-208h-111v208h-108v112h108v108h111v-108h108v-112h-108z" />
    <glyph glyph-name="daggerdbl" unicode="&#x2021;" horiz-adv-x="397" 
d="M254 482h108v-112h-108v-78h-111v78h-108v112h108v48h-108v112h108v78h111v-78h108v-112h-108v-48z" />
    <glyph glyph-name="bullet" unicode="&#x2022;" horiz-adv-x="380" 
d="M307 181q-49 -49 -117 -49t-117 49q-50 50 -50 116q0 65 50 115t117 50t117 -50t50 -115q0 -66 -50 -116z" />
    <glyph glyph-name="ellipsis" unicode="&#x2026;" horiz-adv-x="791" 
d="M228 82q0 -42 -30 -70t-73 -28t-72.5 28t-29.5 70t29.5 69.5t72.5 27.5t73 -28t30 -69zM468 12q-28 -28 -72 -28t-73 28q-30 29 -30 70q0 42 30 69q29 28 73 28q42 0 72 -28t30 -69q0 -42 -30 -70zM768 82q0 -42 -30 -70t-73 -28t-72.5 28t-29.5 70t29.5 69.5t72.5 27.5
t73 -28t30 -69z" />
    <glyph glyph-name="perthousand" unicode="&#x2030;" horiz-adv-x="1562" 
d="M264 695q91 0 150 -58q60 -57 60 -146t-60 -147q-58 -58 -150 -58q-91 0 -151 57q-60 59 -60 148t60 146q59 58 151 58zM384 0h-127l443 680h127zM350 491q0 36 -25.5 61t-61.5 25t-61.5 -25t-25.5 -61q0 -38 25 -63t62 -25t62 25t25 63zM832 394q92 0 151 -58
q60 -57 60 -146q0 -90 -60 -148q-60 -57 -151 -57q-93 0 -151 57q-59 57 -59 148q0 89 60 146q59 58 150 58zM1298 394q92 0 151 -58q60 -57 60 -146q0 -90 -60 -148q-60 -57 -151 -57q-93 0 -151 57q-59 57 -59 148q0 89 60 146q59 58 150 58zM770 127q26 -25 62 -24.5
t61 24.5q26 26 26 63q0 38 -26 62q-25 25 -61 25t-62 -25q-25 -24 -25 -62q0 -39 25 -63zM1237 127q26 -25 62 -24.5t61 24.5q26 26 26 63q0 38 -26 62q-25 25 -61 25t-62 -25q-25 -24 -25 -62q0 -39 25 -63z" />
    <glyph glyph-name="guilsinglleft" unicode="&#x2039;" horiz-adv-x="297" 
d="M279 419l-99 -167l99 -167h-162l-99 167l99 167h162z" />
    <glyph glyph-name="guilsinglright" unicode="&#x203a;" horiz-adv-x="304" 
d="M286 252l-99 -167h-162l99 167l-99 167h162z" />
    <glyph glyph-name="fraction" unicode="&#x2044;" horiz-adv-x="569" 
d="M126 0h-126l443 680h126z" />
    <glyph glyph-name="zerosuperior" unicode="&#x2070;" horiz-adv-x="459" 
d="M77 643q57 61 152 61q94 0 152 -61t58 -158q0 -99 -58 -160q-57 -61 -152 -61t-152 61t-57 160q0 98 57 158zM149 485q0 -45 22 -73.5t58 -28.5t58 28.5t22 73.5t-22 73t-58 28t-58 -28t-22 -73z" />
    <glyph glyph-name="foursuperior" unicode="&#x2074;" horiz-adv-x="423" 
d="M399 336h-44v-61h-131v61h-202v86l103 268h130l-83 -240h52v75h131v-75h44v-114z" />
    <glyph glyph-name="fivesuperior" unicode="&#x2075;" horiz-adv-x="399" 
d="M181 546h36q73 0 111.5 -36t38.5 -98q0 -66 -46.5 -105.5t-122.5 -39.5q-72 0 -119 38t-51 101h130q8 -32 42 -32q18 0 30 10t12 26q0 36 -47 36h-141v244h293v-109h-165z" />
    <glyph glyph-name="sixsuperior" unicode="&#x2076;" horiz-adv-x="402" 
d="M312 690l-74 -116q65 -10 103 -50.5t38 -98.5q0 -66 -50 -113q-49 -45 -129 -45q-79 0 -128 45q-49 46 -49 111q0 41 35 101l98 166h156zM249 424q0 21 -14 34.5t-36 13.5q-21 0 -36 -15q-12 -15 -12 -33q0 -20 14 -33.5t35 -13.5t35 13.5t14 33.5z" />
    <glyph glyph-name="sevensuperior" unicode="&#x2077;" horiz-adv-x="351" 
d="M338 690v-75l-145 -340h-153l131 294h-158v121h325z" />
    <glyph glyph-name="eightsuperior" unicode="&#x2078;" horiz-adv-x="403" 
d="M315 496q64 -34 64 -98q0 -62 -46.5 -97t-130.5 -35q-85 0 -132 35t-47 97q0 64 65 97q-47 30 -47 79q0 55 44.5 89t116.5 34q70 0 114.5 -34t44.5 -89q0 -50 -46 -78zM229 592q-10 10 -27 10t-28 -10q-11 -9 -11 -25t11 -26t28 -10t27 10q11 11 11 26.5t-11 24.5z
M202 370q24 -3 34.5 17t0 40t-34.5 17q-26 3 -37 -17t0 -40t37 -17z" />
    <glyph glyph-name="ninesuperior" unicode="&#x2079;" horiz-adv-x="402" 
d="M201 698q78 0 127 -46q50 -45 50 -110q0 -41 -35 -101l-98 -166h-156l74 116q-65 10 -103 50.5t-38 98.5q0 67 50 112q49 46 129 46zM202 493q21 0 36 15q12 15 12 33q0 20 -14 33.5t-35 13.5t-35 -13.5t-14 -33.5q0 -21 14 -34.5t36 -13.5z" />
    <glyph glyph-name="zeroinferior" unicode="&#x2080;" horiz-adv-x="459" 
d="M77 189q57 61 152 61q94 0 152 -61t58 -158q0 -99 -58 -160q-57 -61 -152 -61t-152 61t-57 160q0 98 57 158zM149 31q0 -45 22 -73.5t58 -28.5t58 28.5t22 73.5t-22 73t-58 28t-58 -28t-22 -73z" />
    <glyph glyph-name="oneinferior" unicode="&#x2081;" horiz-adv-x="343" 
d="M338 -66v-114h-318v114h98v157l-91 -24v123l136 45h84v-301h91z" />
    <glyph glyph-name="twoinferior" unicode="&#x2082;" horiz-adv-x="378" 
d="M351 -66v-114h-321v63l133 154q43 49 43 63q0 21 -24 21q-27 0 -29 -29h-125q1 70 42 110.5t115 40.5q73 0 119 -38q45 -37 45 -92q0 -31 -18 -62q-18 -34 -67 -92l-21 -25h108z" />
    <glyph glyph-name="threeinferior" unicode="&#x2083;" horiz-adv-x="388" 
d="M314 27q45 -27 45 -84q0 -59 -46.5 -96t-122.5 -37q-75 0 -117.5 37.5t-48.5 106.5h128q4 -36 41 -36q17 0 27 8.5t10 21.5q0 28 -44 28h-33v96h33q43 0 43 31q0 27 -34 27q-33 0 -35 -35h-128q4 68 45.5 106t114.5 38q72 0 115 -35.5t43 -95.5q0 -52 -36 -81z" />
    <glyph glyph-name="fourinferior" unicode="&#x2084;" horiz-adv-x="423" 
d="M399 -119h-44v-61h-131v61h-202v86l103 268h130l-83 -240h52v75h131v-75h44v-114z" />
    <glyph glyph-name="fiveinferior" unicode="&#x2085;" horiz-adv-x="399" 
d="M181 91h36q73 0 111.5 -36t38.5 -98q0 -66 -46.5 -105.5t-122.5 -39.5q-72 0 -119 38t-51 101h130q8 -32 42 -32q18 0 30 10t12 26q0 36 -47 36h-141v244h293v-109h-165z" />
    <glyph glyph-name="sixinferior" unicode="&#x2086;" horiz-adv-x="402" 
d="M312 235l-74 -116q65 -10 103 -50.5t38 -98.5q0 -66 -50 -113q-49 -45 -129 -45q-79 0 -128 45q-49 46 -49 111q0 41 35 101l98 166h156zM249 -31q0 21 -14 34.5t-36 13.5q-21 0 -36 -15q-12 -15 -12 -33q0 -20 14 -33.5t35 -13.5t35 13.5t14 33.5z" />
    <glyph glyph-name="seveninferior" unicode="&#x2087;" horiz-adv-x="351" 
d="M338 235v-75l-145 -340h-153l131 294h-158v121h325z" />
    <glyph glyph-name="eightinferior" unicode="&#x2088;" horiz-adv-x="403" 
d="M315 42q64 -34 64 -98q0 -62 -46.5 -97t-130.5 -35q-85 0 -132 35t-47 97q0 64 65 97q-47 30 -47 79q0 55 44.5 89t116.5 34q70 0 114.5 -34t44.5 -89q0 -50 -46 -78zM229 138q-10 10 -27 10t-28 -10q-11 -9 -11 -25t11 -26t28 -10t27 10q11 11 11 26.5t-11 24.5z
M202 -84q24 -3 34.5 17t0 40t-34.5 17q-26 3 -37 -17t0 -40t37 -17z" />
    <glyph glyph-name="nineinferior" unicode="&#x2089;" horiz-adv-x="402" 
d="M201 244q78 0 127 -46q50 -45 50 -110q0 -41 -35 -101l-98 -166h-156l74 116q-65 10 -103 50.5t-38 98.5q0 67 50 112q49 46 129 46zM202 39q21 0 36 15q12 15 12 33q0 20 -14 33.5t-35 13.5t-35 -13.5t-14 -33.5q0 -21 14 -34.5t36 -13.5z" />
    <glyph glyph-name="Euro" unicode="&#x20ac;" horiz-adv-x="836" 
d="M450 172q59 0 97 33t47 88h208q-11 -138 -106 -223t-243 -85q-129 0 -223 66q-94 67 -127 177h-73v84h57q-1 6 -1 28v18h-56v84h70q32 114 126 183q95 70 227 70q146 0 243 -86q95 -85 106 -222h-208q-9 55 -47 88t-97 33q-84 0 -129 -66h195l-22 -84h-202l-1 -18
q0 -4 2 -28h190l-21 -84h-134q44 -56 122 -56z" />
    <glyph glyph-name="uni2116" unicode="&#x2116;" horiz-adv-x="1360" 
d="M772 433q0 111 76 184q77 74 197 74q119 0 196 -74q76 -73 76 -184q0 -113 -76 -188q-77 -74 -196 -74q-120 0 -197 74q-76 75 -76 188zM490 680h201v-680h-156l-284 321v-321h-201v680h157l283 -327v327zM1045 530q-42 0 -69.5 -28t-27.5 -70t27.5 -71t69.5 -29
q41 0 68.5 29t27.5 71q0 40 -27.5 69t-68.5 29zM803 125h483v-123h-483v123z" />
    <glyph glyph-name="uni2117" unicode="&#x2117;" horiz-adv-x="797" 
d="M141 593q106 102 257 102q150 0 257 -102t107 -253t-107 -253t-257 -102q-151 0 -257 102q-107 102 -107 253t107 253zM584 524q-79 76 -186 76q-109 0 -186 -76q-78 -75 -78 -184q0 -108 78 -185q78 -75 186 -75t186 75q79 76 79 185q0 108 -79 184zM286 493h141
q59 0 93 -29.5t34 -79.5q0 -49 -34 -77.5t-94 -28.5h-43v-77h-97v292zM383 414v-60h37q34 0 34 31q0 13 -9 21t-25 8h-37z" />
    <glyph glyph-name="trademark" unicode="&#x2122;" horiz-adv-x="709" 
d="M292 679v-90h-84v-202h-101v202h-84v90h269zM670 679v-292h-97v119l-57 -79h-48v1l-57 79v-120h-97v292h76l102 -136l102 136h76z" />
    <glyph glyph-name="oneeighth" unicode="&#x215b;" horiz-adv-x="987" 
d="M20 265v114h98v157l-91 -24v123l136 45h84v-301h91v-114h-318zM775 680l-443 -680h-127l443 680h127zM899 222q65 -35 65 -98t-47 -98q-46 -34 -131 -34t-131.5 34.5t-46.5 97.5q0 64 64 97q-47 30 -47 79q0 55 45 89t116 34q70 0 115 -34.5t45 -88.5q0 -49 -47 -78z
M813 318q-10 10 -27 10t-28 -10q-11 -9 -11 -25t11 -26t28 -10t27 10q11 11 11 26.5t-11 24.5zM756 106q12 -10 30 -10t29 10q12 10 12 27t-12 27q-11 10 -29 10t-30 -10q-11 -10 -11 -27t11 -27z" />
    <glyph glyph-name="threeeighths" unicode="&#x215c;" horiz-adv-x="978" 
d="M361 392q0 -59 -46.5 -96t-122.5 -37q-75 0 -117.5 37.5t-48.5 106.5h128q4 -36 41 -36q17 0 27 8.5t10 21.5q0 28 -44 28h-33v96h33q43 0 43 31q0 27 -34 27q-33 0 -35 -35h-128q4 68 45.5 106t114.5 38q72 0 115 -35.5t43 -95.5q0 -53 -36 -81q45 -27 45 -84zM766 680
l-443 -680h-126l443 680h126zM890 221q65 -33 65 -97q0 -63 -46.5 -97.5t-131.5 -34.5q-86 0 -132 34t-46 98q0 63 64 97q-47 32 -47 79q0 55 45 89t116 34q70 0 115 -34.5t45 -88.5q0 -49 -47 -79zM804 318q-10 10 -27 10t-28 -10q-10 -9 -10 -25t10 -26q11 -10 28 -10
t27 10q11 11 11 26.5t-11 24.5zM747 106q12 -10 30 -10t29 10q12 10 12 27t-12 27q-11 10 -29 10t-30 -10q-11 -10 -11 -27t11 -27z" />
    <glyph glyph-name="fiveeighths" unicode="&#x215d;" horiz-adv-x="987" 
d="M367 402q0 -66 -46.5 -105.5t-122.5 -39.5q-72 0 -119 38t-51 101h130q8 -32 42 -32q18 0 30 10t12 26q0 36 -47 36h-141v244h293v-109h-165l-1 -35h36q73 0 111.5 -36t38.5 -98zM774 680l-443 -680h-126l443 680h126zM899 222q64 -34 64 -98q0 -62 -46.5 -97t-130.5 -35
q-85 0 -132 35t-47 97q0 64 65 97q-47 30 -47 79q0 55 44.5 89t116.5 34q70 0 114.5 -34t44.5 -89q0 -50 -46 -78zM813 318q-10 10 -27 10t-28 -10q-11 -9 -11 -25t11 -26t28 -10t27 10q11 11 11 26.5t-11 24.5zM786 96q24 -3 34.5 17t0 40t-34.5 17q-26 3 -37 -17t0 -40
t37 -17z" />
    <glyph glyph-name="seveneighths" unicode="&#x215e;" horiz-adv-x="892" 
d="M47 265l131 294h-158v121h325v-75l-145 -340h-153zM679 680l-443 -680h-126l443 680h126zM804 222q64 -34 64 -98q0 -62 -46.5 -97t-130.5 -35q-85 0 -132 35t-47 97q0 64 65 97q-47 30 -47 79q0 55 44.5 89t116.5 34q70 0 114.5 -34t44.5 -89q0 -50 -46 -78zM718 318
q-10 10 -27 10t-28 -10q-11 -9 -11 -25t11 -26t28 -10t27 10q11 11 11 26.5t-11 24.5zM691 96q24 -3 34.5 17t0 40t-34.5 17q-26 3 -37 -17t0 -40t37 -17z" />
    <glyph glyph-name="arrowleft" unicode="&#x2190;" horiz-adv-x="766" 
d="M343 256l152 -151l-119 -113l-342 349l342 349l119 -113l-152 -150h383v-171h-383z" />
    <glyph glyph-name="arrowup" unicode="&#x2191;" horiz-adv-x="787" 
d="M308 383l-151 -152l-112 119l349 342l348 -342l-112 -119l-151 152v-383h-171v383z" />
    <glyph glyph-name="arrowright" unicode="&#x2192;" horiz-adv-x="766" 
d="M40 427h383l-152 150l119 113l342 -349l-342 -349l-119 113l152 151h-383v171z" />
    <glyph glyph-name="arrowdown" unicode="&#x2193;" horiz-adv-x="787" 
d="M479 680v-383l151 152l112 -119l-348 -342l-349 342l112 119l151 -152v383h171z" />
    <glyph glyph-name="arrowupleft" unicode="&#x2196;" horiz-adv-x="799" 
d="M653 -4l-402 402v-212h-161v494h494v-161h-212l402 -402z" />
    <glyph glyph-name="arrowupright" unicode="&#x2197;" horiz-adv-x="799" 
d="M427 519h-212v161h494v-494h-161l-1 212l-401 -402l-121 121z" />
    <glyph glyph-name="arrowdownright" unicode="&#x2198;" horiz-adv-x="799" 
d="M146 684l401 -402l1 212h161v-494h-494v161h212l-402 402z" />
    <glyph glyph-name="arrowdownleft" unicode="&#x2199;" horiz-adv-x="799" 
d="M372 161h212v-161h-494v494h161v-212l402 402l121 -121z" />
    <glyph glyph-name="minus" unicode="&#x2212;" horiz-adv-x="655" 
d="M93 392h469v-135h-469v135z" />
    <glyph glyph-name="fi" unicode="&#xfb01;" horiz-adv-x="751" 
d="M702 492v-492h-194v326h-209v-326h-193v326h-104v166h104v36q0 116 68 184q69 69 171 69q48 0 92 -7q64 -12 122 -26l-27 -159q-107 17 -151 17q-82 0 -82 -84v-30h403z" />
    <glyph glyph-name="fl" unicode="&#xfb02;" horiz-adv-x="748" 
d="M106 492v46q0 114 63 178q65 65 162 65q62 0 144 -22l-25 -155q-43 9 -79 9q-32 0 -52 -18.5t-20 -49.5v-53h132v-166h-132v-326h-193v326h-104v166h104zM700 710v-710h-194v710h194z" />
    <glyph glyph-name="NULL" horiz-adv-x="0" 
 />
    <glyph glyph-name="CR" horiz-adv-x="333" 
 />
    <glyph glyph-name="R.ss02" horiz-adv-x="715" 
d="M270 179h-19v-179h-201v680h306q141 0 220 -65t79 -182q0 -80 -41.5 -140t-117.5 -90l206 -203h-251zM251 509v-152h103q44 0 71 21.5t27 56.5q0 34 -27 54t-71 20h-103z" />
    <glyph glyph-name="Racute.ss02" horiz-adv-x="715" 
d="M429 745h-184l86 171h198zM270 179h-19v-179h-201v680h306q141 0 220 -65t79 -182q0 -79 -41.5 -139.5t-117.5 -90.5l206 -203h-251zM251 509v-152h103q44 0 70.5 21.5t26.5 56.5q0 34 -26.5 54t-70.5 20h-103z" />
    <glyph glyph-name="Rcaron.ss02" horiz-adv-x="715" 
d="M237 735l-115 165h162l47 -60l47 60h162l-115 -165h-188zM270 179h-19v-179h-201v680h306q141 0 220 -65t79 -182q0 -79 -41.5 -139.5t-117.5 -90.5l206 -203h-251zM251 509v-152h103q44 0 70.5 21.5t26.5 56.5q0 34 -26.5 54t-70.5 20h-103z" />
    <glyph glyph-name="Rcommaaccent.ss02" horiz-adv-x="715" 
d="M702 0h-251l-181 179h-19v-179h-201v680h306q141 0 220 -65t79 -182q0 -79 -41.5 -139.5t-117.5 -90.5zM251 509v-152h103q44 0 70.5 21.5t26.5 56.5q0 34 -26.5 54t-70.5 20h-103zM449 -133q0 -26 -17 -57q-20 -36 -71 -108h-95l46 90q-53 23 -53 75q0 37 28 63t67 26
t67 -26t28 -63z" />
    <glyph glyph-name="Q.ss03" horiz-adv-x="802" 
d="M401 695q159 0 262 -102q104 -101 104 -253t-104 -254q-104 -101 -262 -101q-160 0 -264 101q-103 102 -103 254q0 153 103 253q103 102 264 102zM285 223q46 -49 116 -49t116 49t46 117t-46 117t-116 49t-116 -49t-46 -117t46 -117zM729 -92l-18 -157q-175 21 -336 69
l14 127z" />
    <glyph glyph-name="i.loclTRK" horiz-adv-x="292" 
d="M224 582q-32 -30 -78 -30t-78 30q-32 32 -32 76q0 45 32 75q31 31 78 31t78 -31q32 -30 32 -75q0 -44 -32 -76zM243 492v-492h-194v492h194z" />
    <glyph glyph-name="germandbls.case" horiz-adv-x="1335" 
d="M338 695q97 0 183 -43q49 -24 81 -72.5t38 -115.5h-203q-15 67 -87 67q-31 0 -50 -12.5t-19 -33.5q0 -18 12.5 -28.5t42.5 -17.5l111 -27q100 -24 149.5 -71t49.5 -129q0 -104 -81 -166q-79 -61 -217 -61q-114 0 -202 50q-99 57 -116 194h203q15 -76 118 -76q73 0 73 43
q0 28 -53 42l-114 28q-103 25 -151 73t-48 128q0 105 77 167q76 61 203 61zM991 695q97 0 183 -43q49 -24 81 -72.5t38 -115.5h-203q-15 67 -87 67q-31 0 -50 -12.5t-19 -33.5q0 -18 12.5 -28.5t42.5 -17.5l111 -27q100 -24 149.5 -71t49.5 -129q0 -104 -81 -166
q-79 -61 -217 -61q-115 0 -202 50q-99 57 -116 194h203q15 -76 118 -76q73 0 73 43q0 28 -53 42l-114 28q-103 25 -151 73t-48 128q0 105 77 167q76 61 203 61z" />
    <glyph glyph-name="l.ss01" horiz-adv-x="385" 
d="M241 710v-503q0 -28 10.5 -39.5t39.5 -11.5q16 0 59 7l19 -160q-67 -18 -129 -18q-90 0 -141 52t-51 144v529h193z" />
    <glyph glyph-name="lacute.ss01" horiz-adv-x="385" 
d="M340 947l-100 -171h-184l86 171h198zM242 710v-503q0 -28 10 -39.5t39 -11.5q16 0 59 7l19 -160q-67 -18 -128 -18q-90 0 -141.5 52t-51.5 144v529h194z" />
    <glyph glyph-name="lcaron.ss01" horiz-adv-x="385" 
d="M242 710v-503q0 -28 10 -39.5t39 -11.5q16 0 59 7l19 -160q-67 -18 -128 -18q-90 0 -141.5 52t-51.5 144v529h194zM459 710l-39 -203h-130l5 203h164z" />
    <glyph glyph-name="lcommaaccent.ss01" horiz-adv-x="385" 
d="M242 710v-503q0 -28 10 -39.5t39 -11.5q16 0 59 7l19 -160q-67 -18 -128 -18q-90 0 -141.5 52t-51.5 144v529h194zM116 -298l46 90q-53 23 -53 75q0 37 28 63t67 26t67 -26t28 -63q0 -26 -17 -57q-20 -36 -71 -108h-95z" />
    <glyph glyph-name="ldot.ss01" horiz-adv-x="511" 
d="M242 710v-503q0 -28 10 -39.5t39 -11.5q16 0 59 7l19 -160q-67 -18 -128 -18q-90 0 -141.5 52t-51.5 144v529h194zM376 452q42 0 72 -28t30 -70t-29.5 -69.5t-72.5 -27.5t-72.5 27.5t-29.5 69.5t29.5 70t72.5 28z" />
    <glyph glyph-name="lslash.ss01" horiz-adv-x="385" 
d="M350 163l19 -160q-67 -18 -128 -18q-90 0 -141.5 52t-51.5 144v56l-45 -15v159l45 15v314h194v-251l57 19v-160l-57 -18v-93q0 -28 10 -39.5t39 -11.5q16 0 59 7z" />
    <glyph glyph-name="y.ss04" horiz-adv-x="615" 
d="M568 492v-480q0 -114 -72.5 -178t-196.5 -64q-119 0 -192 58t-77 158h188q5 -28 27 -44.5t53 -16.5q36 0 56 20.5t20 58.5v61q-55 -43 -128 -43q-92 0 -147 57t-55 156v257h193v-215q0 -41 19 -61.5t51 -20.5q34 0 67 33v264h194z" />
    <glyph glyph-name="yacute.ss04" horiz-adv-x="615" 
d="M406 558h-184l86 171h198zM568 492v-480q0 -114 -72.5 -178t-196.5 -64q-119 0 -192 58t-77 158h188q5 -28 27 -44.5t53 -16.5q36 0 56 20.5t20 58.5v61q-55 -43 -128 -43q-92 0 -147 57t-55 156v257h194v-215q0 -82 69 -82q34 0 67 33v264h194z" />
    <glyph glyph-name="ycircumflex.ss04" horiz-adv-x="615" 
d="M260 556h-159l114 171h183l115 -171h-159l-47 60zM568 492v-480q0 -114 -72.5 -178t-196.5 -64q-119 0 -192 58t-77 158h188q5 -28 27 -44.5t53 -16.5q36 0 56 20.5t20 58.5v61q-55 -43 -128 -43q-92 0 -147 57t-55 156v257h194v-215q0 -82 69 -82q34 0 67 33v264h194z
" />
    <glyph glyph-name="ydieresis.ss04" horiz-adv-x="615" 
d="M186 746q42 0 72 -28t30 -70t-29.5 -69.5t-72.5 -27.5t-72.5 27.5t-29.5 69.5t29.5 70t72.5 28zM430 746q42 0 72 -28t30 -70t-29.5 -69.5t-72.5 -27.5t-72.5 27.5t-29.5 69.5t29.5 70t72.5 28zM568 492v-480q0 -114 -72.5 -178t-196.5 -64q-119 0 -192 58t-77 158h188
q5 -28 27 -44.5t53 -16.5q36 0 56 20.5t20 58.5v61q-55 -43 -128 -43q-92 0 -147 57t-55 156v257h194v-215q0 -82 69 -82q34 0 67 33v264h194z" />
    <glyph glyph-name="ygrave.ss04" horiz-adv-x="615" 
d="M213 558l-100 171h198l86 -171h-184zM568 492v-480q0 -114 -72.5 -178t-196.5 -64q-119 0 -192 58t-77 158h188q5 -28 27 -44.5t53 -16.5q36 0 56 20.5t20 58.5v61q-55 -43 -128 -43q-92 0 -147 57t-55 156v257h194v-215q0 -82 69 -82q34 0 67 33v264h194z" />
    <glyph glyph-name="a.ss06" horiz-adv-x="568" 
d="M288 507q111 0 174.5 -56.5t63.5 -153.5v-297h-173v19q-53 -28 -124 -28q-92 0 -147 42t-55 114q0 69 54.5 109.5t149.5 40.5h122q0 31 -17.5 50.5t-47.5 19.5q-26 0 -44 -13.5t-21 -36.5h-177q3 90 71 140q70 50 171 50zM269 131q41 0 84 24v49h-101q-46 0 -46 -33
q0 -18 17 -29t46 -11z" />
    <glyph glyph-name="aacute.ss06" horiz-adv-x="568" 
d="M387 558h-184l86 171h198zM289 507q110 0 174 -57t64 -153v-297h-174v19q-53 -28 -124 -28q-92 0 -147 42t-55 114q0 69 54.5 109.5t149.5 40.5h122q0 31 -17.5 50.5t-47.5 19.5q-27 0 -44.5 -13.5t-19.5 -36.5h-178q3 90 72 140q70 50 171 50zM269 131q41 0 84 24v49
h-101q-45 0 -45 -33q0 -18 16.5 -29t45.5 -11z" />
    <glyph glyph-name="abreve.ss06" horiz-adv-x="568" 
d="M99 727h134q-2 -36 27 -51t58 0t27 51h134q0 -83 -52 -131.5t-138 -48.5t-138 48.5t-52 131.5zM289 507q110 0 174 -57t64 -153v-297h-174v19q-53 -28 -124 -28q-92 0 -147 42t-55 114q0 69 54.5 109.5t149.5 40.5h122q0 31 -17.5 50.5t-47.5 19.5q-27 0 -44.5 -13.5
t-19.5 -36.5h-178q3 90 72 140q70 50 171 50zM269 131q41 0 84 24v49h-101q-45 0 -45 -33q0 -18 16.5 -29t45.5 -11z" />
    <glyph glyph-name="acaron.ss06" horiz-adv-x="568" 
d="M195 559l-115 165h162l47 -60l47 60h162l-115 -165h-188zM289 507q110 0 174 -57t64 -153v-297h-174v19q-53 -28 -124 -28q-92 0 -147 42t-55 114q0 69 54.5 109.5t149.5 40.5h122q0 31 -17.5 50.5t-47.5 19.5q-27 0 -44.5 -13.5t-19.5 -36.5h-178q3 90 72 140
q70 50 171 50zM269 131q41 0 84 24v49h-101q-45 0 -45 -33q0 -18 16.5 -29t45.5 -11z" />
    <glyph glyph-name="acircumflex.ss06" horiz-adv-x="568" 
d="M242 556h-159l114 171h183l115 -171h-159l-47 60zM289 507q110 0 174 -57t64 -153v-297h-174v19q-53 -28 -124 -28q-92 0 -147 42t-55 114q0 69 54.5 109.5t149.5 40.5h122q0 31 -17.5 50.5t-47.5 19.5q-27 0 -44.5 -13.5t-19.5 -36.5h-178q3 90 72 140q70 50 171 50z
M269 131q41 0 84 24v49h-101q-45 0 -45 -33q0 -18 16.5 -29t45.5 -11z" />
    <glyph glyph-name="adieresis.ss06" horiz-adv-x="568" 
d="M167 746q42 0 72 -28t30 -70t-29.5 -69.5t-72.5 -27.5t-72.5 27.5t-29.5 69.5t29.5 70t72.5 28zM411 746q42 0 72 -28t30 -70t-29.5 -69.5t-72.5 -27.5t-72.5 27.5t-29.5 69.5t29.5 70t72.5 28zM289 507q110 0 174 -57t64 -153v-297h-174v19q-53 -28 -124 -28
q-92 0 -147 42t-55 114q0 69 54.5 109.5t149.5 40.5h122q0 31 -17.5 50.5t-47.5 19.5q-27 0 -44.5 -13.5t-19.5 -36.5h-178q3 90 72 140q70 50 171 50zM269 131q41 0 84 24v49h-101q-45 0 -45 -33q0 -18 16.5 -29t45.5 -11z" />
    <glyph glyph-name="agrave.ss06" horiz-adv-x="568" 
d="M195 558l-100 171h198l86 -171h-184zM289 507q110 0 174 -57t64 -153v-297h-174v19q-53 -28 -124 -28q-92 0 -147 42t-55 114q0 69 54.5 109.5t149.5 40.5h122q0 31 -17.5 50.5t-47.5 19.5q-27 0 -44.5 -13.5t-19.5 -36.5h-178q3 90 72 140q70 50 171 50zM269 131
q41 0 84 24v49h-101q-45 0 -45 -33q0 -18 16.5 -29t45.5 -11z" />
    <glyph glyph-name="amacron.ss06" horiz-adv-x="568" 
d="M436 567h-294v140h294v-140zM289 507q110 0 174 -57t64 -153v-297h-174v19q-53 -28 -124 -28q-92 0 -147 42t-55 114q0 69 54.5 109.5t149.5 40.5h122q0 31 -17.5 50.5t-47.5 19.5q-27 0 -44.5 -13.5t-19.5 -36.5h-178q3 90 72 140q70 50 171 50zM269 131q41 0 84 24v49
h-101q-45 0 -45 -33q0 -18 16.5 -29t45.5 -11z" />
    <glyph glyph-name="aogonek.ss06" horiz-adv-x="568" 
d="M559 -58l18 -144q-32 -17 -91 -17q-76 0 -129 36q-52 36 -52 101q0 52 48 92v9q-53 -28 -124 -28q-92 0 -147 42t-55 114q0 69 54.5 109.5t149.5 40.5h122q0 31 -17.5 50.5t-47.5 19.5q-27 0 -44.5 -13.5t-19.5 -36.5h-178q3 90 72 140q70 50 171 50q110 0 174 -57
t64 -153v-297h-7q-32 -7 -44 -16t-12 -24q0 -26 43 -26q22 0 52 8zM269 131q41 0 84 24v49h-101q-45 0 -45 -33q0 -18 16.5 -29t45.5 -11z" />
    <glyph glyph-name="aring.ss06" horiz-adv-x="568" 
d="M383 589q-37 -34 -95 -34q-59 0 -95 33t-36 89q0 55 36 88q37 34 95 34t95 -34t37 -88t-37 -88zM243 677q-3 -26 21 -37t48 0t21 37q3 27 -21 38.5t-48 0t-21 -38.5zM289 507q110 0 174 -57t64 -153v-297h-174v19q-53 -28 -124 -28q-92 0 -147 42t-55 114
q0 69 54.5 109.5t149.5 40.5h122q0 31 -17.5 50.5t-47.5 19.5q-27 0 -44.5 -13.5t-19.5 -36.5h-178q3 90 72 140q70 50 171 50zM269 131q41 0 84 24v49h-101q-45 0 -45 -33q0 -18 16.5 -29t45.5 -11z" />
    <glyph glyph-name="atilde.ss06" horiz-adv-x="568" 
d="M291 575l-27 17q-37 23 -37 -24h-132q0 57 21.5 95.5t53 53t66.5 13.5t63 -19l27 -17q37 -23 37 24h132q0 -56 -21.5 -95t-53.5 -53.5t-66.5 -13.5t-62.5 19zM289 507q110 0 174 -57t64 -153v-297h-174v19q-53 -28 -124 -28q-92 0 -147 42t-55 114q0 69 54.5 109.5
t149.5 40.5h122q0 31 -17.5 50.5t-47.5 19.5q-27 0 -44.5 -13.5t-19.5 -36.5h-178q3 90 72 140q70 50 171 50zM269 131q41 0 84 24v49h-101q-45 0 -45 -33q0 -18 16.5 -29t45.5 -11z" />
    <glyph glyph-name="zero.osf" horiz-adv-x="634" 
d="M607 269q0 -125 -82 -204q-81 -78 -208 -78q-128 0 -209 78t-81 204q0 124 81 202q83 78 209 78q127 0 208 -78q82 -78 82 -202zM437 269q0 53 -34.5 87t-85.5 34t-85.5 -34t-34.5 -87t34.5 -87.5t85.5 -34.5t85.5 34.5t34.5 87.5z" />
    <glyph glyph-name="one.osf" horiz-adv-x="543" 
d="M538 164v-164h-508v164h167v169l-154 -41v178l220 73h122v-379h153z" />
    <glyph glyph-name="two.osf" horiz-adv-x="584" 
d="M550 164v-164h-509v104l151 83q65 36 103 71t38 61q0 21 -14 34.5t-39 13.5q-27 0 -44 -15.5t-19 -43.5h-186q3 110 69 174.5t183 64.5q114 0 181 -59q67 -58 67 -144q0 -96 -119 -180h138z" />
    <glyph glyph-name="three.osf" horiz-adv-x="596" 
d="M486 200q80 -45 80 -139q0 -97 -76 -157q-76 -59 -200 -59q-119 0 -187 59.5t-76 166.5h182q11 -71 94 -71q34 0 55.5 17.5t21.5 45.5q0 27 -22.5 45.5t-55.5 18.5h-66v138h66q33 0 55 18t22 47q0 28 -20 45t-54 17q-36 0 -59 -19t-25 -51h-183q5 104 73.5 165t183.5 61
t186 -57t71 -149q0 -94 -66 -142z" />
    <glyph glyph-name="four.osf" horiz-adv-x="673" 
d="M647 1h-82v-107h-187v107h-345v125l179 448h186l-147 -407h127v176h187v-176h82v-166z" />
    <glyph glyph-name="five.osf" horiz-adv-x="631" 
d="M264 310h80q120 0 184 -64q65 -63 65 -163q0 -106 -77 -171q-76 -64 -201 -64q-120 0 -197 62q-78 62 -85 164h186q8 -33 33.5 -52t62.5 -19q43 0 70 22t27 57q0 34 -27.5 54t-77.5 20h-228v387h479v-166h-294v-67z" />
    <glyph glyph-name="six.osf" horiz-adv-x="630" 
d="M483 680l-126 -193q110 -12 177 -79q68 -68 68 -163q0 -111 -80 -186q-80 -74 -207 -74q-125 0 -205 74q-78 73 -78 185q0 72 53 158l174 278h224zM315 146q43 0 72 28.5t29 67.5q0 38 -29 65.5t-72 27.5q-40 0 -71 -23l-7 -10q-23 -32 -23 -61q0 -38 29.5 -66.5
t71.5 -28.5z" />
    <glyph glyph-name="seven.osf" horiz-adv-x="543" 
d="M527 540v-107l-248 -573h-217l223 504h-275v176h517z" />
    <glyph glyph-name="eight.osf" horiz-adv-x="620" 
d="M480 363q111 -55 111 -161q0 -102 -74 -159.5t-208 -57.5q-133 0 -207 57.5t-74 159.5q0 106 111 161q-82 48 -82 133q0 88 71 144q70 55 181 55t181 -55q71 -56 71 -144q0 -85 -81 -133zM366 536q-23 20 -56.5 20t-56.5 -20q-22 -19 -22 -50t22 -51q23 -21 57 -20.5
t56 20.5q23 21 23 51t-23 50zM395 215q0 33 -24 54.5t-61 21.5t-61 -21.5t-24 -54.5q0 -34 24 -56t61 -22t61 22t24 56z" />
    <glyph glyph-name="nine.osf" horiz-adv-x="630" 
d="M315 559q125 0 204 -74q79 -73 79 -185q0 -75 -53 -158l-174 -278h-223l125 193q-111 12 -178 79t-67 163q0 111 80 185q80 75 207 75zM387 232l6 10q23 39 23 61q0 38 -29.5 66.5t-71.5 28.5q-43 0 -72 -28.5t-29 -67.5q0 -38 29 -65.5t72 -27.5q41 0 72 23z" />
    <glyph glyph-name="zero.tf" horiz-adv-x="660" 
d="M99 597q84 98 230 98t230 -98t84 -257q0 -160 -84 -258q-84 -97 -230 -97t-230 97q-84 98 -84 258q0 159 84 257zM232 205q33 -50 97 -50t97 50q33 51 33 135t-33 134q-33 51 -97 51t-97 -51q-33 -50 -33 -134t33 -135z" />
    <glyph glyph-name="one.tf" horiz-adv-x="660" 
d="M621 164v-164h-561v164h202v305l-154 -41v179l220 73h123v-516h170z" />
    <glyph glyph-name="two.tf" horiz-adv-x="660" 
d="M580 164v-164h-509v91l207 246l42 51q21 23 27 36q16 22 16 42q0 21 -14.5 35t-38.5 14q-26 0 -42.5 -15.5t-19.5 -43.5h-187q3 111 69 175t183 64q116 0 189 -62q73 -61 73 -154q0 -47 -32 -97q-33 -52 -121 -156l-52 -62h210z" />
    <glyph glyph-name="three.tf" horiz-adv-x="660" 
d="M518 340q80 -45 80 -139q0 -97 -76 -157q-76 -59 -200 -59q-119 0 -187 59.5t-76 166.5h182q11 -71 94 -71q34 0 55.5 17.5t21.5 45.5q0 27 -22.5 45.5t-55.5 18.5h-66v138h66q33 0 55 18t22 47q0 28 -20 45t-54 17q-36 0 -59 -19t-25 -51h-183q5 104 73.5 165t183.5 61
t186 -57t71 -149q0 -94 -66 -142z" />
    <glyph glyph-name="four.tf" horiz-adv-x="660" 
d="M629 107h-82v-107h-187v107h-345v125l179 448h186l-147 -407h127v176h187v-176h82v-166z" />
    <glyph glyph-name="five.tf" horiz-adv-x="660" 
d="M266 447h80q120 0 184 -64q65 -63 65 -163q0 -106 -77 -171q-76 -64 -201 -64q-120 0 -197 62q-78 62 -85 164h186q8 -33 33.5 -52t62.5 -19q43 0 70 22t27 57q0 34 -27.5 54t-77.5 20h-228v387h479v-166h-294v-67z" />
    <glyph glyph-name="six.tf" horiz-adv-x="660" 
d="M490 680l-125 -193q109 -12 177 -80t68 -162q0 -111 -80 -186q-80 -74 -207 -74q-125 0 -205 74q-78 73 -78 185q0 75 53 158l174 278h223zM323 146q43 0 72 28.5t29 67.5q0 38 -29 65.5t-72 27.5q-41 0 -72 -23l-6 -10q-23 -39 -23 -61q0 -38 29.5 -66.5t71.5 -28.5z
" />
    <glyph glyph-name="seven.tf" horiz-adv-x="660" 
d="M596 680v-107l-248 -573h-218l224 504h-275v176h517z" />
    <glyph glyph-name="eight.tf" horiz-adv-x="660" 
d="M500 363q111 -55 111 -161q0 -102 -74 -159.5t-208 -57.5q-133 0 -207 57.5t-74 159.5q0 106 111 161q-82 48 -82 133q0 88 71 144q70 55 181 55t181 -55q71 -56 71 -144q0 -85 -81 -133zM385 536q-23 20 -56 20t-56 -20q-22 -20 -22 -50.5t22 -50.5t56 -20t56 20
q23 21 23 51t-23 50zM329 137q37 0 61.5 22t24.5 56q0 33 -24.5 54.5t-61.5 21.5q-36 0 -60.5 -21.5t-24.5 -54.5q0 -34 24.5 -56t60.5 -22z" />
    <glyph glyph-name="nine.tf" horiz-adv-x="647" 
d="M321 695q125 0 204 -74q79 -73 79 -185q0 -75 -53 -158l-174 -278h-223l125 193q-111 12 -178 79t-67 163q0 111 80 185q80 75 207 75zM393 368l6 10q23 39 23 61q0 38 -29.5 66.5t-71.5 28.5q-43 0 -72 -28.5t-29 -67.5q0 -38 29 -65.5t72 -27.5q41 0 72 23z" />
    <glyph glyph-name="zero.zero" horiz-adv-x="717" 
d="M122 597q89 98 236 98q146 0 235 -98t89 -257t-89 -257t-235 -98q-147 0 -236 98q-88 97 -88 257t88 257zM359 525q-65 0 -102.5 -50.5t-37.5 -134.5q0 -39 9 -72l174 250q-17 7 -43 7zM359 155q65 0 102.5 50.5t37.5 134.5q0 41 -11 80l-178 -256q22 -9 49 -9z" />
    <glyph glyph-name="zero.osf.zero" horiz-adv-x="634" 
d="M608 269q0 -125 -82 -204q-81 -78 -208 -78q-129 0 -210 78t-81 204q0 124 82 202t209 78t208 -78q82 -78 82 -202zM317 390q-51 0 -85.5 -34t-34.5 -87q0 -26 9 -47l157 159q-21 9 -46 9zM317 147q51 0 85 34.5t34 87.5q0 26 -10 52l-161 -163q27 -11 52 -11z" />
    <glyph glyph-name="zero.dnom" horiz-adv-x="459" 
d="M77 369q57 61 152 61q94 0 152 -61t58 -158q0 -99 -58 -160q-57 -61 -152 -61t-152 61t-57 160q0 98 57 158zM149 211q0 -45 22 -73.5t58 -28.5t58 28.5t22 73.5t-22 73t-58 28t-58 -28t-22 -73z" />
    <glyph glyph-name="one.dnom" horiz-adv-x="343" 
d="M338 114v-114h-318v114h98v157l-91 -24v123l136 45h84v-301h91z" />
    <glyph glyph-name="two.dnom" horiz-adv-x="378" 
d="M351 114v-114h-321v63l133 154q43 49 43 63q0 21 -24 21q-27 0 -29 -29h-125q1 70 42 110.5t115 40.5q73 0 119 -38q45 -37 45 -92q0 -31 -18 -62q-18 -34 -67 -92l-21 -25h108z" />
    <glyph glyph-name="three.dnom" horiz-adv-x="388" 
d="M314 207q45 -27 45 -84q0 -59 -46.5 -96t-122.5 -37q-75 0 -117.5 37.5t-48.5 106.5h128q4 -36 41 -36q17 0 27 8.5t10 21.5q0 28 -44 28h-33v96h33q43 0 43 31q0 27 -34 27q-33 0 -35 -35h-128q4 68 45.5 106t114.5 38q72 0 115 -35.5t43 -95.5q0 -52 -36 -81z" />
    <glyph glyph-name="four.dnom" horiz-adv-x="423" 
d="M399 61h-44v-61h-131v61h-202v86l103 268h130l-83 -240h52v75h131v-75h44v-114z" />
    <glyph glyph-name="five.dnom" horiz-adv-x="399" 
d="M181 271h36q73 0 111.5 -36t38.5 -98q0 -66 -46.5 -105.5t-122.5 -39.5q-72 0 -119 38t-51 101h130q8 -32 42 -32q18 0 30 10t12 26q0 36 -47 36h-141v244h293v-109h-165z" />
    <glyph glyph-name="six.dnom" horiz-adv-x="402" 
d="M312 415l-74 -116q65 -10 103 -50.5t38 -98.5q0 -66 -50 -113q-49 -45 -129 -45q-79 0 -128 45q-49 46 -49 111q0 41 35 101l98 166h156zM249 149q0 21 -14 34.5t-36 13.5q-21 0 -36 -15q-12 -15 -12 -33q0 -20 14 -33.5t35 -13.5t35 13.5t14 33.5z" />
    <glyph glyph-name="seven.dnom" horiz-adv-x="351" 
d="M338 415v-75l-145 -340h-153l131 294h-158v121h325z" />
    <glyph glyph-name="eight.dnom" horiz-adv-x="403" 
d="M315 222q64 -34 64 -98q0 -62 -46.5 -97t-130.5 -35q-85 0 -132 35t-47 97q0 64 65 97q-47 30 -47 79q0 55 44.5 89t116.5 34q70 0 114.5 -34t44.5 -89q0 -50 -46 -78zM229 318q-10 10 -27 10t-28 -10q-11 -9 -11 -25t11 -26t28 -10t27 10q11 11 11 26.5t-11 24.5z
M202 96q24 -3 34.5 17t0 40t-34.5 17q-26 3 -37 -17t0 -40t37 -17z" />
    <glyph glyph-name="nine.dnom" horiz-adv-x="402" 
d="M201 424q78 0 127 -46q50 -45 50 -110q0 -41 -35 -101l-98 -166h-156l74 116q-65 10 -103 50.5t-38 98.5q0 67 50 112q49 46 129 46zM202 219q21 0 36 15q12 15 12 33q0 20 -14 33.5t-35 13.5t-35 -13.5t-14 -33.5q0 -21 14 -34.5t36 -13.5z" />
    <glyph glyph-name="zero.numr" horiz-adv-x="459" 
d="M77 634q57 61 152 61q94 0 152 -61t58 -158q0 -99 -58 -160q-57 -61 -152 -61t-152 61q-57 62 -57 160t57 158zM149 476q0 -45 22 -73.5t58 -28.5t58 28.5t22 73.5t-22 73t-58 28t-58 -28t-22 -73z" />
    <glyph glyph-name="one.numr" horiz-adv-x="343" 
d="M338 379v-114h-318v114h98v157l-91 -24v123l136 45h84v-301h91z" />
    <glyph glyph-name="two.numr" horiz-adv-x="378" 
d="M351 379v-114h-321v63l133 154q43 49 43 63q0 21 -24 21q-27 0 -29 -29h-125q1 70 42 110.5t115 40.5q73 0 119 -38q45 -38 45 -92q0 -30 -18 -62q-18 -34 -67 -92l-21 -25h108z" />
    <glyph glyph-name="three.numr" horiz-adv-x="388" 
d="M314 476q45 -27 45 -84q0 -59 -46.5 -96t-122.5 -37q-75 0 -117.5 37.5t-48.5 106.5h128q4 -36 41 -36q17 0 27 8.5t10 21.5q0 28 -44 28h-33v96h33q43 0 43 31q0 27 -34 27q-33 0 -35 -35h-128q4 68 45.5 106t114.5 38q72 0 115 -35.5t43 -95.5q0 -53 -36 -81z" />
    <glyph glyph-name="four.numr" horiz-adv-x="423" 
d="M399 326h-44v-61h-131v61h-202v86l103 268h130l-83 -240h52v75h131v-75h44v-114z" />
    <glyph glyph-name="five.numr" horiz-adv-x="399" 
d="M181 536h36q73 0 111.5 -36t38.5 -98q0 -66 -46.5 -105.5t-122.5 -39.5q-72 0 -119 38t-51 101h130q8 -32 42 -32q18 0 30 10t12 26q0 36 -47 36h-141v244h293v-109h-165z" />
    <glyph glyph-name="six.numr" horiz-adv-x="402" 
d="M312 680l-74 -116q65 -10 103 -50.5t38 -98.5q0 -66 -50 -113q-49 -45 -129 -45q-79 0 -128 45q-49 46 -49 111q0 41 35 101l98 166h156zM249 414q0 21 -14 34.5t-36 13.5q-21 0 -36 -15q-12 -15 -12 -33q0 -20 14 -33.5t35 -13.5t35 13.5t14 33.5z" />
    <glyph glyph-name="seven.numr" horiz-adv-x="351" 
d="M338 680v-75l-145 -340h-153l131 294h-158v121h325z" />
    <glyph glyph-name="eight.numr" horiz-adv-x="403" 
d="M315 491q64 -34 64 -98q0 -62 -46.5 -97t-130.5 -35q-85 0 -132 35t-47 97q0 64 65 97q-47 30 -47 79q0 55 44.5 89t116.5 34q70 0 114.5 -34t44.5 -89q0 -50 -46 -78zM229 587q-10 10 -27 10t-28 -10q-11 -9 -11 -25t11 -26t28 -10t27 10q11 10 11 26t-11 25zM202 365
q24 -3 34.5 17t0 40t-34.5 17q-26 3 -37 -17t0 -40t37 -17z" />
    <glyph glyph-name="nine.numr" horiz-adv-x="402" 
d="M201 693q78 0 127 -46q50 -45 50 -110q0 -41 -35 -101l-98 -166h-156l74 116q-65 10 -103 50.5t-38 98.5q0 67 50 112q49 46 129 46zM202 488q21 0 36 15q12 15 12 33q0 20 -14 33.5t-35 13.5t-35 -13.5t-14 -33.5q0 -21 14 -34.5t36 -13.5z" />
    <glyph glyph-name="backslash.case" horiz-adv-x="423" 
d="M7 730h188l222 -777h-188z" />
    <glyph glyph-name="bullet.case" horiz-adv-x="380" 
d="M307 216q-49 -49 -117 -49t-117 49q-50 50 -50 116q0 65 50 115t117 50t117 -50t50 -115q0 -66 -50 -116z" />
    <glyph glyph-name="exclamdown.case" horiz-adv-x="304" 
d="M248 601q0 -38 -28.5 -64t-67.5 -26t-67.5 26t-28.5 64q0 39 28 65.5t68 26.5t68 -26.5t28 -65.5zM51 0l17 454h168l17 -454h-202z" />
    <glyph glyph-name="periodcentered.case" horiz-adv-x="252" 
d="M126 231q-43 0 -73 28t-30 70t30 70t73 28q42 0 72 -28t30 -70t-30 -70t-72 -28z" />
    <glyph glyph-name="questiondown.case" horiz-adv-x="554" 
d="M304 693q39 0 67 -26.5t28 -65.5q0 -38 -28 -64t-67 -26t-67.5 26t-28.5 64q0 39 28 65.5t68 26.5zM370 456l10 -168h-91q-39 0 -63 -19.5t-24 -52.5q0 -31 21 -49.5t55 -18.5q36 0 57 18.5t23 51.5h183q-5 -106 -72.5 -166t-186.5 -60q-112 0 -183 62q-70 61 -70 163
q0 75 52 126t142 65l4 48h143z" />
    <glyph glyph-name="slash.case" horiz-adv-x="423" 
d="M17 -47l222 777h188l-222 -777h-188z" />
    <glyph glyph-name="braceleft.case" horiz-adv-x="383" 
d="M295 518v-77q0 -74 -79 -99q79 -25 79 -99v-78q0 -20 18 -33t47 -13v-174q-119 0 -188.5 53.5t-69.5 147.5v76q0 37 -15 43q-11 6 -50 6h-14v141q55 0 65 6q14 9 14 43v76q0 94 69.5 147.5t188.5 53.5v-174q-29 0 -47 -12.5t-18 -33.5z" />
    <glyph glyph-name="braceright.case" horiz-adv-x="388" 
d="M93 441v77q0 21 -18 33.5t-47 12.5v174q119 0 188.5 -53.5t69.5 -147.5v-76q0 -36 15 -44q15 -5 52 -5h12v-141q-52 0 -64 -5q-15 -9 -15 -44v-76q0 -94 -69.5 -147.5t-188.5 -53.5v174q29 0 47 13t18 33v78q0 74 79 99q-79 25 -79 99z" />
    <glyph glyph-name="bracketleft.case" horiz-adv-x="411" 
d="M244 128h143v-176h-337v778h337v-177h-143v-425z" />
    <glyph glyph-name="bracketright.case" horiz-adv-x="411" 
d="M23 553v177h338v-778h-338v176h144v425h-144z" />
    <glyph glyph-name="parenleft.case" horiz-adv-x="390" 
d="M233 725l137 -124q-73 -84 -99 -134q-27 -53 -27 -126t27 -126q26 -50 99 -134l-137 -124q-107 95 -153 184t-46 200t46 200t153 184z" />
    <glyph glyph-name="parenright.case" horiz-adv-x="390" 
d="M20 601l137 124q107 -95 153 -184t46 -200t-46 -200t-153 -184l-137 124q72 80 100 134q27 53 27 126q0 74 -27 125q-28 54 -100 135z" />
    <glyph glyph-name="emdash.case" horiz-adv-x="1086" 
d="M993 417v-178h-900v178h900z" />
    <glyph glyph-name="endash.case" horiz-adv-x="684" 
d="M590 417v-178h-497v178h497z" />
    <glyph glyph-name="hyphen.case" horiz-adv-x="560" 
d="M466 416v-179h-373v179h373z" />
    <glyph glyph-name="guillemotleft.case" horiz-adv-x="514" 
d="M279 493l-99 -168l99 -167h-162l-99 167l99 168h162zM496 493l-99 -168l99 -167h-162l-99 167l99 168h162z" />
    <glyph glyph-name="guillemotright.case" horiz-adv-x="514" 
d="M279 325l-99 -167h-162l99 167l-99 168h162zM496 325l-99 -167h-162l99 167l-99 168h162z" />
    <glyph glyph-name="guilsinglleft.case" horiz-adv-x="297" 
d="M279 493l-99 -168l99 -167h-162l-99 167l99 168h162z" />
    <glyph glyph-name="guilsinglright.case" horiz-adv-x="297" 
d="M279 325l-99 -167h-162l99 167l-99 168h162z" />
    <glyph glyph-name="florin.tf" horiz-adv-x="660" 
d="M519 511q-63 0 -72 -67l-7 -52h138v-146h-159l-20 -135q-17 -117 -75.5 -179.5t-151.5 -62.5q-64 0 -144 21l25 162q44 -9 79 -9q61 0 72 68l20 135h-115v146h136l7 51q16 117 74.5 180t152.5 63q62 0 144 -22l-26 -162q-41 9 -78 9z" />
    <glyph glyph-name="cent.tf" horiz-adv-x="660" 
d="M330 144q34 0 58 19.5t28 51.5h172q-5 -83 -55.5 -141t-132.5 -77v-97h-144v97q-93 20 -148 87t-55 163t55 163q56 68 148 88v114h144v-114q82 -19 132.5 -77t55.5 -141h-172q-4 32 -28 51.5t-58 19.5q-46 0 -72.5 -28.5t-26.5 -75.5t26.5 -75t72.5 -28z" />
    <glyph glyph-name="dollar.tf" horiz-adv-x="660" 
d="M636 212q0 -89 -58.5 -147t-163.5 -74v-95h-144v94q-98 13 -168 71q-68 57 -82 168h203q15 -76 118 -76q73 0 73 43q0 28 -53 42l-114 28q-103 25 -151 73t-48 128q0 92 59.5 151.5t162.5 72.5v109h144v-113q85 -16 146 -70q59 -52 70 -153h-203q-15 67 -87 67
q-31 0 -50 -12.5t-19 -33.5q0 -18 12.5 -28.5t42.5 -17.5l111 -27q100 -24 149.5 -71t49.5 -129z" />
    <glyph glyph-name="Euro.tf" horiz-adv-x="660" 
d="M365 155q65 0 87 45h198q-19 -98 -97 -157q-76 -58 -188 -58q-117 0 -197 64.5t-107 178.5h-52v84h40l-1 28v18h-39v84h49q25 118 106 185.5t201 67.5q115 0 191 -60q76 -58 96 -160h-195q-23 50 -92 50q-81 0 -116 -83h209l-22 -84h-204v-18q0 -22 1 -28h192l-21 -84
h-150q34 -73 111 -73z" />
    <glyph glyph-name="sterling.tf" horiz-adv-x="660" 
d="M292 165h317v-165h-559v165h52v99h-52v138h52v46q0 110 72 176t190 66q112 0 182 -61q72 -62 79 -166h-192q-10 61 -69 61q-33 0 -52.5 -20t-19.5 -56v-46h171v-138h-171v-99z" />
    <glyph glyph-name="yen.tf" horiz-adv-x="660" 
d="M495 334h119v-115h-168l-15 -34v-4h183v-115h-182v-66h-202v66h-183v115h182v4l-15 34h-167v115h118l-150 346h223l91 -274l92 274h223z" />
    <glyph glyph-name="arrowdown.ss05" horiz-adv-x="703" 
d="M462 216l-110 -110l-289 289l110 110l179 -179l178 179l110 -110z" />
    <glyph glyph-name="arrowleft.ss05" horiz-adv-x="703" 
d="M530 108l-178 179l-179 -179l-110 110l289 289l110 -110l178 -179z" />
    <glyph glyph-name="arrowright.ss05" horiz-adv-x="561" 
d="M293 335l179 -178l-110 -110l-179 178l-110 110l289 289l110 -110z" />
    <glyph glyph-name="arrowup.ss05" horiz-adv-x="561" 
d="M487 335l-288 -288l-110 110l178 178l-179 179l110 110z" />
    <glyph glyph-name="at.case" horiz-adv-x="980" 
d="M716 514v-252q0 -56 37 -56q64 0 64 134q0 127 -88 211q-88 85 -225 85q-142 0 -239 -94q-98 -95 -98 -228q0 -136 95 -231q97 -95 234 -95q121 0 212 75l65 -95q-117 -90 -277 -90q-188 0 -319 125q-127 123 -130 310q-2 178 133 307t319 127q188 -3 309 -117
q125 -116 125 -286q0 -113 -49 -178.5t-143 -65.5q-99 0 -145 61q-67 -58 -146 -58q-82 0 -141 59q-58 59 -58 151q0 93 58 152q59 60 141 60q60 0 107 -30v19h159zM487 229q43 0 74 33q-4 24 -4 63v44q-30 30 -70 30q-35 0 -58 -23.5t-23 -61.5t23 -61.5t58 -23.5z" />
    <glyph glyph-name="bar.case" horiz-adv-x="339" 
d="M252 730v-777h-165v777h165z" />
    <glyph glyph-name="brokenbar.case" horiz-adv-x="339" 
d="M252 392h-165v338h165v-338zM252 -47h-165v337h165v-337z" />
    <glyph glyph-name="registered.ss07" horiz-adv-x="797" 
d="M141 593q106 102 257 102q150 0 257 -102t107 -253t-107 -253t-257 -102q-151 0 -257 102q-107 102 -107 253t107 253zM212 155q78 -75 186 -75t186 75q79 76 79 185q0 108 -79 184t-186 76q-109 0 -186 -76q-78 -75 -78 -184q0 -108 78 -185zM542 384q0 -55 -49 -83
l66 -100h-113l-45 77h-3h-28v-77h-96v292h134q63 0 98.5 -28.5t35.5 -80.5zM370 354h37q21 0 30 16t0 31t-30 13h-37v-60z" />
    <glyph glyph-name="caron.alt" 
d="M394 680l-39 -203h-130l5 203h164z" />
    <glyph glyph-name="acute.case" 
d="M494 889l-100 -171h-184l86 171h198z" />
    <glyph glyph-name="breve.case" 
d="M356 906h134q0 -83 -52 -131.5t-138 -48.5t-138 48.5t-52 131.5h134q-2 -36 27 -51t58 0t27 51z" />
    <glyph glyph-name="caron.case" 
d="M509 887l-115 -165h-188l-115 165h162l47 -60l47 60h162z" />
    <glyph glyph-name="circumflex.case" 
d="M300 782l-47 -60h-159l114 171h183l115 -171h-159z" />
    <glyph glyph-name="dieresis.case" 
d="M178 926q42 0 72 -28t30 -70t-29.5 -69.5t-72.5 -27.5t-72.5 27.5t-29.5 69.5t29.5 70t72.5 28zM422 926q42 0 72 -28t30 -70t-29.5 -69.5t-72.5 -27.5t-72.5 27.5t-29.5 69.5t29.5 70t72.5 28z" />
    <glyph glyph-name="dotaccent.case" 
d="M300 913q42 0 72 -28t30 -70t-29.5 -69.5t-72.5 -27.5t-72.5 27.5t-29.5 69.5t29.5 70t72.5 28z" />
    <glyph glyph-name="grave.case" 
d="M421 718h-184l-100 171h197z" />
    <glyph glyph-name="hungarumlaut.case" 
d="M351 891l-67 -171h-141l53 171h155zM529 891l-67 -171h-141l53 171h155z" />
    <glyph glyph-name="macron.case" 
d="M447 867v-140h-294v140h294z" />
    <glyph glyph-name="ring.case" 
d="M204 932q37 34 95 34t95 -34t37 -88t-37 -88t-95 -34q-59 0 -95 33t-36 89q0 55 36 88zM344 844q3 26 -21 37t-48 0t-21 -37q-3 -27 21 -38.5t48 0t21 38.5z" />
    <glyph glyph-name="tilde.case" 
d="M374 878h132q0 -56 -21.5 -95t-53.5 -53.5t-66.5 -13.5t-62.5 19l-27 17q-37 23 -37 -24h-132q0 57 21.5 95.5t53 53t66.5 13.5t63 -19l27 -17q37 -23 37 24z" />
    </font>
</defs>
</svg>
